<?xml version="1.0" encoding="UTF-8"?>
<svg width="15px" height="17px" viewBox="0 0 15 17" version="1.1" xmlns="http://www.w3.org/2000/svg" xmlns:xlink="http://www.w3.org/1999/xlink">
    <!-- Generator: Sketch 61 (89581) - https://sketch.com -->
    <title>复制 (1)</title>
    <desc>Created with Sketch.</desc>
    <g id="账户交易列表_20200305" stroke="none" stroke-width="1" fill="none" fill-rule="evenodd">
        <g id="地址-交易" transform="translate(-750.000000, -257.000000)" fill="#666666" fill-rule="nonzero">
            <g id="up" transform="translate(360.000000, 173.000000)">
                <g id="复制-(1)" transform="translate(390.000000, 84.000000)">
                    <path d="M11.2318922,2.3025949 L1.45338481,2.3025949 C0.659635009,2.30354939 0.0163872988,2.94672665 0.0153458606,3.74047634 L0.0153458606,14.6694149 C0.0163005367,15.4632261 0.659573606,16.1064991 1.45338481,16.1074538 L11.2318922,16.1074538 C12.0258112,16.1067591 12.6692364,15.4633339 12.6699311,14.6694149 L12.6699311,3.74047634 C12.6688897,2.94672665 12.025642,2.30354939 11.2318922,2.3025949 Z M11.6455055,14.6694149 C11.634165,15.0028572 11.3900292,15.0830282 11.2318922,15.0830282 L1.45338481,15.0830282 C1.12844786,15.077673 1.03977142,14.8283394 1.03977142,14.6694149 L1.03977142,3.74047634 C1.03977142,3.58170928 1.14419857,3.35001648 1.45338481,3.32702044 L11.2318922,3.32702044 C11.6184143,3.35852185 11.6455055,3.58170927 11.6455055,3.74047634 L11.6455055,14.6694149 Z" id="形状"></path>
                    <path d="M13.5327545,0.00173257939 L3.75424713,0.00173257939 C3.43655551,0.00173257939 3.17147121,0.209956842 3.17147121,0.527648469 C3.17147121,0.845340096 3.43687051,1.02615814 3.75424713,1.02615814 L13.5327545,1.02615814 C13.7979963,1.0319859 13.9436902,1.18366515 13.9462104,1.43977153 L13.9462104,12.3685525 C13.9462104,12.6862442 14.1438817,12.9399879 14.4614158,12.9399879 C14.7789499,12.9399879 14.9707934,12.6862442 14.9707934,12.3685525 L14.9707934,1.43977153 C14.9698387,0.645960325 14.3265657,0.00268725543 13.5327545,0.00173257939 Z" id="路径"></path>
                    <path d="M9.21863763,5.32247669 L3.47309712,5.32247669 C3.19478224,5.32247669 2.9619869,5.5429865 2.95568662,5.82067134 C2.94828379,6.14907345 3.14296245,6.346748 3.46663933,6.346748 L9.22966312,6.346748 C9.36878043,6.34724031 9.50212996,6.2911968 9.59912575,6.19146874 C9.69612155,6.09174067 9.74844,5.9568861 9.74408099,5.81783622 C9.73305551,5.51510775 9.52813889,5.32247669 9.21911015,5.32247669 L9.21863763,5.32247669 Z M9.21863763,8.19839708 L3.42064729,8.19839708 C3.12358907,8.19839708 2.88039826,8.44489554 2.89551893,8.74163873 C2.91126963,9.04090204 3.15887064,9.22282264 3.46663933,9.22282264 L9.226828,9.22282264 C9.54436212,9.22282264 9.8045637,8.99569755 9.78534783,8.67879344 C9.76739203,8.38472787 9.52435873,8.19839708 9.21832261,8.19839708 L9.21863763,8.19839708 Z M6.91777531,11.0503764 L3.47703479,11.0503764 C3.17918904,11.0503764 2.90040165,11.2570256 2.92402771,11.5770798 C2.94859881,11.9106797 3.13713469,12.0746445 3.46663933,12.0746445 L6.90737985,12.0746445 C7.20506809,12.0746445 7.47771272,11.8977641 7.49251837,11.6003909 C7.50905659,11.2666335 7.24743747,11.0503764 6.91777531,11.0503764 L6.91777531,11.0503764 Z" id="形状"></path>
                </g>
            </g>
        </g>
    </g>
</svg>