<?xml version="1.0" encoding="UTF-8"?>
<svg width="15px" height="15px" viewBox="0 0 15 15" version="1.1" xmlns="http://www.w3.org/2000/svg" xmlns:xlink="http://www.w3.org/1999/xlink">
    <!-- Generator: Sketch 61 (89581) - https://sketch.com -->
    <title>二维码</title>
    <desc>Created with Sketch.</desc>
    <g id="账户交易列表_20200305" stroke="none" stroke-width="1" fill="none" fill-rule="evenodd">
        <g id="地址-交易" transform="translate(-780.000000, -258.000000)" fill="#666666" fill-rule="nonzero">
            <g id="up" transform="translate(360.000000, 173.000000)">
                <g id="地址">
                    <g id="分组-4" transform="translate(31.000000, 81.000000)">
                        <g id="Group-13">
                            <g id="分组-3" transform="translate(389.000000, 3.000000)">
                                <g id="二维码" transform="translate(0.000000, 1.000000)">
                                    <path d="M6.04295595,0 L6.47979614,0 L6.47979614,0.447761191 L6.04295595,0.447761191 L6.04295595,0 Z M8.2271569,0 L7.79031671,0 L7.79031671,1.34328359 L8.2271569,1.34328359 L8.2271569,0.671641787 L8.2271569,0 Z M5.46050236,0.522388066 L5.89734255,0.522388066 L5.89734255,0.970149258 L5.46050236,0.970149258 L5.46050236,0.522388066 Z M4.58682199,1.34328359 L5.02366218,1.34328359 L5.02366218,1.79104478 L4.58682199,1.79104478 L4.58682199,1.34328359 Z M6.47979614,1.34328359 L6.91663634,1.34328359 L6.91663634,1.79104478 L6.47979614,1.79104478 L6.47979614,1.34328359 Z M9.46487077,1.9402985 L10.120131,1.9402985 L10.120131,0.64679105 L9.46487077,0.64679105 L9.46487077,0 L8.80961048,0 L8.80961048,1.29350747 L9.46487077,1.29350747 L9.46487077,1.9402985 Z M5.89734255,1.9402985 L5.46050236,1.9402985 L5.46050236,3.28358209 L5.89734255,3.28358209 L5.89734255,2.6119403 L5.89734255,1.9402985 Z M2.40262104,3.20895523 L2.98507463,3.20895523 L2.98507463,1.26865671 L1.23771387,1.26865671 L1.23771387,3.20895523 L1.82016745,3.20895523 L2.40262104,3.20895523 Z M12.3771387,1.26865671 L11.7946851,1.26865671 L11.7946851,3.20895523 L13.5420459,3.20895523 L13.5420459,1.26865671 L12.9595923,1.26865671 L12.3771387,1.26865671 Z" id="形状"></path>
                                    <path d="M7.18361849,3.67164179 L7.18361849,4.25373135 L7.79031671,4.25373135 L7.79031671,3.67164179 L8.39701492,3.67164179 L8.39701492,3.08955224 L9.00378594,3.08955224 L9.00378594,3.67164179 L9.61048417,3.67164179 L9.61048417,2.50746268 L9.00378594,2.50746268 L9.00378594,1.34328359 L8.39701492,1.34328359 L8.39701492,2.50746268 L7.79031671,2.50746268 L7.79031671,1.92537313 L7.18361849,1.92537313 L7.18361849,3.08955224 L5.97014926,3.08955224 L5.97014926,4.25373135 L6.57684747,4.25373135 L6.57684747,3.67164179 L7.18361849,3.67164179 Z M1.18572989,4.25373135 L4.1499818,4.25373135 L4.1499818,0 L0,0 L0,4.25373135 L1.18572989,4.25373135 Z M0.592864939,3.03835821 L0.592864939,0.607686563 L3.55711685,0.607686563 L3.55711685,3.64604477 L0.592864939,3.64604477 L0.592864939,3.03835821 Z M9.68329086,3.73134328 L10.120131,3.73134328 L10.120131,4.17910447 L9.68329086,4.17910447 L9.68329086,3.73134328 Z M14.1140881,0 L10.5569712,0 L10.5569712,4.25373135 L14.706953,4.25373135 L14.706953,0 L14.1140881,0 Z M14.1140881,1.21537314 L14.1140881,3.64604477 L11.1498362,3.64604477 L11.1498362,0.607686563 L14.1140881,0.607686563 L14.1140881,1.21537314 Z M6.47979614,4.25373135 L6.91663634,4.25373135 L6.91663634,4.70149254 L6.47979614,4.70149254 L6.47979614,4.25373135 Z M12.9595923,4.85074627 L13.3964325,4.85074627 L13.3964325,5.29850747 L12.9595923,5.29850747 L12.9595923,4.85074627 Z M10.7025846,6.11940299 L11.3578449,6.11940299 L11.3578449,4.7761194 L10.0473244,4.7761194 L10.0473244,5.4477612 L10.7025846,5.4477612 L10.7025846,6.11940299 Z M14.1244994,6.05544776 L12.9595923,6.05544776 L12.9595923,6.66313433 L13.5420459,6.66313433 L13.5420459,7.87843283 L14.1244994,7.87843283 L14.1244994,8.48611941 L12.9595923,8.48611941 L12.9595923,9.09380597 L13.5420459,9.09380597 L13.5420459,9.70149253 L14.1244994,9.70149253 L14.1244994,9.09380597 L14.706953,9.09380597 L14.706953,7.27089552 L14.1244994,7.27089552 L14.1244994,6.66320896 L14.706953,6.66320896 L14.706953,5.4477612 L14.1244994,5.4477612 L14.1244994,6.05544776 Z M11.3578449,6.19402985 L11.7946851,6.19402985 L11.7946851,6.64179104 L11.3578449,6.64179104 L11.3578449,6.19402985 Z M0.80087368,6.64179104 L1.23771387,6.64179104 L1.23771387,7.08955225 L0.80087368,7.08955225 L0.80087368,6.64179104 Z M3.64033491,7.3880597 L4.0771751,7.3880597 L4.0771751,7.83582089 L3.64033491,7.83582089 L3.64033491,7.3880597 L3.64033491,7.3880597 Z M8.2271569,7.3880597 L8.66399708,7.3880597 L8.66399708,7.83582089 L8.2271569,7.83582089 L8.2271569,7.3880597 L8.2271569,7.3880597 Z M12.8139789,7.76119403 L12.8139789,7.08955225 L12.3771387,7.08955225 L12.3771387,8.43283582 L12.8139789,8.43283582 L12.8139789,7.76119403 Z M0,8.35820896 L0.436840187,8.35820896 L0.436840187,8.80597015 L0,8.80597015 L0,8.35820896 Z M7.79031671,8.35820896 L8.2271569,8.35820896 L8.2271569,8.80597015 L7.79031671,8.80597015 L7.79031671,8.35820896 Z M11.9402985,8.35820896 L12.3771387,8.35820896 L12.3771387,8.80597015 L11.9402985,8.80597015 L11.9402985,8.35820896 Z" id="形状"></path>
                                    <path d="M12.3538406,9.62686567 L11.1772843,9.62686567 L11.1772843,9.02985075 L10.5890062,9.02985075 L10.5890062,8.43283582 L11.1772843,8.43283582 L11.1772843,7.83582089 L11.7655624,7.83582089 L11.7655624,7.23880597 L11.1772843,7.23880597 L11.1772843,6.64179104 L10.0007281,6.64179104 L10.0007281,7.23880597 L10.5890062,7.23880597 L10.5890062,7.83582089 L10.0007281,7.83582089 L10.0007281,9.02985075 L9.41244995,9.02985075 L9.41244995,9.62686567 L8.82417182,9.62686567 L8.82417182,10.8208955 L8.2358937,10.8208955 L8.2358937,11.4179105 L7.64761558,11.4179105 L7.64761558,10.8208955 L8.2358937,10.8208955 L8.2358937,10.2238806 L7.64761558,10.2238806 L7.64761558,9.62686567 L7.05933746,9.62686567 L7.05933746,10.2238806 L6.47105934,10.2238806 L6.47105934,10.8208955 L5.88278122,10.8208955 L5.88278122,9.62686567 L5.2945031,9.62686567 L5.2945031,9.02985075 L5.88278122,9.02985075 L5.88278122,9.62686567 L7.05933746,9.62686567 L7.05933746,9.02985075 L6.47105934,9.02985075 L6.47105934,8.43283582 L7.05933746,8.43283582 L7.05933746,7.23880597 L6.47105934,7.23880597 L6.47105934,6.64179104 L7.05933746,6.64179104 L7.05933746,7.23880597 L8.2358937,7.23880597 L8.2358937,6.64179104 L7.64761558,6.64179104 L7.64761558,6.04477611 L8.2358937,6.04477611 L8.2358937,6.64179104 L8.82417182,6.64179104 L8.82417182,6.04477611 L10.0007281,6.04477611 L10.0007281,5.4477612 L8.2358937,5.4477612 L8.2358937,4.85074627 L9.41244995,4.85074627 L9.41244995,4.25373135 L8.82417182,4.25373135 L8.82417182,3.65671642 L8.2358937,3.65671642 L8.2358937,4.25373135 L7.64761558,4.25373135 L7.64761558,4.85074627 L7.05933746,4.85074627 L7.05933746,5.4477612 L6.47105934,5.4477612 L6.47105934,6.04477611 L5.88278122,6.04477611 L5.88278122,6.64179104 L5.2945031,6.64179104 L5.2945031,6.04477611 L5.88278122,6.04477611 L5.88278122,5.4477612 L5.2945031,5.4477612 L5.2945031,3.65671642 L4.70622498,3.65671642 L4.70622498,4.85074627 L2.35311248,4.85074627 L2.35311248,5.4477612 L4.70622498,5.4477612 L4.70622498,6.04477611 L2.35311248,6.04477611 L2.35311248,5.4477612 L1.76483436,5.4477612 L1.76483436,4.85074627 L0,4.85074627 L0,6.04477611 L1.17655624,6.04477611 L1.17655624,6.64179104 L1.76483436,6.64179104 L1.76483436,9.02985075 L0.58827812,9.02985075 L0.58827812,9.62686567 L1.76483436,9.62686567 L1.76483436,10.2238806 L2.35311248,10.2238806 L2.35311248,9.02985075 L4.11794686,9.02985075 L4.11794686,9.62686567 L4.70622498,9.62686567 L4.70622498,12.6119403 L5.2945031,12.6119403 L5.2945031,11.4179105 L5.88278122,11.4179105 L5.88278122,12.0149254 L6.47105934,12.0149254 L6.47105934,11.4179105 L7.05933746,11.4179105 L7.05933746,12.0149254 L8.2358937,12.0149254 L8.2358937,13.2089552 L8.82417182,13.2089552 L8.82417182,15 L10.5890062,15 L10.5890062,13.8059701 L9.41244995,13.8059701 L9.41244995,13.2089552 L10.0007281,13.2089552 L10.0007281,12.6119403 L11.1772843,12.6119403 L11.1772843,13.8059701 L11.7655624,13.8059701 L11.7655624,14.4029851 L12.9421187,14.4029851 L12.9421187,13.2089552 L12.3538406,13.2089552 L12.3538406,12.0149254 L12.9421187,12.0149254 L12.9421187,11.4179105 L12.3538406,11.4179105 L12.3538406,10.8208955 L13.5303968,10.8208955 L13.5303968,12.6119403 L14.706953,12.6119403 L14.706953,12.0149254 L14.1186749,12.0149254 L14.1186749,11.4179105 L14.706953,11.4179105 L14.706953,10.2238806 L12.9421187,10.2238806 L12.9421187,9.02985075 L12.3538406,9.02985075 L12.3538406,9.62686567 Z M5.88278122,7.23880597 L5.88278122,7.83582089 L5.2945031,7.83582089 L5.2945031,7.23880597 L5.88278122,7.23880597 L5.88278122,7.23880597 Z M3.52966874,8.43283582 L2.9413906,8.43283582 L2.9413906,7.23880597 L2.35311248,7.23880597 L2.35311248,6.64179104 L4.70622498,6.64179104 L4.70622498,8.43283582 L3.52966874,8.43283582 Z M8.82417182,12.6119403 L8.82417182,12.0149254 L9.41244995,12.0149254 L9.41244995,12.6119403 L8.82417182,12.6119403 Z M11.7655624,11.4179105 L11.7655624,12.0149254 L10.0007281,12.0149254 L10.0007281,10.2238806 L11.7655624,10.2238806 L11.7655624,11.4179105 L11.7655624,11.4179105 Z M0,9.85074627 L0.436840187,9.85074627 L0.436840187,10.2985075 L0,10.2985075 L0,9.85074627 Z" id="形状"></path>
                                    <path d="M2.83946123,9.85074627 L2.83946123,10.2985075 L4.1499818,10.2985075 L4.1499818,9.85074627 L3.49472151,9.85074627 L2.83946123,9.85074627 Z M10.6297779,10.8208955 L11.0666181,10.8208955 L11.0666181,11.2686567 L10.6297779,11.2686567 L10.6297779,10.8208955 Z M6.47979614,12.6119403 L6.47979614,13.2835821 L6.91663634,13.2835821 L6.91663634,11.9402985 L6.47979614,11.9402985 L6.47979614,12.6119403 Z M12.9595923,12.6119403 L13.3964325,12.6119403 L13.3964325,13.0597015 L12.9595923,13.0597015 L12.9595923,12.6119403 Z M1.82016745,11.7910448 L1.23771387,11.7910448 L1.23771387,13.7313433 L2.98507463,13.7313433 L2.98507463,11.7910448 L2.40262104,11.7910448 L1.82016745,11.7910448 Z M4.58682199,13.0597015 L4.58682199,15 L5.89734255,15 L5.89734255,14.353209 L5.24208227,14.353209 L5.24208227,13.7064925 L5.89734255,13.7064925 L5.89734255,13.0597015 L5.24208227,13.0597015 L4.58682199,13.0597015 Z M7.79031671,13.2089552 L8.2271569,13.2089552 L8.2271569,13.6567164 L7.79031671,13.6567164 L7.79031671,13.2089552 Z M14.2701128,13.2089552 L14.706953,13.2089552 L14.706953,13.6567164 L14.2701128,13.6567164 L14.2701128,13.2089552 Z M6.47979614,14.0298507 L6.91663634,14.0298507 L6.91663634,14.4776119 L6.47979614,14.4776119 L6.47979614,14.0298507 Z M13.3964325,14.3283582 L13.3964325,15 L14.706953,15 L14.706953,14.3283582 L14.0516928,14.3283582 L14.0516928,13.6567164 L13.3964325,13.6567164 L13.3964325,14.3283582 Z" id="形状"></path>
                                    <path d="M2.96425191,10.7462687 L0,10.7462687 L0,15 L4.1499818,15 L4.1499818,10.7462687 L2.96425191,10.7462687 Z M3.55711685,11.9616418 L3.55711685,14.3923134 L0.592864939,14.3923134 L0.592864939,11.3539552 L3.55711685,11.3539552 L3.55711685,11.9616418 Z M7.20786312,14.5522388 L7.64470331,14.5522388 L7.64470331,15 L7.20786312,15 L7.20786312,14.5522388 L7.20786312,14.5522388 Z M11.3578449,14.5522388 L11.7946851,14.5522388 L11.7946851,15 L11.3578449,15 L11.3578449,14.5522388 Z" id="形状"></path>
                                </g>
                            </g>
                        </g>
                    </g>
                </g>
            </g>
        </g>
    </g>
</svg>