<?xml version="1.0" encoding="UTF-8"?>
<svg width="15px" height="15px" viewBox="0 0 15 15" version="1.1" xmlns="http://www.w3.org/2000/svg" xmlns:xlink="http://www.w3.org/1999/xlink">
    <!-- Generator: Sketch 61 (89581) - https://sketch.com -->
    <title>转账</title>
    <desc>Created with Sketch.</desc>
    <g id="账户交易列表_20200305" stroke="none" stroke-width="1" fill="none" fill-rule="evenodd">
        <g id="地址-交易" transform="translate(-765.000000, -258.000000)" fill="#666666" fill-rule="nonzero">
            <g id="up" transform="translate(360.000000, 173.000000)">
                <g id="地址">
                    <g id="分组-4" transform="translate(31.000000, 81.000000)">
                        <g id="Group-13">
                            <g id="分组-3" transform="translate(374.000000, 3.000000)">
                                <g id="转账" transform="translate(0.000000, 1.000000)">
                                    <path d="M7.49490489,0.938082298 C11.1098117,0.938082298 14.0539111,3.88218168 14.0539111,7.49708851 C14.0539111,11.1119953 11.1098117,14.0560947 7.49490489,14.0560947 C3.87999806,14.0560947 0.93589868,11.1119953 0.93589868,7.49708851 C0.93589868,3.88218168 3.87999806,0.938082298 7.49490489,0.938082298 M7.49490489,0.0064052795 C3.35825893,0.0064052795 0.00422166149,3.36044255 0.00422166149,7.49708851 C0.00422166149,11.6337345 3.35825893,14.9877717 7.49490489,14.9877717 C11.6315509,14.9877717 14.9855881,11.6337345 14.9855881,7.49708851 C14.9855881,3.36044255 11.6315509,0.0064052795 7.49490489,0.0064052795 Z" id="形状"></path>
                                    <path d="M11.221613,6.23932453 L3.76819682,6.23932453 C3.50732725,6.23932453 3.30235831,6.03435559 3.30235831,5.77348602 C3.30235831,5.52193323 3.50732725,5.30764752 3.76819682,5.30764752 L11.221613,5.30764752 C11.4824825,5.30764752 11.6874515,5.51261646 11.6874515,5.77348602 C11.6874515,6.02503882 11.4824825,6.23932453 11.221613,6.23932453 Z" id="路径"></path>
                                    <path d="M10.895526,6.09957298 L9.31167508,4.51572205 C9.13465644,4.33870342 9.13465644,4.04056677 9.31167508,3.85423137 C9.48869371,3.67721273 9.78683036,3.67721273 9.97316576,3.85423137 L11.5570167,5.4380823 C11.7340353,5.61510093 11.7340353,5.91323758 11.5570167,6.09957298 C11.3706813,6.28590839 11.0725446,6.28590839 10.895526,6.09957298 Z M3.76819682,8.75485248 L11.221613,8.75485248 C11.4824825,8.75485248 11.6874515,8.95982143 11.6874515,9.22069099 C11.6874515,9.47224379 11.4824825,9.6865295 11.221613,9.6865295 L3.76819682,9.6865295 C3.50732725,9.6865295 3.30235831,9.48156056 3.30235831,9.22069099 C3.30235831,8.9691382 3.50732725,8.75485248 3.76819682,8.75485248 Z" id="形状"></path>
                                    <path d="M4.09428377,8.89460404 L5.6781347,10.478455 C5.85515334,10.6554736 5.85515334,10.9536102 5.6781347,11.1399457 C5.50111607,11.3169643 5.20297943,11.3169643 5.01664402,11.1399457 L3.43279309,9.55609472 C3.25577446,9.37907609 3.25577446,9.08093944 3.43279309,8.89460404 C3.61912849,8.70826863 3.91726514,8.70826863 4.09428377,8.89460404 Z" id="路径"></path>
                                </g>
                            </g>
                        </g>
                    </g>
                </g>
            </g>
        </g>
    </g>
</svg>