<?xml version="1.0" encoding="UTF-8"?>
<svg width="8px" height="11px" viewBox="0 0 8 11" version="1.1" xmlns="http://www.w3.org/2000/svg" xmlns:xlink="http://www.w3.org/1999/xlink">
    <!-- Generator: Sketch 53.2 (72643) - https://sketchapp.com -->
    <title>guizeshuoming (1)</title>
    <desc>Created with Sketch.</desc>
    <g id="Page-1" stroke="none" stroke-width="1" fill="none" fill-rule="evenodd">
        <g id="3.1-TRXMarket-全展开" transform="translate(-388.000000, -153.000000)" fill="#576B94">
            <g id="图表" transform="translate(320.000000, 116.000000)">
                <g id="Group-9" transform="translate(68.000000, 10.000000)">
                    <g id="guizeshuoming-(1)" transform="translate(0.000000, 27.000000)">
                        <g id="分组">
                            <path d="M6.400025,10.2666667 L0,10.2666667 L0,-6.53921362e-14 L7.51059368,-6.53921362e-14 L7.20004374,-6.53921362e-14 L7.20004374,0.854891029 L0.800018746,0.854891029 L0.800018746,9.41348084 L4.80004999,9.41348084 L4.80004999,6.84554781 L7.20004374,6.84554781 L7.20004374,0.8610102 L7.20004374,-6.53921362e-14 L8,-6.53921362e-14 L8,8.555263 L6.400025,10.2666667 Z M7.18738402,7.70656667 L5.59015984,7.70656667 L5.59015984,9.41608333 L6.24305653,9.41055 L7.18975439,8.39525 L7.18738402,7.70656667 Z" id="Fill-1"></path>
                        </g>
                        <path d="M2,3 L6,3 L6,2 L2,2 L2,3 Z M2,5 L6,5 L6,4 L2,4 L2,5 Z M2,7 L4,7 L4,6 L2,6 L2,7 Z" id="Fill-3"></path>
                    </g>
                </g>
            </g>
        </g>
    </g>
</svg>