<?xml version="1.0" encoding="UTF-8"?>
<svg width="23px" height="15px" viewBox="0 0 23 15" version="1.1" xmlns="http://www.w3.org/2000/svg" xmlns:xlink="http://www.w3.org/1999/xlink">
    <!-- Generator: Sketch 53.1 (72631) - https://sketchapp.com -->
    <title>沙特阿拉伯</title>
    <desc>Created with Sketch.</desc>
    <g id="Page-1" stroke="none" stroke-width="1" fill="none" fill-rule="evenodd">
        <g id="首页TRON" transform="translate(-648.000000, -1632.000000)" fill-rule="nonzero">
            <g id="底部导航" transform="translate(0.000000, 1497.000000)">
                <g id="Group-33-Copy" transform="translate(30.000000, 47.000000)">
                    <g id="Group-25-Copy">
                        <g id="Group-35" transform="translate(0.000000, 3.000000)">
                            <g id="沙特阿拉伯" transform="translate(618.000000, 85.000000)">
                                <path d="M0.10186575,14.9078508 L22.8980288,14.9078508 L22.8980288,0.0922669284 L0.10186575,0.0922669284 L0.10186575,14.9078508 Z M22.9782312,15.0078656 L22.9782312,14.9078656 L22.9782312,15.0078656 Z M0.00757629339,15 L0.00757629339,0.000103042198 L22.9923183,0.000103042198 L22.9923183,15 L0.00757629339,15 L0.00757629339,15 Z" id="Shape" fill="#353636"></path>
                                <polygon id="Path" fill="#009945" points="0.045292076 0.0369627085 22.9357295 0.0369627085 22.9357295 14.9447105 0.045292076 14.9447105"></polygon>
                                <path d="M9.07703209,4.73595191 L9.03931631,4.73595191 L8.92618402,4.88336114 L8.86962541,5.08605986 L8.9638998,5.21505397 L9.11473281,5.17820903 L9.22786509,4.9755103 L9.11474787,5.06764475 L9.00160052,5.08605986 L8.9638998,4.9755103 L9.07701703,4.73595191 L9.07703209,4.73595191 Z M6.19216634,3.9251423 L6.19216634,4.14627085 L6.15443549,4.23842002 C6.21100917,4.14627085 6.26756778,4.05412169 6.28642567,3.96200196 L6.24872495,3.77771835 L6.13559267,3.81457802 L6.07901899,3.92512758 L6.19215128,3.92512758 L6.19216634,3.9251423 Z M9.1335907,4.07256624 L9.23365619,3.99884691 L9.20030103,4.14627085 L9.16694586,4.14627085 L9.1335907,4.07256624 L9.1335907,4.07256624 Z M9.19016437,4.36739941 C9.0581742,4.57009814 8.85076752,4.69909225 8.64336084,4.80965653 L8.45479699,4.86493131 L8.45479699,4.82808636 L8.60564506,4.71752208 C8.77533595,4.58852797 8.94504191,4.45953386 9.07703209,4.27526497 C8.98274263,4.20154563 8.98274263,4.07256624 9.02045842,3.98041708 L9.15244859,3.83300785 L9.32215455,3.85143768 L9.35985527,4.03570658 L9.30329666,4.21997547 L9.32215455,4.31212463 L9.19016437,4.36739941 L9.19016437,4.36739941 Z M7.22919974,4.07255152 L7.36118991,4.01727674 L7.41774853,4.07256624 L7.49318009,4.07256624 L7.5497387,3.98041708 L7.51202292,3.88828263 L7.43660642,3.99884691 L7.38004781,3.83300785 L7.36118991,3.83300785 L7.26690046,3.98041708 L7.21034185,3.98041708 L7.19148396,3.85143768 L7.17262606,3.81457802 L7.15378324,3.81457802 L7.13492534,3.96200196 L7.22919974,4.07255152 L7.22919974,4.07255152 Z M6.0601611,5.38089303 L5.90932809,5.27034347 C5.79619581,5.06764475 5.75848003,4.82808636 5.75848003,4.6069578 C5.75848003,4.49639352 5.77733792,4.40425908 5.81503864,4.2936948 L5.85275442,4.2936948 L5.85275442,4.58852797 C5.87161231,4.73595191 5.8904702,4.86493131 5.92817092,4.99392542 L6.02246038,5.1044897 L6.09787688,5.04921492 C6.17329339,4.88336114 6.15443549,4.71752208 6.19216634,4.5516683 C6.22986706,4.44111874 6.26756778,4.34896958 6.34299935,4.25682041 L6.47498952,4.14627085 L6.56926392,4.21997547 L6.55040602,4.38582924 L6.49383235,4.62538763 L6.51269024,4.82808636 L6.53154813,4.90179097 L6.64468042,5.08605986 L6.7578127,5.12291953 C6.73895481,4.99392542 6.73895481,4.88336114 6.72009692,4.77279686 C6.70125409,4.6622473 6.70125409,4.5516683 6.70125409,4.44110402 C6.6823962,4.33055447 6.64468042,4.2384053 6.64468042,4.14625613 L6.64468042,3.98041708 L6.73896988,3.83300785 L6.83322921,3.94355741 C6.88980288,4.03570658 6.94636149,4.14625613 6.94636149,4.25683513 L6.87094499,4.33053974 L6.92751866,4.88336114 L6.94636149,4.99392542 L6.94636149,5.08607458 L7.09720956,4.82808636 C7.07835167,4.69909225 7.04065095,4.5516683 7.02179306,4.42268891 C6.98407728,4.31210991 7.00293517,4.20154563 7.04065095,4.10941119 L7.07835167,4.09098135 C7.19148396,4.18313052 7.24805763,4.33053974 7.21034185,4.45953386 C7.19148396,4.6069578 7.22919974,4.73595191 7.26691552,4.88336114 L7.36118991,5.03078508 L7.56859659,5.06764475 L7.62515521,4.97549558 C7.60631238,4.80965653 7.5497387,4.62538763 7.49318009,4.45954858 L7.43660642,4.27525025 L7.49318009,4.18313052 L7.58745449,4.09098135 L7.71944466,4.21997547 L7.79486117,4.33053974 L7.79486117,4.42268891 L7.70057171,4.44110402 C7.73830255,4.58852797 7.77600327,4.71752208 7.79486117,4.86493131 C7.79486117,4.97549558 7.81371906,5.1044897 7.73830255,5.19662414 L7.51202292,5.34404809 L7.24805763,5.27034347 L7.17262606,5.08605986 L7.15378324,5.08605986 L7.09720956,5.19662414 L6.98409234,5.34404809 C6.98409234,5.4730422 7.00293517,5.60203631 7.00293517,5.73103042 C7.00293517,5.91529931 7.04065095,6.0995682 7.02179306,6.30226693 L6.94636149,6.48655054 L6.92751866,6.48655054 L6.90866077,6.22856232 L6.88980288,6.02586359 C6.87094499,5.8415947 6.83322921,5.63888126 6.81438638,5.43618253 C6.70125409,5.43618253 6.58812181,5.39933759 6.51269024,5.30718842 C6.41841585,5.17820903 6.39957302,5.01235525 6.39957302,4.84651619 L6.41841585,4.62538763 L6.41841585,4.49639352 L6.39955796,4.49639352 L6.30528356,4.79124141 L6.28642567,4.9202208 C6.26756778,5.04921492 6.24872495,5.1597792 6.17330845,5.27034347 L6.0601611,5.38089303 L6.0601611,5.38089303 Z M17.165983,5.27034347 C17.1282823,4.95708047 17.0717086,4.6622473 17.0905665,4.34896958 L17.1848559,4.38582924 L17.165983,4.27526497 L16.9962921,3.88828263 L16.9397184,3.79614818 L16.8831598,3.83300785 L16.7700275,3.98041708 L16.7888854,4.14627085 C16.8077433,4.27526497 16.8265861,4.42267419 16.845444,4.5516683 L16.8643019,4.71752208 L16.8831598,4.93865064 C16.9397184,5.34404809 16.9774342,5.76787537 17.01515,6.19170265 C17.0340079,6.39440137 17.0340079,6.61554465 16.9585763,6.79981354 C16.9020177,6.9656526 16.7700275,7.11307655 16.6380373,7.22364082 C16.524905,7.31578999 16.4117728,7.3894946 16.2986405,7.46319921 L16.204351,7.55534838 L16.4683464,7.51848871 C16.6568952,7.48162905 16.845444,7.37106477 16.9585763,7.22364082 C17.0717086,7.07621688 17.1471401,6.91037782 17.1848409,6.72609421 C17.2225566,6.56025515 17.2225566,6.37598626 17.2225566,6.2101472 C17.2225566,5.91529931 17.2036988,5.58360648 17.165983,5.27034347 L17.165983,5.27034347 Z M15.7518369,7.40790972 L15.8083955,7.24207066 L15.8083955,7.20521099 L15.6009889,7.18678116 L15.5632881,7.27893032 L15.6575625,7.35263494 L15.5255724,7.53690383 L15.6198468,7.57376349 L15.8649692,7.46319921 L15.8649692,7.3894946 L15.7518369,7.40790972 L15.7518369,7.40790972 Z M15.4124401,11.0381158 C15.2993078,11.0565456 15.1673176,11.0381158 15.0541853,11.0381158 L14.9598959,10.9828263 L14.8844794,11.019686 L14.8844794,11.0565456 C14.7713621,11.0749607 14.639372,11.0565456 14.5262397,11.0749607 L14.469666,10.9828263 L14.469666,10.8906919 C14.790205,10.8906919 15.1107439,10.872262 15.431298,10.872262 L15.4124401,11.0381158 L15.4124401,11.0381158 Z M15.7141362,10.6511335 L15.4689987,10.5774289 C15.1296018,10.5774289 14.8090629,10.5958587 14.469666,10.5958587 L14.469666,10.4852797 L14.5262397,10.3562856 L14.4319502,10.2272915 L14.3753916,10.2272915 L14.2999751,10.3562856 L14.3753916,10.5037095 L14.3753916,10.5774141 C13.1497793,10.595844 11.9241971,10.595844 10.7174427,10.595844 L10.0197911,10.595844 C9.39757105,10.595844 8.77535102,10.5774141 8.15311591,10.5774141 C7.83257695,10.5774141 7.53089587,10.5589843 7.22919974,10.5774141 C7.30461624,10.7064082 7.43660642,10.7801129 7.56859659,10.8354024 C7.79486117,10.909107 8.03998363,10.9275368 8.2662482,10.9459519 C8.51137066,10.9643817 8.77535102,10.9459519 9.03931631,10.9643817 L11.471668,10.9643817 C12.2070203,10.9643817 12.9612305,10.9459666 13.6965979,10.9275368 C13.9228625,10.9275368 14.1679849,10.909107 14.3942495,10.909107 L14.3942495,10.9828116 L14.3188179,11.0933759 L14.4319502,11.2776595 L14.4508081,11.2776595 L14.5262397,11.1670952 C14.6393569,11.1670952 14.7713471,11.1486654 14.8844794,11.1670952 L14.9787688,11.2407998 L15.0730432,11.1670952 L15.4689987,11.1670952 L15.5632881,11.2407998 L15.732979,11.2039401 L15.8083955,10.9275368 L15.7141212,10.6511187 L15.7141362,10.6511335 Z M6.09786182,7.29734544 L6.00357236,7.22364082 C5.96587164,7.09464671 6.00357236,6.9656526 6.04128815,6.83667321 L6.06014604,6.56025515 L6.04128815,6.56025515 L5.96587164,6.79981354 C5.92815586,6.91037782 5.90931303,7.0209421 5.90931303,7.14993621 L5.92815586,7.40790972 L6.07900393,7.51848871 L6.24870989,7.37106477 L6.24870989,7.16836605 L6.09786182,7.29734544 Z M6.47497446,5.8415947 L6.66352325,5.76787537 L6.66352325,5.62046614 L6.60694957,5.62046614 C6.47497446,5.65731109 6.34298428,5.71260059 6.229852,5.7863052 C6.07900393,5.87845437 5.92815586,6.00743376 5.83388147,6.1548577 L6.00358743,6.04429342 C6.15442043,5.98900393 6.32412639,5.91529931 6.47497446,5.8415947 Z M7.45544925,5.97057409 L7.66285593,5.93372915 L7.56858153,5.82316487 L7.47429208,5.7863052 L7.45544925,5.80473503 L7.45544925,5.97057409 Z M7.94569417,7.24207066 C7.83256189,7.35263494 7.68171382,7.40790972 7.53088081,7.46319921 C7.32347413,7.53690383 7.11605239,7.59219333 6.90864571,7.59219333 C6.77665553,7.59219333 6.64466536,7.57376349 6.55039096,7.50004416 L6.43725868,7.35263494 C6.34296922,7.16836605 6.32412639,6.9656526 6.34296922,6.76295388 C6.36184217,6.59711482 6.380685,6.41283121 6.47497446,6.26540726 L6.47497446,6.78138371 C6.49381729,6.92880765 6.51267518,7.0762316 6.62580747,7.18678116 C6.70123903,7.27893032 6.83321415,7.31577527 6.96520432,7.31577527 C7.07833661,7.31577527 7.19146889,7.29734544 7.30460118,7.26050049 C7.49316503,7.20521099 7.68171382,7.11307655 7.83256189,6.98408243 C7.92683628,6.91037782 8.00225278,6.81824338 8.03996857,6.7076791 L8.05882646,6.43126104 L8.05882646,6.04430815 L7.94569417,6.11801276 C7.94569417,6.22857704 7.96455206,6.35757115 7.92683628,6.46813543 C7.85141978,6.68926398 7.66285593,6.85510304 7.47430714,6.96568204 C7.32345907,7.03938665 7.15376817,7.1315211 6.96520432,7.09466143 C6.81437132,7.0762316 6.70123903,6.96566732 6.64468042,6.83668793 C6.56924885,6.72612365 6.56924885,6.61555937 6.56924885,6.50499509 C6.56924885,6.39443081 6.58810675,6.30229637 6.60694957,6.19171737 L6.68238114,6.08116781 L6.68238114,6.24700687 C6.66352325,6.41284593 6.70123903,6.59712954 6.81437132,6.74455348 L7.05947872,6.8182581 C7.19146889,6.79982826 7.30460118,6.74453876 7.39887557,6.67083415 L7.68172888,6.43126104 L7.73830255,6.33912659 L7.75714538,6.17328754 L7.51202292,6.22856232 L7.28575835,6.19170265 L7.24805763,6.11799804 L7.24805763,5.86000981 L7.34233202,5.62046614 L7.49318009,5.49147203 L7.66287099,5.56517664 L7.87027767,5.82316487 L8.02112574,5.7310157 C8.02112574,5.45461237 7.96456713,5.1597792 7.94570923,4.88336114 L7.90799345,4.6069578 L7.90799345,4.51480864 L7.88913556,4.2384053 L7.88913556,4.16470069 L7.85143484,4.03570658 L7.94570923,3.9251423 L8.03998363,3.85143768 L8.11540013,4.03570658 C8.15311591,4.14625613 8.1908317,4.25683513 8.24739031,4.36739941 L8.2662482,4.51482336 L8.20967453,4.5516683 L8.13425802,4.51482336 C8.15311591,4.71752208 8.1719738,4.93865064 8.1719738,5.14134936 C8.1908317,5.30718842 8.1908317,5.49147203 8.20967453,5.65731109 L8.36052259,5.52831698 L8.41709627,5.58360648 L8.4359391,5.82316487 L8.54907138,5.89686948 L8.71877734,5.78631992 L8.83189456,5.52831698 L8.85076752,5.52831698 L8.90732613,5.7863052 L9.02045842,5.86000981 L9.09588998,5.74946026 L9.07703209,5.60203631 L9.07703209,5.54674681 L9.19014931,5.4730422 L9.22786509,5.65731109 L9.20902227,5.93372915 L9.09588998,6.02586359 L8.8884833,5.98900393 L8.81305174,5.91529931 L8.77533595,5.91529931 L8.68106156,6.00744848 L8.4359391,6.06272326 L8.24739031,5.93372915 L8.22853242,5.93372915 L8.22853242,6.24699215 C8.24739031,6.44969087 8.24739031,6.6523896 8.1908317,6.85508832 C8.15311591,7.00251227 8.05884152,7.14993621 7.94570923,7.24207066 L7.94569417,7.24207066 Z M15.8460963,5.60203631 C15.8649542,5.8968842 15.883812,6.19170265 15.883812,6.48655054 C15.883812,6.6523896 15.8649542,6.81824338 15.7706798,6.94723749 C15.732964,7.03937193 15.6198317,7.11307655 15.5066994,7.11307655 C15.3747092,7.11307655 15.2427191,7.05780177 15.1484447,6.9656526 L15.0353274,6.81824338 L14.9598959,6.85508832 L14.8090478,7.11307655 C14.7336313,7.26050049 14.6581997,7.40792444 14.5639253,7.53690383 L14.4696509,7.59219333 L14.2999601,7.53690383 C14.2245285,7.46319921 14.1113962,7.40790972 14.0736955,7.29734544 C14.0171218,7.13150638 14.0548376,6.9656526 14.0925383,6.79981354 L14.1679699,6.56025515 L14.1868278,6.56025515 L14.2056706,6.83667321 L14.2433864,7.07621688 L14.2811022,6.91037782 C14.3188029,6.6523896 14.2433864,6.39441609 14.2245285,6.13642787 C14.2056706,5.95215898 14.1679699,5.76787537 14.149112,5.58360648 C14.1113962,5.30718842 14.0736955,5.01235525 14.0359797,4.73595191 C14.0171218,4.62538763 14.0171218,4.51482336 13.979406,4.40425908 C13.9417053,4.2936948 13.9228474,4.16470069 13.9417053,4.03570658 L14.0736955,3.77771835 L14.2056706,3.72244357 L14.2999601,3.79614818 L14.3753766,3.99884691 C14.4130923,4.12784102 14.469666,4.2384053 14.5450675,4.34896958 L14.5639253,4.53323847 L14.4130923,4.6069578 C14.4130923,4.75436703 14.4507931,4.92020608 14.4507931,5.06764475 C14.4696509,5.27034347 14.5073667,5.4730422 14.5262246,5.67574092 C14.5450675,5.80473503 14.5639253,5.93372915 14.5639253,6.06272326 C14.6016411,6.26542198 14.6582148,6.46812071 14.620499,6.67081943 C14.6016411,6.81824338 14.5639253,6.94723749 14.4885088,7.07621688 L14.3565187,7.16836605 L14.2622443,7.13150638 L14.3565337,7.27893032 L14.4696509,7.27893032 L14.5639404,7.14993621 C14.6393569,6.98408243 14.7336313,6.81824338 14.8279057,6.67081943 L14.9598959,6.48655054 L15.0730131,6.48655054 L15.2804348,6.72610893 L15.4501408,6.79981354 L15.5821159,6.72610893 L15.6575475,6.52341021 C15.6764054,6.17328754 15.6386896,5.80473503 15.6198317,5.45461237 C15.6198317,5.36247792 15.6009738,5.25191364 15.6009738,5.15976447 L15.5821159,4.95706575 C15.412425,4.75436703 15.261592,4.57009814 15.1107289,4.36739941 L14.9976117,4.14627085 L14.9976117,3.85142296 L15.1107289,3.90671246 C15.1861604,4.01727674 15.2992927,4.09098135 15.3935671,4.18313052 L15.4312829,4.2384053 L15.4312829,4.27526497 L15.3747092,4.27526497 L15.5444152,4.51482336 C15.5444152,4.42267419 15.5255573,4.31212463 15.5066994,4.21997547 L15.4689836,4.03570658 L15.5821159,3.83300785 L15.6386896,3.88828263 C15.6952482,4.03570658 15.7518068,4.20154563 15.8083805,4.34896958 L15.8083805,4.42267419 L15.732964,4.38582924 C15.732964,4.5516683 15.7518219,4.71752208 15.7706798,4.86493131 C15.883797,5.01235525 15.9969443,5.17820903 16.1100766,5.32561825 C16.0912187,5.17820903 16.0535029,5.03077036 16.0346451,4.88336114 C15.9969443,4.64380275 15.9780864,4.38581452 15.9592286,4.14627085 L15.9403707,4.01727674 L16.0346601,3.83300785 L16.0912187,3.79614818 L16.1666352,3.98041708 C16.204351,4.10941119 16.2232089,4.21997547 16.2609247,4.34896958 L16.2609247,4.45953386 L16.2232089,4.47796369 L16.1854931,4.45953386 L16.1854931,4.62538763 C16.1854931,4.62538763 16.2232089,5.03078508 16.2420668,5.21505397 C16.2609096,5.34404809 16.2609096,5.49147203 16.2797675,5.62045142 C16.3551991,5.73103042 16.4306156,5.8415947 16.5060321,5.97057409 C16.6191644,6.13642787 16.7700124,6.30226693 16.8265711,6.50498037 L16.8454289,6.78138371 L16.8265711,6.78138371 L16.7134538,6.59711482 C16.5814637,6.41283121 16.4494735,6.22856232 16.3174682,6.06272326 C16.3363412,6.17327282 16.3174682,6.30226693 16.3363412,6.41283121 L16.3174833,6.63395976 L16.2609096,6.81824338 L16.2232089,6.74452404 C16.2232089,6.59711482 16.2420668,6.44969087 16.2232089,6.30226693 C16.204351,6.17328754 16.1854931,6.06272326 16.1666352,5.93372915 L16.204351,5.82316487 C16.0723608,5.63888126 15.9403707,5.4730422 15.8272384,5.30718842 C15.8272384,5.39933759 15.8460963,5.49147203 15.8460963,5.60203631 L15.8460963,5.60203631 Z M15.2804348,5.56517664 C15.1484447,5.69417076 14.9787387,5.7863052 14.8467636,5.91529931 L14.8090478,6.00744848 L14.941038,5.93372915 C15.0541703,5.84157998 15.1673026,5.7863052 15.2804348,5.71260059 L15.4312829,5.63888126 L15.4312829,5.49147203 L15.2804348,5.56517664 L15.2804348,5.56517664 Z M13.5457348,4.25683513 C13.5645927,4.44110402 13.6023084,4.6069578 13.6211663,4.79122669 C13.6588671,5.06764475 13.677725,5.34404809 13.6965828,5.62046614 C13.7154407,5.89686948 13.7154407,6.17328754 13.7342986,6.43126104 C13.7531415,6.54182532 13.7531415,6.6523896 13.7342986,6.74452404 C13.7154407,6.89194799 13.6400092,7.03937193 13.5457348,7.14992149 C13.4137446,7.29734544 13.2629116,7.42633955 13.0932056,7.51848871 L12.8103824,7.62903827 L12.8103824,7.66589794 L13.0177891,7.68432777 C13.1309214,7.66589794 13.2629116,7.66589794 13.3760439,7.61062316 C13.5080341,7.53690383 13.6023084,7.40792444 13.6965828,7.29734544 C13.828573,7.14993621 13.8851316,6.9656526 13.9039895,6.78139843 C13.9228474,6.5971001 13.9228474,6.41283121 13.9228474,6.22856232 C13.9227899,5.93286255 13.9038955,5.63745308 13.8662737,5.34404809 C13.828573,5.03078508 13.7908572,4.73595191 13.8097151,4.42267419 L13.9040046,4.44110402 L13.9040046,4.34896958 L13.828573,4.09098135 L13.8097151,4.01727674 L13.7531415,3.8698528 L13.6965828,3.88828263 L13.5645927,4.03570658 L13.5457348,4.18313052 L13.5457348,4.25683513 L13.5457348,4.25683513 Z M8.73763523,6.74452404 L8.77533595,6.72610893 L8.85076752,6.54182532 L8.85076752,6.33912659 L8.68106156,6.30226693 L8.68106156,6.44969087 L8.79419384,6.46812071 L8.79419384,6.63395976 L8.73763523,6.74452404 L8.73763523,6.74452404 Z M13.2252109,4.66223258 L13.2440688,4.68066241 L13.3006274,4.80965653 L13.3760589,4.66223258 L13.3949168,4.62538763 L13.4137597,4.62538763 L13.4326176,4.84651619 L13.4137597,4.88336114 L13.3383432,4.90179097 L13.2440688,4.84651619 L13.1120786,4.90179097 L13.0932207,4.69909225 L13.1120786,4.69909225 L13.1497944,4.80964181 L13.1874951,4.79124141 L13.2252109,4.66223258 Z M14.7525043,5.1044897 L14.8090629,5.1044897 L14.8467787,5.06764475 L14.9976117,5.30718842 L15.0541853,5.39933759 L15.0919011,5.32561825 L15.0919011,4.97549558 L15.1296018,4.90179097 L15.2427341,4.9202208 L15.2427341,4.84651619 L15.1861755,4.73595191 L15.1484597,4.71752208 L15.0164695,4.84651619 L15.0353274,5.08605986 L15.0164695,5.19662414 L14.941053,5.04921492 L14.8279208,4.84651619 L14.7713471,4.86493131 L14.7525043,4.93865064 L14.7525043,5.1044897 L14.7525043,5.1044897 Z M15.3370085,6.33912659 L15.431298,6.22857704 C15.4689987,6.11799804 15.4124401,5.98900393 15.3370085,5.89686948 L15.261592,5.87843965 L15.1861755,6.00743376 L15.3370085,6.1548577 L15.3370085,6.33912659 L15.3370085,6.33912659 Z M16.5814787,4.57009814 C16.5626208,4.45954858 16.524905,4.34896958 16.4683464,4.2384053 L16.4494885,4.14625613 L16.5437629,4.05413641 C16.6380373,4.18313052 16.6568802,4.3489843 16.6757531,4.49639352 L16.6380373,4.73595191 L16.6191794,4.73595191 L16.5814787,4.57009814 L16.5814787,4.57009814 Z M11.1134132,5.62046614 L11.0756974,5.62046614 L11.0191388,5.50990186 L10.9625652,5.45461237 L10.9437073,5.60203631 L10.9248494,5.67574092 L10.8871487,5.67574092 L10.8117171,5.49147203 L10.7928743,5.45461237 L10.8117171,5.73103042 L10.9060065,5.76787537 L10.9814231,5.67574092 L11.0002809,5.67574092 L11.0756974,5.73103042 L11.1888297,5.63888126 L11.1322711,5.39933759 L11.1134132,5.56517664 L11.1134132,5.62046614 L11.1134132,5.62046614 Z M11.6602168,5.62046614 L11.8676234,5.71260059 L11.9241971,5.76787537 L11.6602168,5.82316487 L11.6413589,5.63888126 L11.6602168,5.62046614 Z M9.52956123,5.80473503 C9.56726195,5.91529931 9.64267845,6.00743376 9.68039424,6.11799804 L9.71811002,6.32069676 L9.58611984,6.52339549 C9.47300262,6.61554465 9.34099738,6.72609421 9.22786509,6.81824338 L9.22786509,6.46810599 L9.20903733,6.46810599 C9.13360576,6.57867026 9.09590504,6.68923454 9.05818926,6.81822866 L9.02045842,6.9656526 L9.00160052,6.98408243 C8.77533595,7.13150638 8.54907138,7.26050049 8.32280681,7.38947988 L8.02112574,7.53690383 L8.02112574,7.57376349 L8.09654224,7.57376349 C8.41709627,7.48161433 8.71876228,7.3894946 9.00160052,7.26050049 C9.02045842,7.37105005 9.03931631,7.48162905 9.11473281,7.55534838 C9.20902227,7.64746811 9.34099738,7.66589794 9.47298756,7.64746811 C9.68039424,7.61062316 9.8501002,7.50005888 10.0009483,7.35263494 C10.1517813,7.22364082 10.2649136,7.05778705 10.3780458,6.91037782 C10.4346195,7.07621688 10.5288939,7.22364082 10.6608841,7.3342051 C10.8682908,7.51848871 11.1511139,7.59219333 11.4150943,7.62905299 L11.5659424,7.59219333 L11.6036431,7.3894946 L11.4339522,7.31577527 L11.2265455,7.16836605 L11.2265455,7.0209421 L11.4528101,6.89194799 C11.6979325,6.79981354 11.9430399,6.72610893 12.2070203,6.67081943 L12.414427,6.61554465 L12.5087164,6.44969087 L12.5275593,6.33914132 L12.3201526,6.33914132 C12.0373294,6.35755643 11.7356333,6.35755643 11.4528101,6.35755643 L11.0945553,6.35755643 C11.2831041,6.26540726 11.4905108,6.19170265 11.6979325,6.11799804 L11.8299077,6.13642787 L11.8299077,6.08113837 C11.9430399,6.04429342 12.0561722,6.00743376 12.1316038,5.91529931 L12.244721,5.67574092 L12.0373143,5.43618253 C11.9430399,5.36247792 11.8299077,5.30718842 11.6979325,5.30718842 L11.5282266,5.39933759 L11.3962364,5.65731109 L11.4528101,5.87843965 L10.9437073,6.04429342 L10.7174427,6.15484298 L10.6043255,6.35755643 L10.5666097,6.52339549 L10.6797269,6.56025515 C10.7928743,6.56025515 10.9060065,6.56025515 11.0191388,6.57868499 C11.1322561,6.57868499 11.2454034,6.59711482 11.3208199,6.67083415 L11.3585357,6.7076791 C11.2076876,6.76295388 11.0756974,6.85508832 11.0191388,7.00252699 L11.0191388,7.24207066 C10.8682908,7.20521099 10.6985848,7.11307655 10.6043255,6.9656526 C10.510036,6.79981354 10.4911781,6.59711482 10.4534774,6.41283121 C10.4346195,6.28385182 10.3969037,6.17328754 10.3780458,6.04429342 L10.3780458,6.06272326 C10.3403451,5.82316487 10.2460557,5.60203631 10.1517813,5.38090775 L10.0763648,5.25191364 L9.98207531,5.39933759 L9.96323248,5.60203631 C10.038649,5.7863052 10.0952227,5.97057409 10.1517813,6.1548577 L10.2272128,6.39441609 L10.2837714,6.57868499 C10.1706542,6.78138371 10.038649,6.94723749 9.88781598,7.11307655 C9.7558258,7.22364082 9.62383563,7.31577527 9.45412967,7.35263494 L9.22786509,7.31577527 L9.17130648,7.13150638 C9.34099738,7.03935721 9.49184545,6.92880765 9.62383563,6.78138371 C9.73695285,6.67083415 9.83124231,6.56025515 9.86895809,6.41283121 C9.88781598,6.30228165 9.88781598,6.17328754 9.86895809,6.06272326 L9.8501002,6.00743376 L9.77468369,5.80473503 L9.8501002,5.7863052 L9.77468369,5.62046614 L9.62383563,5.45461237 L9.54841912,5.45461237 L9.47298756,5.58360648 L9.43528684,5.73103042 L9.52956123,5.80473503 L9.52956123,5.80473503 Z M11.9618978,7.51847399 L11.9807557,7.29734544 L11.8299077,7.3342051 L11.9241971,7.26050049 L12.1127459,7.18678116 L12.0750301,7.42633955 L12.0939031,7.46319921 C12.2070354,7.44476938 12.3013098,7.37105005 12.414442,7.3342051 L12.4898736,7.3342051 L12.414442,7.40790972 C12.3201676,7.48162905 12.2258933,7.57376349 12.0939181,7.55533366 L11.9619129,7.51848871 L11.9618978,7.51847399 Z M9.79354158,5.19663886 L9.60497773,5.06764475 C9.47298756,4.90179097 9.41642895,4.68066241 9.43528684,4.47794897 C9.45412967,4.34896958 9.47298756,4.21997547 9.54840406,4.10941119 L9.56726195,4.10941119 L9.52956123,4.31210991 C9.52956123,4.42267419 9.52956123,4.5516683 9.54841912,4.66223258 L9.56726195,4.75438175 L9.71811002,4.93865064 L9.83124231,4.84650147 C9.88781598,4.68066241 9.96323248,4.53325319 10.038649,4.36739941 C10.0952227,4.25683513 10.1517813,4.14627085 10.2272128,4.05413641 L10.3214872,4.01727674 L10.3780458,4.09098135 L10.359188,4.25683513 C10.3214872,4.44110402 10.3403451,4.62538763 10.3403451,4.80965653 L10.4346195,5.01235525 L10.6420262,5.01235525 L10.8494329,4.84651619 L10.9248494,4.58852797 C10.9248494,4.40425908 10.8871487,4.2384053 10.8494329,4.05413641 L10.830575,3.88828263 L10.9248644,3.70401374 L10.9625652,3.70401374 C11.0191388,3.7961629 11.0379817,3.90671246 11.0568546,3.99886163 C11.0756974,4.12784102 11.0945553,4.27526497 11.0945553,4.42267419 C11.1134132,4.57009814 11.1511139,4.71752208 11.2454034,4.82807164 L11.3962364,4.93865064 L11.5093687,4.86493131 L11.5093687,4.57009814 C11.4905108,4.44110402 11.4528101,4.33053974 11.4150943,4.20154563 L11.3396778,3.99884691 L11.4150943,3.8698528 L11.471668,3.75930324 L11.5847852,3.81457802 L11.7544912,4.09098135 L11.7733491,4.20154563 L11.6979325,4.20154563 L11.6036431,4.14627085 L11.6602168,4.2936948 C11.6979325,4.40424436 11.6979325,4.49639352 11.7167754,4.60694308 C11.7356333,4.75436703 11.6979325,4.9202208 11.622501,5.04921492 L11.3585357,5.17820903 C11.2076876,5.14134936 11.1134132,5.03078508 11.0379817,4.93865064 C10.9625652,5.08605986 10.830575,5.19662414 10.679742,5.25191364 L10.3780458,5.27034347 L10.2272128,5.03078508 C10.1894971,4.90179097 10.1894971,4.75436703 10.2083549,4.6069578 L10.2083549,4.51480864 L10.1894971,4.51480864 L10.1140806,4.66223258 C10.0575069,4.80965653 10.0197911,4.93865064 9.96323248,5.08605986 L9.79352652,5.19662414 L9.79354158,5.19663886 Z M13.05552,4.05413641 L12.9989463,3.99884691 L13.05552,3.85143768 L13.1686372,3.94357213 C13.2440688,4.07256624 13.2817845,4.23842002 13.206353,4.38582924 L13.1309365,4.47796369 L13.1309365,4.20154563 L13.05552,4.05413641 L13.05552,4.05413641 Z M11.8487656,4.16468597 L11.8487656,3.83302257 L11.8676234,3.7961629 L11.9619129,3.81459274 C12.093888,3.9251423 12.2258782,4.0357213 12.3390105,4.14628557 L12.414427,4.27527969 L12.263594,4.27527969 C12.3390105,4.4042738 12.4332849,4.51483808 12.5275593,4.64381747 L12.5464172,4.6622473 C12.5275593,4.51483808 12.4898585,4.36739941 12.5087014,4.20156035 L12.4521428,4.07258096 L12.5087014,3.92515702 L12.5841329,3.8514524 L12.6595494,3.92515702 C12.7161231,4.07258096 12.7915396,4.20156035 12.8292554,4.3489843 L12.8669561,4.51483808 L12.8480982,4.55168302 L12.734981,4.53325319 C12.734981,4.6622473 12.734981,4.77281158 12.7538238,4.90180569 L12.7726817,5.06765947 C12.9046719,5.27035819 13.0366621,5.45462709 13.1497944,5.65732581 C13.2817845,5.87845437 13.4137597,6.09958292 13.5080491,6.33914132 C13.5646077,6.48656526 13.6211663,6.63398921 13.6211663,6.78139843 L13.5834656,6.78139843 L13.4514754,6.52341021 C13.2629267,6.13644259 13.0178042,5.74946026 12.7726817,5.38092247 C12.7726817,5.49147203 12.7915396,5.62048086 12.7915396,5.73104514 C12.8103975,5.97058881 12.8480982,6.19171737 12.8480982,6.43129048 C12.8480982,6.67083415 12.8292554,6.92882237 12.734981,7.16838077 L12.6595494,7.24208538 L12.6784073,7.0762316 C12.7349659,6.92882237 12.7161231,6.76298332 12.7161231,6.59712954 C12.6972652,6.22857704 12.6406916,5.86002453 12.5841329,5.50991658 L12.565275,5.34406281 C12.5464172,5.23351325 12.5464172,5.12293425 12.5275593,5.0307998 C12.3578684,4.77281158 12.1693045,4.53325319 11.9807557,4.27527969 L11.8487656,4.16471541 L11.8487656,4.16468597 Z M10.6420262,4.2384053 L10.6420262,4.47796369 L10.6608841,4.47796369 L10.6985848,4.34896958 C10.6985848,4.21997547 10.7174427,4.09098135 10.679742,3.96200196 L10.6043104,3.85143768 L10.5288939,3.9251423 L10.5477518,4.01729146 L10.6420262,4.2384053 Z" id="Shape" fill="#FFFFFF"></path>
                            </g>
                        </g>
                    </g>
                </g>
            </g>
        </g>
    </g>
</svg>