<?xml version="1.0" encoding="UTF-8"?>
<svg width="23px" height="15px" viewBox="0 0 23 15" version="1.1" xmlns="http://www.w3.org/2000/svg" xmlns:xlink="http://www.w3.org/1999/xlink">
    <!-- Generator: Sketch 53.1 (72631) - https://sketchapp.com -->
    <title>西班牙</title>
    <desc>Created with Sketch.</desc>
    <g id="Page-1" stroke="none" stroke-width="1" fill="none" fill-rule="evenodd">
        <g id="首页TRON" transform="translate(-617.000000, -1682.000000)" fill-rule="nonzero">
            <g id="底部导航" transform="translate(0.000000, 1497.000000)">
                <g id="Group-33-Copy" transform="translate(30.000000, 47.000000)">
                    <g id="Group-25-Copy">
                        <g id="Group-35" transform="translate(0.000000, 3.000000)">
                            <g id="西班牙" transform="translate(587.000000, 135.000000)">
                                <path d="M1.6496581,11.3178451 C1.51298632,11.2572855 1.47543914,11.1532567 1.40034475,11.067433 C1.02863802,10.6355587 0.72069028,10.1537172 0.48569524,9.63629397 C0.130132677,8.87348894 -0.0302785628,8.03582999 0.0186081907,7.19719029 C0.0779327412,6.12755138 0.0959553902,5.08280506 0.819865202,4.12425402 C1.00760113,3.87347032 1.60309956,3.66206897 1.84265063,3.43171948 C1.93802048,3.39122256 2.04615641,3.40311155 2.15203949,3.40311158 L20.8505396,3.40311158 C20.9511661,3.40311158 21.0514171,3.39308023 21.1441587,3.42986184 C21.4791062,3.74675455 21.7749138,4.10181466 22.0253912,4.48761175 C22.8138821,5.66499477 23.1142596,6.89439221 22.9400407,8.1743179 C22.8566617,8.79417028 22.6611765,9.394104 22.3629404,9.9454081 C22.1147743,10.4113401 21.8093249,10.8451135 21.4535475,11.2368513 C21.4250116,11.2673168 21.406989,11.3040984 21.3480399,11.3174736" id="Path" fill="#FDC200"></path>
                                <polygon id="Path" fill="#FDC200" points="0.0110987487 3.7880181 22.9899785 3.7880181 22.9899785 11.3211889 0.0110987487 11.3211889"></polygon>
                                <path d="M21.2233832,11.3245327 C21.2721946,11.3245327 21.3236342,11.3211889 21.373572,11.3211889 C21.3634342,11.4255892 21.2447851,11.4961802 21.1648096,11.5753164 C20.1134883,12.6282364 18.74627,13.4579899 17.0631547,14.0645768 C15.8493664,14.4970138 14.5857715,14.7778334 13.3016773,14.9005225 C11.8085255,15.0539945 10.3015568,15.0150297 8.81854291,14.7846047 C7.31139873,14.5490537 5.93379236,14.1279848 4.68572379,13.5213979 C3.56431441,12.9779713 2.62363218,12.3237045 1.86367708,11.5585975 C1.78858269,11.4842912 1.69096,11.4155579 1.67594112,11.3215604 L21.2233832,11.3245327 Z M1.92600539,3.37636132 C2.53915098,2.76073379 3.28371174,2.22089865 4.14429333,1.74831069 C5.04748161,1.25813204 6.00507409,0.873255127 6.99787969,0.601393247 C7.91306033,0.346465297 8.84947138,0.173134973 9.79589623,0.083478477 C10.7129343,-0.00422902484 11.6354184,-0.0222391559 12.5552392,0.029606408 C13.8480413,0.0986975745 15.1277283,0.321611688 16.3666543,0.693533017 C17.7433846,1.11237275 18.9448946,1.68651262 19.9711845,2.41595264 C20.398847,2.72023687 20.8009773,3.03975388 21.13327,3.39308023 C21.0532945,3.43023336 20.9605529,3.41314293 20.8730679,3.41314293 C15.4830438,3.41487674 10.0921435,3.41487674 4.70036721,3.41314293 L2.11336589,3.41314293 C2.04878474,3.41648672 1.96317714,3.44175086 1.92562993,3.37598977 L1.92600539,3.37636132 Z" id="Shape" fill="#C40B1E"></path>
                                <path d="M10.7019099,8.58820388 C10.6763778,8.42658773 10.7086684,8.26720075 10.7188061,8.10707072 C10.7201719,8.0945443 10.7224304,8.082129 10.7255646,8.06991756 C10.7578552,8.00935793 10.8104213,7.96217345 10.8513477,7.90681529 C10.9639893,7.82619296 11.0807611,7.75820273 11.2268196,7.76377569 C11.2518748,7.7614254 11.2761657,7.75396161 11.2981593,7.74185534 C11.5410896,7.80575874 11.6856462,7.96068736 11.7333312,8.20441193 C11.7419671,8.24973876 11.7468482,8.30026704 11.8012916,8.32032974 C12.0528578,8.34225009 12.3059258,8.3270173 12.557492,8.32887494 C12.8398468,8.32887494 12.7921619,8.34893764 12.7936638,8.5577383 C12.7951657,8.76653897 12.7850279,8.96307908 12.7970431,9.16667828 C12.8124374,9.44235457 12.7662544,9.69796819 12.5965411,9.92348776 C12.591459,9.92814439 12.584683,9.93055814 12.5777675,9.93017532 C12.4651259,9.99890862 12.3524843,10.0713572 12.224073,10.1085104 C12.1204427,10.1623824 12.0081766,10.1319169 11.8992898,10.1371183 L11.7682501,10.1371183 C11.6255708,10.1471497 11.5320783,10.0531522 11.428448,9.97884592 C11.4151067,9.96864252 11.4025559,9.95746537 11.3909008,9.9454081 C11.3533537,9.89339371 11.3128027,9.84955299 11.2737536,9.80088239 C11.2294479,9.7336352 10.9609855,9.97587368 10.9200591,9.90676885 C10.8896458,9.76372925 10.9012855,9.52817836 10.8911477,9.38365261 C10.8877685,9.3398119 10.8757534,8.81669569 10.8689949,8.77471264" id="Path" fill="#AA1619"></path>
                                <path d="M11.7588633,8.34447928 C11.7130557,8.32441658 11.7246953,8.28057589 11.7145576,8.24342273 C11.6702519,8.04985486 11.601916,7.87523511 11.381514,7.8195054 C11.3492234,7.81096017 11.3439668,7.75225822 11.29478,7.78235227 C11.221563,7.77900848 11.1791347,7.75040057 11.1791347,7.67089284 C11.1791347,7.35286195 11.1757554,7.03520261 11.1791347,6.71717172 C11.1796969,6.69922716 11.1837776,6.68156167 11.1911498,6.66515733 C11.228697,6.60274006 11.2865196,6.59270871 11.3507253,6.59085103 C11.7926557,6.57896204 12.2360881,6.60942761 12.6780185,6.59939626 C12.7748902,6.59939626 12.7884072,6.6532683 12.7936638,6.73240451 C12.8071808,7.02182747 12.7985449,7.31087891 12.8056789,7.60030187 C12.8434279,7.73285219 12.8392347,7.87366398 12.7936638,8.00378497 C12.8225752,8.10149773 12.7835261,8.19735284 12.7902846,8.29283641 C12.7936638,8.33816325 12.7632506,8.35339603 12.7189449,8.35153836 C12.397541,8.34819457 12.0765125,8.36342736 11.7569859,8.34670848 L11.7588633,8.34447928 Z" id="Path" fill="#DADADA"></path>
                                <path d="M12.1906559,6.35641471 C12.1531088,6.39022408 12.243222,6.45747126 12.2537352,6.49276675 C12.2912824,6.61908744 12.0870257,6.56187158 12.0224445,6.58713572 C12.0036709,6.59382328 12.4065523,6.57190293 12.3877787,6.59047951 C12.5935373,6.59047951 12.4388429,6.57859052 12.6446015,6.57859049 C12.8146903,6.57859049 12.8146903,6.57859049 12.8146902,6.75172414 L12.8195714,7.59955879 C12.8166049,7.60360623 12.8118581,7.60600203 12.8068053,7.60600203 C12.8017525,7.60600203 12.7970057,7.60360623 12.7940393,7.59955879 C12.7891581,7.31013583 12.7786449,7.0210844 12.7786449,6.73166144 C12.7786449,6.64435155 12.7478562,6.62020201 12.6660034,6.62020201 C12.2240729,6.62020201 10.413172,6.6235458 10.1248096,6.62020201 C9.91079064,6.53623592 10.1522191,6.300685 10.0977756,6.35790083 L12.1906559,6.35641471 Z" id="Path" fill="#9F8604"></path>
                                <path d="M11.0653667,4.89332405 C11.0892766,4.88736325 11.1140585,4.88560271 11.1385837,4.88812261 C11.2099234,4.8832927 11.2745045,4.9152444 11.342465,4.93010566 C11.4249987,4.90129412 11.5105007,4.88160702 11.5974104,4.87140368 C11.7708784,4.84948333 11.889903,4.95871356 12.0273257,5.02781842 C12.0442219,5.03636365 12.04272,5.06497155 12.0765125,5.05828399 C12.2568999,5.01196576 12.4483425,5.03534605 12.6119354,5.12367351 C12.7786449,5.20949727 12.8788959,5.38114477 12.8650035,5.52567049 C12.8650035,5.71143618 12.5045505,6.19665621 12.1917824,6.35827239 L10.0966492,6.35827239 C9.94045291,6.3396958 9.24845821,5.48888891 9.4422017,5.20652503" id="Path" fill="#9F8604"></path>
                                <path d="M9.42680736,5.22287241 C9.58300367,4.88849414 10.1916436,5.03710672 10.2393285,5.04119353 C10.3039097,5.04602345 10.3632343,4.95016833 10.406038,4.90001161 C10.406038,4.90001161 10.5761268,4.78855218 10.6797571,4.85468477 C10.7987817,4.90521305 10.9467176,4.94868221 11.0657422,4.89183793" id="Path" fill="#9F8604"></path>
                                <path d="M13.3193245,7.90867293 C13.2937924,7.89864158 13.278398,7.86000233 13.2442301,7.8715198 C13.1338413,7.91684664 13.0148167,7.90012773 12.8991714,7.92204807 C12.8523724,7.92820123 12.8122953,7.95826115 12.7936638,8.00118425 C12.7809361,7.86636415 12.7809361,7.73066361 12.7936638,7.59584351 L12.8191959,7.59584351 C12.9693847,7.58729828 13.1218262,7.57726693 13.2731414,7.56909322 C13.2894674,7.55966905 13.3072145,7.55289556 13.3257075,7.54903055 C13.3743849,7.54394203 13.4235406,7.54556752 13.471766,7.55386043 C13.5844076,7.59101356 13.7098152,7.54382908 13.8220813,7.59584351 C13.9020568,7.67832348 14.0192041,7.69355626 14.1108192,7.75560198 C14.1859136,7.80613026 14.2178287,7.85814466 14.1821589,7.94545454 C14.1702191,7.97554041 14.1605554,8.00646267 14.1532475,8.03796586 C14.1089418,8.18917914 14.0154493,8.2783467 13.8491153,8.2750029" id="Path" fill="#AB2C17"></path>
                                <path d="M13.8378511,8.55142227 C13.8686398,8.56331126 13.9009304,8.57334261 13.9298417,8.58486009 C14.1949249,8.69631951 14.1626343,8.7613375 14.1033098,9.00023221 C14.0845362,9.07453851 13.9861626,9.0841983 13.9688908,9.16333448 C13.9688908,9.17336583 13.9366003,9.15664693 13.9279644,9.13992802 C13.9043097,9.09460118 13.8821568,9.0440729 13.9144474,8.9954023 C13.9636342,8.91812376 13.9264625,8.87948451 13.8566247,8.85087658 C13.8471705,8.85547236 13.836743,8.85776527 13.8262115,8.85756414 C13.7616303,8.83564379 13.6970492,8.81372342 13.6305907,8.79366075 C13.5438566,8.75650761 13.459,8.71935445 13.3703886,8.68591664 C13.312566,8.67588529 13.3039301,8.61161034 13.2577471,8.58486009 C13.2355942,8.57148494 13.2134414,8.55959595 13.1931659,8.54436316 C13.0635269,8.4546581 13.0278427,8.28007144 13.112064,8.14756764 C13.135578,8.10961374 13.1760874,8.08514851 13.2209508,8.08180658 C13.2580057,8.08242678 13.2936486,8.06775384 13.3193245,8.04130966" id="Path" fill="#AB1719"></path>
                                <path d="M9.23832047,8.50943922 C9.17036006,8.54139092 8.86772972,8.74982006 8.79639005,8.77508417 C8.73331078,8.80703586 8.66384848,8.82226865 8.60076921,8.8523627 C8.57651339,8.86022781 8.55054653,8.86138406 8.52567482,8.85570649 C8.46109367,8.88914431 8.46785215,8.94153026 8.48812764,8.9954023 C8.50840313,9.04927434 8.51703899,9.09980261 8.46259555,9.13175434 C8.40815211,9.16370606 8.28912754,8.9348427 8.25345771,8.90883549 C8.13293123,8.81632417 8.35032947,8.58783236 8.48812764,8.51686986 C8.66647678,8.39240684 9.05133546,8.07957739 9.09338832,8.04911181" id="Path" fill="#AA1819"></path>
                                <path d="M9.08550342,8.0231046 C9.16360157,8.03833739 9.29614314,8.1141298 9.30815826,8.2029258 C9.3235526,8.31438523 9.37424132,8.43847672 9.22818272,8.51575526" id="Path" fill="#AA1819"></path>
                                <path d="M9.60703388,7.85517241 C9.10915816,7.70061534 8.7010202,8.27908974 8.5819956,8.27908974 C8.42204457,8.25568328 8.13142932,8.03499362 8.15696144,7.88043655 C8.17235579,7.79647046 8.48324653,7.65491698 8.55646351,7.62036457 C8.58349749,7.57986764 9.51504326,7.52450945 9.6077848,7.59361431" id="Path" fill="#A9231A"></path>
                                <path d="M9.25033559,9.88484848 C9.23108012,9.90740142 9.20196634,9.91931251 9.17223743,9.91680017 C8.94432599,9.92200161 8.71829192,9.92200161 8.49075594,9.91680017 C8.461153,9.91853957 8.4323757,9.90676614 8.41265779,9.88484848 C8.42617479,9.75035411 8.51140689,9.64261 8.54857861,9.51666086 C8.56209561,9.50477187 8.5793673,9.49139672 8.59626353,9.49474052 C8.76447493,9.52669221 8.93418824,9.49474052 9.10089776,9.49474052 C9.12200912,9.52024404 9.13714106,9.5500634 9.14520346,9.5820504" id="Path" fill="#B9A303"></path>
                                <path d="M9.78050188,9.88819227 C9.81466983,9.85475445 9.79927548,9.81388598 9.79927548,9.77673284 L9.79927548,8.56256822 C9.79758167,8.53348905 9.79758167,8.5043375 9.79927548,8.47525833 C9.80453209,8.43141761 9.81466983,8.38274701 9.86235476,8.37085802 C9.92167931,8.35562523 9.89614721,8.42138629 9.92355668,8.44144897 C9.93314175,8.44656246 9.94356512,8.44995853 9.95434537,8.45148032 C9.98663595,8.48343201 9.98325672,8.52578661 9.98325669,8.56293974 C9.9850089,9.00184217 9.9850089,9.44086845 9.98325669,9.88001856 C9.98325669,9.9338906 10.0087888,10.0286311 9.88788685,9.99779402 L9.78050188,9.88819227 Z" id="Path" fill="#A31518"></path>
                                <path d="M11.4325782,9.95060954 C11.5377103,9.99445026 11.5992877,10.1203994 11.7329557,10.1070243 C11.8080501,10.1389759 11.8929067,10.1237432 11.9691275,10.1441774 C12.0066747,10.1542088 12.06262,10.1660978 11.9946596,10.2147684 C11.8707539,10.2233136 11.7584878,10.2786718 11.6375859,10.3005921 C11.2762414,10.372527 10.9026793,10.3569765 10.5487174,10.2552653 C10.519806,10.2318588 10.4807569,10.2400325 10.4484664,10.2266574 C10.4161758,10.2132823 10.3771267,10.1895043 10.3925211,10.1408336 C10.4094173,10.1256008 10.5573532,10.1322884 10.580257,10.1308023 C10.6279419,10.1274585 10.7860156,10.0602113 10.8318232,10.0468362 C10.8520987,10.0416347 11.1393346,9.83989319 11.2072951,9.66675954" id="Path" fill="#CECECB"></path>
                                <path d="M13.8239587,8.84567514 L13.8562493,8.84901894 C13.8562493,9.09460121 13.8292153,9.34018345 13.8731455,9.58390805 C13.8816315,9.62203411 13.8978543,9.65805766 13.9208304,9.68979448 C13.9106927,9.75035411 13.8581266,9.74366652 13.8172002,9.74515267 C13.6489888,9.75035411 13.4792755,9.75184023 13.312566,9.74515267 C13.2682603,9.74515267 13.2021772,9.75184023 13.2138169,9.67084641 C13.2866584,9.61214445 13.2697622,9.52223385 13.2731414,9.45052828 C13.2851565,9.18302566 13.2780226,8.91403693 13.2780226,8.64504819 C13.2743544,8.62397398 13.2675203,8.60356145 13.2577471,8.58448856 C13.3121905,8.58448856 13.318949,8.64690583 13.3632547,8.65879486 C13.3531169,8.88171371 13.3583735,9.10797632 13.3583735,9.33163822 C13.3583735,9.45424359 13.3685113,9.46130267 13.4875359,9.46464647 L13.652368,9.46464647 C13.7950473,9.45610124 13.7969247,9.45610124 13.7969247,9.31603391 L13.7969247,8.97125276 C13.7969247,8.92926971 13.7935455,8.88542899 13.8243341,8.84864739 L13.8239587,8.84567514 Z" id="Path" fill="#A8920A"></path>
                                <path d="M9.6535602,8.36454198 C9.772002,8.34447928 9.80332899,8.38980612 9.80118332,8.489005 C9.79560453,8.8638802 9.79732108,9.24061305 9.80118332,9.61585974 C9.80734088,9.69430661 9.79128404,9.77286888 9.75440739,9.8447231 C9.67287135,9.80756997 9.66128465,9.73326368 9.63210334,9.66824566 C9.64375135,9.657304 9.64938197,9.64254425 9.64755228,9.62774876 C9.56773282,9.23764078 9.63982783,8.84753282 9.61622526,8.45370951 C9.61430044,8.4205714 9.62845819,8.38824454 9.65527674,8.36454198 L9.6535602,8.36454198 Z" id="Path" fill="#B8A100"></path>
                                <path d="M8.58725221,6.61722977 C8.59738995,6.5228608 8.48362196,6.50131198 8.46822761,6.42217578 C8.5192918,6.39022408 8.58537483,6.42700569 8.63493713,6.38502264 C8.7809957,6.40174155 8.76072021,6.28396609 8.78512591,6.20334379 C8.82605235,6.17993733 8.84445046,6.20334379 8.85834293,6.23678161 C8.90264862,6.34824103 8.90264862,6.34824103 8.98750524,6.26390339 L9.09301286,6.27579241 C9.06748077,6.33820968 9.05546568,6.39356787 9.14745627,6.41028678 C9.15464002,6.41173521 9.16060513,6.4166631 9.16332793,6.42339867 C9.16605074,6.43013424 9.16516578,6.43777341 9.16097327,6.4437246 L9.0948902,6.53289213 C9.02355053,6.64212236 9.13731852,6.61685822 9.17974684,6.64435155 L9.17974684,6.68150471 C9.17092306,6.70264802 9.14765957,6.71407831 9.12530343,6.70825497 C8.9653524,6.6777894 8.80389949,6.69822362 8.64244657,6.69153606 C8.596639,6.69153606 8.54895407,6.69153606 8.51478615,6.6543829 C8.53168238,6.61722977 8.56922956,6.63580632 8.58462391,6.61388598 L8.58725221,6.61722977 Z" id="Path" fill="#6D5703"></path>
                                <path d="M13.5434812,8.42844537 C13.3362207,8.35413908 13.3362207,8.35413908 13.3257075,8.14756764 C13.3257075,8.11041451 13.3208263,8.07697667 13.318949,8.03982353 L13.318949,7.90681529 C13.3444811,7.87634971 13.3681358,7.84625566 13.4105641,7.88340879 C13.4559017,7.90564891 13.5060355,7.91661616 13.5566227,7.91536049 C13.5880007,7.91103511 13.6197267,7.92044684 13.6435243,7.94114048 C13.667322,7.96183412 13.6808314,7.99175747 13.6805284,8.0231046 C13.6907113,8.1343363 13.6907113,8.24625117 13.6805284,8.35748287 C13.6718926,8.45333799 13.6140699,8.45668175 13.5412283,8.42807385 L13.5434812,8.42844537 Z" id="Path" fill="#D9D8D8"></path>
                                <path d="M13.3245811,7.57243701 L13.2735169,7.57243701 C13.2821527,7.41936606 13.3024282,7.26480899 13.2956697,7.11173807 C13.2922905,7.02108443 13.2956697,6.92002787 13.2344678,6.83940555 C13.2431037,6.78404736 13.2904131,6.78739115 13.3279603,6.78553351 C13.4808064,6.77794513 13.6339409,6.77794513 13.786787,6.78553351 C13.8277134,6.78553351 13.8922946,6.78218971 13.873521,6.85983977 C13.825836,6.89179147 13.8686398,6.92522931 13.8686398,6.95903865 C13.8697027,7.00179429 13.8565075,7.04370653 13.8310926,7.07830023 C13.7200503,7.06426316 13.6079451,7.06028366 13.4961717,7.06641124 C13.3636301,7.07495647 13.3568716,7.07978638 13.3549943,7.21279463 L13.3549943,7.46172066 C13.3614684,7.50152945 13.3502436,7.5421647 13.3242056,7.57318009 L13.3245811,7.57243701 Z" id="Path" fill="#A38F09"></path>
                                <path d="M13.8750229,6.85946825 C13.8757602,6.84675278 13.8706242,6.8343936 13.8610606,6.82586942 C13.8514969,6.81734524 13.8385397,6.81357781 13.825836,6.81562753 L13.2735169,6.81562753 C13.2615018,6.81562753 13.2498622,6.82900267 13.2359697,6.83569023 C13.1665074,6.80373853 13.1578715,6.74317891 13.1766451,6.68261931 C13.198798,6.60534078 13.2701376,6.61871592 13.3294622,6.61685825 C13.3974226,6.58342043 13.4620038,6.6268896 13.5318415,6.62020201 C13.6354718,6.61017066 13.7376002,6.60496922 13.8292153,6.54961106 C13.8340964,6.57301753 13.8292153,6.59828167 13.8581266,6.61351445 C13.9685153,6.67741784 13.9737719,6.76992917 13.873521,6.85761057 L13.8750229,6.85946825 Z" id="Path" fill="#C1A900"></path>
                                <path d="M13.2138169,9.67084641 C13.214153,9.68356564 13.2198763,9.69555943 13.2295886,9.70389787 C13.239301,9.71223631 13.252108,9.71615153 13.264881,9.7146871 L13.8836587,9.7146871 C13.8956738,9.7146871 13.9073134,9.70131195 13.9212059,9.6946244 C13.9587531,9.75518402 13.9313436,9.83580632 13.9876644,9.89153606 C13.9667692,9.91289468 13.9377135,9.92450301 13.9076889,9.92348776 C13.6884133,9.9286892 13.4676359,9.93017532 13.2483603,9.92348776 C13.2187096,9.92551286 13.18981,9.91368939 13.1702621,9.89153606 C13.1890357,9.81908744 13.1327149,9.73177756 13.2160697,9.6745617 L13.2138169,9.67084641 Z" id="Path" fill="#C1AB01"></path>
                                <path d="M9.15008457,6.7784744 C9.11929588,6.86429816 9.13656757,7.04077557 9.09564116,7.12511319 C9.01566566,7.06455356 8.92217316,7.06455356 8.82717874,7.06269592 C8.74044472,7.06269592 8.65033148,7.08796006 8.57035598,7.03743178 C8.50577482,6.99210494 8.55345975,6.83383256 8.5192918,6.77996052" id="Path" fill="#A48F08"></path>
                                <path d="M8.55834089,7.62110761 L8.56847863,7.03594566 C8.71866738,7.03594566 8.86585237,7.03594566 9.01529017,7.0292581 C9.09038456,7.02591431 9.06973358,7.09167537 9.0952657,7.12362707 L9.0952657,7.27223963 C9.08138266,7.33818282 9.08023607,7.40612999 9.09188644,7.47249506 C9.0952657,7.50964819 9.10390153,7.54308603 9.07836944,7.57503773 L8.55834089,7.62110761 Z" id="Path" fill="#B7B2AB"></path>
                                <path d="M9.14144874,6.85946825 C9.13619213,6.82231511 9.11253739,6.81414141 9.07836944,6.81414141 L8.58387298,6.81414141 C8.55008052,6.81414141 8.52605031,6.82268664 8.52079368,6.85946825 C8.44945401,6.81897132 8.4137842,6.76026937 8.4393163,6.67927552 C8.46146913,6.60868454 8.52755219,6.61722977 8.58537486,6.6153721 L8.53956728,6.65252526 C8.75696552,6.67258796 8.97135996,6.63729247 9.18199968,6.67964704 C9.21486855,6.7409187 9.19746207,6.81676668 9.14107324,6.85798213 L9.14144874,6.85946825 Z" id="Path" fill="#BDA600"></path>
                                <path d="M13.5434812,8.42844537 C13.6268359,8.44033437 13.6625058,8.40986879 13.6561227,8.32070126 C13.6497397,8.23153374 13.6527435,8.14088006 13.6561227,8.04985486 C13.659502,7.95882966 13.6238322,7.9201904 13.5337189,7.92539184 C13.4897254,7.93210929 13.4452099,7.91696332 13.4146943,7.88489491 L13.725585,7.91684664 C13.7381314,7.91174146 13.7524851,7.91372989 13.7631322,7.92204807 C13.8802794,8.01976083 13.8175756,8.15908511 13.8513681,8.27686055 C13.8324212,8.36637034 13.8278595,8.45827693 13.8378511,8.54919307 C13.7289643,8.53396029 13.6422303,8.4667131 13.5438566,8.42807385 L13.5434812,8.42844537 Z" id="Path" fill="#BEB7B1"></path>
                                <path d="M13.5010529,7.03594566 C13.5844076,7.03594566 13.6692643,7.03594566 13.752619,7.03260187 C13.7862321,7.02762313 13.8190341,7.04560441 13.8325945,7.07644259 L13.8239587,7.59658655 C13.7076407,7.61149848 13.5895461,7.6052024 13.4755208,7.57800997 C13.6200774,7.54085684 13.638851,7.43682805 13.6257095,7.31236503 C13.6223002,7.27988146 13.6223002,7.24713583 13.6257095,7.21465227 C13.6309661,7.14406129 13.6204529,7.08498782 13.5340944,7.07161267 C13.524305,7.07249422 13.5146886,7.06863962 13.5082791,7.06126499 C13.5018697,7.05389035 13.4994576,7.04390512 13.5018038,7.03445954 L13.5010529,7.03594566 Z" id="Path" fill="#C3C3C0"></path>
                                <path d="M13.1000489,10.1614027 C13.0508621,10.0688906 13.0625017,10.0431085 13.1458564,10.0097434 C13.2474791,9.96714177 13.360879,9.96283587 13.465383,9.9976107 C13.5461432,10.0234061 13.6333048,10.0197836 13.7116926,9.9873737 C13.8243341,9.94263421 13.9820323,9.9873737 14.0413569,10.0730612 C14.0543701,10.0960861 14.0574903,10.123484 14.0499927,10.1488908" id="Path" fill="#1C5DA4"></path>
                                <path d="M13.8284643,6.54998259 C13.6805284,6.7063973 13.5036812,6.6543829 13.3305886,6.61722977 C13.3267079,6.56548087 13.299023,6.51836255 13.2554942,6.48942296 C13.4083113,6.39505399 13.5784001,6.40211307 13.7484888,6.42217578 C13.7923154,6.42820471 13.8313496,6.45273466 13.8554983,6.48942296 L13.8284643,6.54998259 Z" id="Path" fill="#685303"></path>
                                <path d="M14.0484909,10.206101 C14.0571267,10.2918485 14.0537475,10.3518717 13.9516191,10.3012807 C13.8587322,10.2594331 13.7553927,10.2594331 13.6625058,10.3012807 C13.6086288,10.3279464 13.547977,10.3306983 13.492417,10.3089979 C13.3868413,10.2575755 13.2678256,10.2554208 13.1608753,10.3029956 C13.118447,10.3205738 13.0808998,10.3321497 13.0707621,10.2601219 C13.0707621,10.2331115 13.0658809,10.2018137 13.0910375,10.1842354 C13.2129052,10.1258517 13.3488723,10.1182634 13.4751453,10.1627986 C13.5494385,10.1860752 13.6282664,10.1820247 13.7004284,10.1512227 C13.8262115,10.108349 13.9366002,10.1413617 14.046989,10.2035286 L14.0484909,10.206101 Z" id="Path" fill="#27639F"></path>
                                <path d="M9.2875073,9.9052827 C9.33857149,10.0197144 9.32993562,10.1560664 9.32167523,10.2972483 C9.21954686,10.2600952 9.02129772,10.2400325 8.9187939,10.2820155 C8.860105,10.3038883 8.79537893,10.3038883 8.73669003,10.2820155 C8.62213332,10.2466984 8.49942957,10.2466984 8.38487286,10.2820155 C8.27223129,10.2972483 8.35258228,9.93203296 8.34732568,9.88856379" id="Path" fill="#2C6498"></path>
                                <path d="M13.4740189,6.44558227 C13.3989245,6.44558227 13.3362207,6.51431557 13.2547433,6.49090908 C13.2343259,6.4834841 13.2189824,6.46649085 13.2138169,6.44558227 C13.2085603,6.35641474 13.2596244,6.28916756 13.351615,6.30105655 C13.5018038,6.31963313 13.6519925,6.29436899 13.8021813,6.31628934 C13.8498662,6.3229769 13.9009304,6.33152213 13.9212059,6.38167885 C13.9433587,6.4403808 13.8836587,6.46081503 13.8551228,6.49313828 L13.4740189,6.44558227 Z" id="Path" fill="#7E2F0E"></path>
                                <path d="M13.8547474,6.49276675 C13.9328455,6.38130733 13.9174512,6.3441542 13.7766492,6.3396958 C13.7135699,6.3396958 13.6407284,6.29251132 13.5844076,6.36161615 C13.5284623,6.31108787 13.4567472,6.34303957 13.3925415,6.32780681 C13.3528847,6.31729682 13.3105745,6.3241992 13.2764261,6.34674956 C13.2422778,6.36929992 13.219601,6.4053127 13.2141923,6.44558227 C13.1766451,6.3512133 13.2074338,6.29919891 13.2922905,6.26724718 C13.3771471,6.23529546 13.4773981,6.25387204 13.5404774,6.17139207 C13.5480993,6.1627023 13.55936,6.15799724 13.5709694,6.15865159 C13.5825787,6.15930595 13.5932266,6.16524587 13.599802,6.17473586 C13.6610039,6.24384069 13.7458605,6.26204575 13.8310926,6.27059098 C13.8889153,6.27542089 13.933221,6.29251132 13.9381021,6.35641471 C13.9429833,6.4203181 13.9448606,6.4827354 13.8547474,6.49276675 L13.8547474,6.49276675 Z" id="Path" fill="#986C02"></path>
                                <path d="M13.0865319,10.1943341 L13.0711375,10.2448624 C13.0595097,10.1368607 13.0606437,10.0278859 13.0745168,9.92014397 C13.0812753,9.92348776 13.0899111,9.9286892 13.0947923,9.92683152 C13.3106886,9.86812957 13.5265849,9.98404736 13.7439832,9.91680017 C13.8486004,9.88884188 13.9604068,9.91052926 14.0466135,9.97550216 C14.0563778,10.0066866 14.0539661,10.0403608 14.039855,10.0698711 C13.9208304,10.0293742 13.8145719,9.94726575 13.6745209,10.032718 C13.5997121,10.0685838 13.5117933,10.0653824 13.4398509,10.0241728 C13.318949,9.96026937 13.2119395,10.020829 13.10493,10.0527807 C13.0606243,10.0661558 13.0707621,10.1166841 13.10493,10.1486358 C13.118447,10.1720422 13.0962941,10.1824451 13.0880338,10.1958203 L13.0865319,10.1943341 Z" id="Path" fill="#AFB2B6"></path>
                                <path d="M9.32655637,10.2485565 C9.28362761,10.2556472 9.24021638,10.2493207 9.19889591,10.2299519 C9.10728079,10.1985567 9.01115998,10.1828591 8.92367504,10.250882 C8.88412468,10.281366 8.83881076,10.2887953 8.79601458,10.2718121 C8.67361076,10.2136729 8.54970503,10.1851847 8.42392195,10.2561145 C8.39891865,10.2622273 8.37337523,10.2604475 8.34882756,10.250882 L8.34882756,10.1799522 C8.49150687,10.0851852 8.63268429,10.0380925 8.77724098,10.1723941 C8.80992612,10.2013398 8.85006346,10.2013398 8.8827486,10.1723941 C9.01529017,10.0485575 9.14557892,10.0828597 9.27887144,10.1642546 C9.30102428,10.1776266 9.3126639,10.1566965 9.32467902,10.1404175 L9.32467902,10.2485565 L9.32655637,10.2485565 Z" id="Path" fill="#A4B2C1"></path>
                                <path d="M11.4171839,4.90001161 C11.4017895,4.90001161 11.3578593,4.93010566 11.3420895,4.93010566 C11.308297,4.93010566 11.2977838,4.90149773 11.2639913,4.90001161 C11.2538536,4.90001161 11.2061687,4.9033554 11.1975328,4.90001161 C11.17538,4.89146638 11.0514742,4.90001161 11.0327006,4.8832927 C11.027444,4.87474747 11.0462176,4.77183328 11.0447157,4.76217345 C11.0533516,4.7201904 11.1246912,4.68786716 11.0991592,4.65442934 C11.1314497,4.61727621 11.107795,4.58718216 11.0924007,4.55523046 C11.061612,4.4894694 11.0736271,4.43596888 11.1400856,4.39881575 C11.1825139,4.37540928 11.2200611,4.36166261 11.2527272,4.41553466 C11.2853932,4.4694067 11.3597366,4.50990362 11.2696234,4.57529316 C11.2373328,4.59869963 11.2609875,4.62730756 11.2782593,4.64959945 C11.2782593,4.67969351 11.2474706,4.71350284 11.2816385,4.7402531 C11.3037913,4.75697201 11.3225649,4.73542319 11.3394612,4.7235342 C11.3683725,4.78557994 11.3360819,4.85319865 11.4175593,4.89852549 L11.4171839,4.90001161 Z" id="Path" fill="#B79401"></path>
                                <path d="M14.0466135,10.054728 C14.0029311,10.0555217 13.9595776,10.041056 13.9189531,10.0121318 C13.8558025,9.9556238 13.7816016,9.9556238 13.7184511,10.0121318 C13.6337661,10.07885 13.5379418,10.0832185 13.4514906,10.0243021 C13.3493622,9.95668909 13.2524905,9.94181418 13.1574961,10.0425577 C13.0962941,10.1101707 13.0726394,10.0668984 13.0741413,9.95060389 C13.0962941,9.88975214 13.1353432,9.89583729 13.1695112,9.88299083 L13.9869135,9.88299083 C14.0428588,9.89516117 14.0717701,9.93775744 14.046238,10.0479667 L14.0466135,10.054728 Z" id="Path" fill="#1F5E9B"></path>
                                <path d="M8.34657472,9.99922444 C8.48925403,9.9517118 8.62892957,9.89556055 8.77498817,9.99922444 C8.84262197,10.0308211 8.91488941,10.0218536 8.9788694,9.97392551 C9.03331281,9.94307314 9.09151097,9.91222082 9.15046006,9.94862658 C9.18800724,9.97392551 9.25559219,9.99922444 9.24057331,10.072036 C9.22029782,10.1695294 9.17599215,10.072036 9.14370155,10.0578439 C9.10633231,10.0293851 9.06376628,10.025413 9.02467695,10.0467371 C8.8970165,10.1473158 8.77649002,10.1306555 8.64732771,10.0467371 C8.58863491,10.0056077 8.52117382,10.0172777 8.46897857,10.0775894 C8.43243159,10.1197804 8.38657201,10.1339536 8.34319549,10.1164634 L8.34657472,9.99922444 Z" id="Path" fill="#ABB4BE"></path>
                                <path d="M13.0865319,10.2907283 C13.0932904,10.2600814 13.098547,10.2294344 13.1053055,10.1957976 C13.2025054,10.0927103 13.3164729,10.0719619 13.4214528,10.1382411 C13.5014283,10.1823428 13.5829057,10.2294345 13.6662605,10.1516959 C13.7973002,10.0335931 13.9230833,10.1449685 14.0503682,10.1890702 L14.0503682,10.2907283 C13.7292393,10.2331222 13.4061589,10.2331222 13.08503,10.2907283 L13.0865319,10.2907283 Z" id="Path" fill="#A8B7C6"></path>
                                <path d="M9.21175646,7.7474283 C9.0862576,7.68501103 9.17718023,7.65305934 9.23309978,7.61293394 C9.24439344,7.60156811 9.25413419,7.5891004 9.26212673,7.5757808 L9.33938963,7.5757808 C9.31249704,7.65640313 9.35304936,7.73739695 9.33938963,7.81987693" id="Path" fill="#B7610D"></path>
                                <path d="M9.1119955,7.90532917 C9.13240631,7.95065601 9.10751506,8.00304193 9.14136714,8.04651109 C9.13489542,8.12378963 9.10303463,8.20106816 9.12991721,8.28020434 C9.14584758,8.32553118 9.10303467,8.33407638 9.05574132,8.33890629 C8.98355676,8.33890629 8.96314594,8.30175316 8.95866551,8.26162776 C8.94401853,8.16496613 8.94401853,8.06738031 8.95866551,7.97071868 C8.97210678,7.91201672 9.0129284,7.86817601 9.10801292,7.90347149 L9.1119955,7.90532917 Z" id="Path" fill="#CFCBC8"></path>
                                <path d="M9.02595317,6.28142749 C9.02595317,6.31414053 9.02595317,6.35412314 9.03264119,6.38320142 C9.07648474,6.6267319 8.99920119,6.70233542 8.73019492,6.66307975 C8.65657553,6.59993862 8.59296312,6.52643918 8.54144463,6.44499274 C8.66925974,6.3032362 8.88104648,6.38247448 9.02595317,6.28070055 L9.02595317,6.28142749 Z M9.42649014,6.39628663 C9.39305014,6.49151793 9.38933455,6.62963971 9.24517102,6.60710406 C9.13444742,6.59038404 9.09654875,6.48861011 9.13073189,6.37665879 C9.15451143,6.29451269 9.08688835,6.28797006 9.02966875,6.27779273 C9.02966875,6.21163966 9.0192652,6.13967095 9.10397986,6.12658574 C9.16119945,6.1171353 9.19166701,6.17238399 9.20132747,6.22181705 C9.22139148,6.34685357 9.38264659,6.29451269 9.4242608,6.39628663 L9.42649014,6.39628663 Z" id="Shape" fill="#945409"></path>
                                <path d="M8.46912762,6.4808217 C8.45554225,6.44214022 8.45662231,6.39751775 8.47205191,6.36000549 C8.4874815,6.32249323 8.51551718,6.29632981 8.54795907,6.28916753 C8.62098188,6.30148052 8.63799287,6.37375232 8.65334423,6.44977158 L8.46912762,6.4808217 Z" id="Path" fill="#9E2D11"></path>
                                <path d="M9.19141924,6.46744659 C9.17672679,6.45989785 9.16433002,6.44647785 9.14550529,6.44480036 C9.09959135,6.43892911 9.045872,6.44480036 9.03117955,6.38776541 C9.0164871,6.33073047 9.06423759,6.30389049 9.1060193,6.27579241 C9.19141924,6.31772986 9.26809554,6.36511918 9.18912356,6.46744659 L9.19141924,6.46744659 Z" id="Path" fill="#9D400E"></path>
                                <path d="M11.8038271,4.85378074 C11.8038271,4.93323256 11.8038271,5.0219709 11.6636429,5.02609825 C11.5607062,5.03715577 11.4636338,4.98493952 11.4372903,4.90434094 C11.4077102,4.79187023 11.4025658,4.68043134 11.5890495,4.6525717 C11.6584985,4.71757766 11.7343781,4.78361553 11.8051132,4.85378074 L11.8038271,4.85378074 Z M11.2202971,4.65864727 C11.492922,4.6734301 11.4263508,4.82125848 11.344986,4.97542238 C11.3000773,5.01929105 11.2366463,5.03863464 11.1748779,5.02729767 C11.1131095,5.0159607 11.0606975,4.9753553 11.0343205,4.91840285 C11.0195269,4.77479812 11.1294221,4.72200233 11.2213538,4.65547951 L11.2202971,4.65864727 Z" id="Shape" fill="#7C7F43"></path>
                                <path d="M9.24144209,6.72491785 C9.17679492,6.72491785 9.11488707,6.71606255 9.04804852,6.71353242 C9.04467332,6.64399792 9.07058616,6.57686053 9.11762638,6.53326368 C9.08037209,6.66799084 9.19706565,6.66482825 9.24144209,6.72302028 L9.24144209,6.72491785 Z" id="Path" fill="#BDA600"></path>
                                <path d="M11.8932822,9.12655287 C11.842218,9.06599325 11.7964104,9.00877741 11.7096765,8.98537095 C11.6128047,8.95862069 11.6214406,8.84418902 11.58915,8.76839661 C11.5790122,8.74499014 11.6195632,8.72121213 11.6435934,8.74164635 C11.7186878,8.8036921 11.8576124,8.8003483 11.8561105,8.94524555 C11.8561105,8.98908626 11.9004162,9.03961451 11.9394653,9.02586787 C11.9785144,9.01212124 11.9717558,8.94524555 11.9481011,8.91440845 C11.9004162,8.84864739 11.8767614,8.79328922 11.9312049,8.71749681 C11.9548596,8.68368744 11.9191898,8.64839198 11.8936577,8.62498549 C11.8681256,8.60157899 11.8410916,8.62498549 11.8185633,8.64356207 C11.7776369,8.6807152 11.7231935,8.69074655 11.6909029,8.65545106 C11.6586123,8.62015557 11.6909029,8.5610821 11.7111783,8.52430049 C11.7400897,8.47711601 11.7862727,8.52430049 11.8215671,8.5209567 C11.9372124,8.51241147 12.0528578,8.53284569 12.1685031,8.5176129 C12.1887786,8.51426911 12.2094295,8.4975502 12.229705,8.4975502 C12.3318334,8.4975502 12.4253259,8.56479739 12.5405957,8.50758155 C12.5916599,8.48231741 12.6423486,8.56814118 12.5965411,8.63873216 C12.5507335,8.70932313 12.5488561,8.76505284 12.6032995,8.82449784 C12.6209569,8.8443357 12.6261515,8.87217771 12.6168165,8.89694647 C12.5623731,9.05856261 12.6168165,9.22166491 12.6048015,9.3799373 C12.598043,9.49919888 12.5402203,9.62403342 12.4756391,9.72806224 C12.4418467,9.78342043 12.349856,9.80719842 12.3254504,9.8863346 C12.3254504,9.89302216 12.3153126,9.90156739 12.310056,9.90156739 C12.1775145,9.91494253 12.0551106,10.0026239 11.9139332,9.96026937 C11.9105539,9.96026937 11.9071747,9.95506793 11.9037954,9.95506793 C11.7201897,9.98033207 11.6319538,9.82391736 11.5042933,9.74663879 C11.4855197,9.73660744 11.4584858,9.7146871 11.4599876,9.7027981 C11.4768839,9.56830374 11.3905253,9.45572971 11.3920272,9.31789155 C11.3920272,9.20345989 11.4243178,9.0841983 11.3954065,8.9731104 C11.3818895,8.92109601 11.3785103,8.89583187 11.4243178,8.89583187 C11.4802632,8.89583187 11.4941556,8.79143155 11.5467217,8.84047371 C11.5992877,8.88951586 11.5196877,8.92629747 11.5042933,8.97162428 C11.4851105,9.01559042 11.4896286,9.06616412 11.5163084,9.10611865 C11.5381466,9.13245616 11.5752876,9.14072519 11.6064217,9.12618135 L11.8932822,9.12655287 Z" id="Path" fill="#C29C04"></path>
                                <path d="M11.0383327,8.69743411 C10.8836383,8.60826658 10.8190571,8.46708463 10.8258156,8.2972948 C10.8325741,8.1341925 10.893776,7.99784049 11.055229,7.92056195 C11.2099234,7.84625566 11.4138046,7.92056195 11.4986613,8.08700802 C11.616184,8.31401371 11.5362084,8.59154767 11.3285725,8.69594799 C11.2301988,8.73644491 11.134829,8.74647626 11.0379572,8.69594799 L11.0383327,8.69743411 Z" id="Path" fill="#0359B7"></path>
                                <path d="M10.6369533,8.18472078 C10.3512191,8.18472078 9.88075287,8.19809592 9.88600947,8.11747359 C9.89276796,8.0535702 9.92355665,6.99396261 10.0361983,6.83940555 C10.0955228,6.74689422 10.721059,6.76509925 10.7991571,6.85798213 C10.8449647,6.91334032 11.0559799,7.63336816 10.8126741,7.88378034" id="Path" fill="#6D5F03"></path>
                                <path d="M10.8745842,10.0052247 C10.840224,10.0605828 10.7737692,10.0605828 10.7235504,10.0891907 C10.6688007,10.0791594 10.6823937,10.0371764 10.6823937,10.003367 L10.6823937,8.66585394 C10.6823937,8.6287008 10.672199,8.5885754 10.728459,8.58337397 C10.8685428,8.76170905 10.8394688,8.9719958 10.8394688,9.17522351 L10.8394688,9.91197029 C10.8394688,9.94912342 10.8326723,9.98441891 10.873829,10.0044816 L10.8745842,10.0052247 Z" id="Path" fill="#C2AB00"></path>
                                <path d="M11.0861133,9.77896204 C11.0535261,9.73631044 11.0362255,9.68664713 11.0362843,9.63592244 C11.0362843,9.42749333 11.0305518,9.21720655 11.0305518,9.00877744 C11.0305518,8.96828052 11.0045349,8.90957856 11.1002241,8.90957853 C11.1818025,8.90957853 11.2179616,8.94301635 11.2161978,9.00877744 C11.2100243,9.17039359 11.2303086,9.33349589 11.2060556,9.49474052 C11.2037479,9.53017618 11.2064122,9.56571749 11.2139929,9.60062695 C11.2400098,9.68310693 11.1901809,9.73846511 11.1222724,9.78899339 C11.1090388,9.79043111 11.0957442,9.7867429 11.0861133,9.77896204 L11.0861133,9.77896204 Z" id="Path" fill="#BBA501"></path>
                                <path d="M12.2229465,7.27632649 C12.2111318,7.26323025 12.204006,7.24664745 12.2026711,7.22914198 C12.1992918,7.13477302 12.1737597,7.04077555 12.2113069,6.9501219 C12.2522334,6.9181702 12.302922,6.89959362 12.33709,6.85761057 C12.3678787,6.90628118 12.4001693,6.92820155 12.4594938,6.88621851 C12.4917844,6.86429816 12.5477297,6.83569023 12.5800203,6.87284336 C12.6134293,6.91499115 12.6074783,6.97567583 12.5665033,7.01068152 C12.4219466,7.15037733 12.4538618,7.3015906 12.5154391,7.4646929 C12.5462278,7.54382908 12.5068033,7.61776385 12.4272032,7.66160454 C12.2995428,7.73033784 12.2995428,7.73219552 12.3795183,7.84737026 C12.4170655,7.89789853 12.3930353,7.93468014 12.3592428,7.97183328 C12.310056,7.91796124 12.2841484,7.85071405 12.2488541,7.79015443 C12.2030465,7.71287589 12.2811447,7.678695 12.3239485,7.63373968 C12.2405937,7.60847555 12.2405937,7.60847555 12.2338352,7.54642983" id="Path" fill="#B57E96"></path>
                                <path d="M12.2248239,7.5557181 C12.2522333,7.63485428 12.3404692,7.5757808 12.3896561,7.62630908 C12.3551108,7.64536322 12.3226478,7.66789863 12.2927843,7.69355626 C12.2518579,7.73405319 12.2435975,7.76266109 12.2875277,7.80947405 C12.3316825,7.8533276 12.3567479,7.91253327 12.3573655,7.97443399 L12.350607,8.12081736 C12.27739,8.14088006 12.2349616,8.07214675 12.1737597,8.05840009 C12.1395918,7.97592011 12.2282031,7.98780911 12.2604937,7.94916986 C12.2229465,7.90384302 12.0990408,7.9911529 12.1144352,7.86334609 C12.0984739,7.83154854 12.0948664,7.79505896 12.1042974,7.76080345 C12.1298295,7.61219089 12.1279521,7.60959017 11.9785143,7.59770115 L11.9582388,7.53714152 C11.9312049,7.49515848 11.8936577,7.45131776 11.9413426,7.40078951 C11.9991653,7.33874376 12.070505,7.34543132 12.143722,7.36363635 C12.2021944,7.4095715 12.23292,7.48186657 12.2251994,7.55534658 L12.2248239,7.5557181 Z" id="Path" fill="#E173A5"></path>
                                <path d="M12.2229465,6.94863578 L12.2229465,7.22951353 C12.129454,7.35732034 12.0783899,7.36920934 11.9372124,7.28338557 C11.90342,7.26332287 11.8677501,7.24623244 11.8317048,7.22802741 C11.7956595,7.20982239 11.7738821,7.1841867 11.8080501,7.14406129 C11.8455973,7.13737374 11.8947841,7.15260652 11.9135577,7.1002206 C11.9357105,7.04151865 11.98302,6.99767793 12.0070502,6.93526066 C12.0239464,6.88993382 12.1196918,6.89476374 12.1838974,6.88659003 C12.2113069,6.89996517 12.2364635,6.91185417 12.2214446,6.94900733 L12.2229465,6.94863578 Z" id="Path" fill="#E56FA5"></path>
                                <path d="M11.6740066,7.2729827 L11.66875,7.2729827 C11.612478,7.28174942 11.5575325,7.25094553 11.5362084,7.19867641 C11.5275726,7.18344362 11.5193122,7.15669336 11.5091745,7.15483572 C11.4171839,7.14480437 11.402165,7.12288402 11.4258197,7.02034135 C11.4412141,6.95123652 11.4190612,6.91594103 11.5072971,6.93786138 C11.5275726,6.94306282 11.5410896,6.92931615 11.5549821,6.91594101 C11.5752575,6.8958783 11.5925292,6.86392661 11.6263217,6.8906769 C11.6484562,6.90676626 11.6537647,6.93729782 11.6383368,6.95978172 C11.6007896,7.01848368 11.6571104,7.05043537 11.6721293,7.09427609" id="Path" fill="#AA7489"></path>
                                <path d="M12.0870257,7.7708348 C12.0566125,7.77752236 12.0494785,7.79944273 12.0494785,7.82805063 C12.029203,7.98966678 12.029203,7.98966678 11.8726312,7.94731221 C11.835388,7.94414265 11.8019095,7.92357622 11.782518,7.89195402 C11.7622425,7.8514571 11.7449708,7.80130037 11.8283256,7.81764773 C11.9064237,7.85814466 11.9165615,7.81244629 11.9083011,7.75225822 C11.9015426,7.71027517 11.8775124,7.6597469 11.9270747,7.6363404 C11.9764737,7.60974106 12.0355352,7.6072717 12.0870257,7.62965284 C12.177139,7.67014977 12.1005427,7.72365029 12.0870257,7.7708348 L12.0870257,7.7708348 Z" id="Path" fill="#E173A5"></path>
                                <path d="M12.176388,6.90293741 C12.1272012,6.90293741 12.0930332,6.9701846 12.0352106,6.93340299 C12.0250728,6.92671543 12.0130577,6.9382329 12.016437,6.9501219 C12.0468502,7.04449086 11.9619936,7.06158132 11.9128068,7.10319284 C11.8906539,7.05452224 11.8377124,7.0493208 11.8001652,7.02405667 C11.7765105,7.00733776 11.7524803,6.98690353 11.762618,6.95346569 C11.7727558,6.92002784 11.8001652,6.93005922 11.8253218,6.92300011 C11.9379634,6.89773598 12.0614936,6.8791594 12.0904049,6.73723443 C12.1193163,6.79110647 12.1516069,6.84497853 12.177139,6.90368049 L12.176388,6.90293741 Z" id="Path" fill="#A96571"></path>
                                <path d="M11.6484745,7.51187739 C11.641716,7.53714152 11.6349575,7.56054799 11.6281991,7.58432601 C11.6146821,7.63151049 11.6011651,7.63299661 11.5531047,7.60624638 C11.4629914,7.55423198 11.468248,7.4750958 11.4663707,7.3959596 C11.4663707,7.35211888 11.5039178,7.35880647 11.5328292,7.35880647 C11.5805141,7.36215026 11.6263217,7.37069546 11.6740066,7.37738302 C11.6875236,7.40784859 11.6672481,7.4245675 11.6469726,7.436085 C11.5992877,7.46655057 11.6266972,7.48661328 11.6469726,7.51039126 L11.6484745,7.51187739 Z" id="Path" fill="#A67C8D"></path>
                                <path d="M11.8358506,7.81616161 C11.7706879,7.83288052 11.7814817,7.86483221 11.8214588,7.89529782 C11.8430464,7.91201672 11.8810246,7.90867296 11.8810246,7.94582606 C11.8178609,8.05357017 11.8338517,8.03313595 11.7363077,7.96588876 C11.6387636,7.89864158 11.718318,7.83808195 11.7111221,7.77566468 C11.7075242,7.75225822 11.7439033,7.75040055 11.76709,7.74891443 C11.8178609,7.74891443 11.8430464,7.76897713 11.8358506,7.81616161 L11.8358506,7.81616161 Z" id="Path" fill="#AC6986"></path>
                                <path d="M11.6484745,7.53066652 C11.6195632,7.52530822 11.5752575,7.54921447 11.5669971,7.49892893 C11.5587368,7.44864339 11.5940311,7.44122419 11.6263217,7.43174411 C11.6477832,7.42507994 11.6645567,7.40666675 11.6706274,7.38310724 L11.689401,7.36249842 C11.7453463,7.39423605 11.7982878,7.30479368 11.8561105,7.35672795 C11.8696275,7.3699176 11.9037954,7.35672795 11.9019181,7.39217515 C11.9019181,7.41814227 11.876386,7.42762234 11.8542331,7.43339281 C11.7845948,7.43929335 11.7190063,7.47164971 11.66875,7.52489605 L11.6484745,7.53066652 Z" id="Path" fill="#DB6D9F"></path>
                                <path d="M11.6740066,7.2729827 C11.6146821,7.22765586 11.6128047,7.13997445 11.5463462,7.09984905 C11.5275726,7.0898177 11.5193122,7.07458491 11.5328292,7.05600836 C11.5463462,7.03743181 11.5651198,7.04597701 11.5786368,7.05935216 C11.601723,7.08821109 11.6387972,7.1024301 11.6755085,7.09650529 C11.6909029,7.11991175 11.7367105,7.09167537 11.7400897,7.13365842 C11.7377679,7.15104839 11.738916,7.16872015 11.7434689,7.18567282 C11.755484,7.21242307 11.7979123,7.22765586 11.7723803,7.26629514 C11.7415916,7.31162198 11.7059217,7.26963894 11.6736312,7.2729827 L11.6740066,7.2729827 Z" id="Path" fill="#DD6DA0"></path>
                                <path d="M12.172221,8.06193835 C12.2572206,8.00979093 12.2919388,8.13963803 12.3601779,8.14954602 C12.3601779,8.19647869 12.3494033,8.26270596 12.3094974,8.23454634 C12.2552254,8.19700019 12.1394982,8.22255242 12.172221,8.06245985 L12.172221,8.06193835 Z" id="Path" fill="#8B5765"></path>
                                <path d="M10.8716232,5.89905957 C10.8629873,5.89051434 10.8596081,5.87045164 10.8427119,5.87565307 C10.8325741,5.87899687 10.8378307,5.89422966 10.8359534,5.90426101 C10.7747515,6.02686638 10.6726231,6.04878672 10.5487174,5.96667828 C10.5111702,5.88271218 10.5742494,5.8674794 10.6301948,5.84555905 C10.6660076,5.83333217 10.6917463,5.802108 10.6966533,5.76493672 C10.6831363,5.71440845 10.6422099,5.71960989 10.6031608,5.71775224 C10.5776287,5.71775224 10.5438362,5.72778359 10.5453381,5.68059908 C10.5352004,5.61669569 10.4571022,5.58660164 10.4773777,5.49892023 C10.4851572,5.44616475 10.508843,5.39695962 10.5453381,5.3577383 C10.6797571,5.26336934 10.8378307,5.25853943 10.9921497,5.24627888 C11.0736271,5.25148032 11.0619874,5.30349471 11.0447157,5.35402299 C11.027444,5.40455126 11.0244402,5.44133287 11.0822629,5.46994078 C11.1738781,5.51712526 11.0447158,5.56765353 11.0822629,5.61632417 C11.0788837,5.67688379 11.0244403,5.6534773 10.994027,5.67019621 C10.9515987,5.69025891 10.8903968,5.70066178 10.9275685,5.77125276 C10.9835138,5.81509348 11.048095,5.80840589 11.1126761,5.80840589 C11.1603611,5.83701382 11.1468441,5.88271218 11.1449667,5.92283756 L11.1246913,5.94624405 L10.8716232,5.89905957 Z" id="Path" fill="#A91718"></path>
                                <path d="M11.3646178,5.68208523 C11.2662441,5.63824451 11.2474706,5.56282365 11.3188102,5.47514221 C11.3412476,5.44592552 11.3498681,5.40855621 11.342465,5.37259957 C11.3323272,5.2867758 11.3732537,5.26114014 11.4513518,5.2700569 C11.5737556,5.25482411 11.6909029,5.26002555 11.7862727,5.35402299 C11.8016671,5.39117612 11.8523558,5.36405434 11.8696275,5.39786371 C11.9206917,5.6129804 11.9206917,5.6129804 11.7194387,5.72406828 C11.6567349,5.75750609 11.6462217,5.79280158 11.7160595,5.83181239 C11.7261972,5.83515618 11.736335,5.84035761 11.7449708,5.84370138 C11.7941576,5.86376408 11.8876501,5.83701382 11.8486011,5.94475793 C11.8061727,6.03726925 11.722818,6.01014747 11.6496009,6.00680368 C11.5865217,6.00345989 11.5745066,5.95144549 11.5647443,5.89905957 C11.5594877,5.88717057 11.5647443,5.86710787 11.5478481,5.8652502 C11.5309518,5.86339253 11.5324537,5.8853129 11.522316,5.89571578 C11.5170594,5.94438638 11.4663707,5.96444908 11.4509763,6.0071752 C11.3669174,6.02198421 11.2836905,5.97726039 11.2504743,5.89943109 C11.2335781,5.86227796 11.23508,5.83367003 11.2760064,5.815465 C11.2897236,5.81083973 11.3039818,5.80796806 11.3184347,5.80691977 C11.3608631,5.80171833 11.4168084,5.80691977 11.4340801,5.76307908 C11.4513518,5.71923839 11.3762574,5.72592595 11.3642423,5.68394287 L11.3646178,5.68208523 Z" id="Path" fill="#AA1819"></path>
                                <path d="M9.71404335,5.66202253 C9.7022249,5.60405872 9.72625905,5.54467687 9.77524528,5.51080925 C9.8229302,5.43836063 9.89239249,5.42164172 9.97424537,5.4383606 C10.0170476,5.44354471 10.0604669,5.4401329 10.1019058,5.42832928 C10.2055361,5.40826658 10.3024078,5.41161037 10.3515946,5.52752816 C10.3602305,5.53421572 10.3752494,5.54424707 10.3737475,5.54944851 C10.3467135,5.63007083 10.3583531,5.72258216 10.2888908,5.78834319 C10.239704,5.85076046 10.2618569,5.88085451 10.3346984,5.8841983 C10.3597472,5.88126688 10.3851114,5.8823963 10.4097928,5.8875421 C10.4623588,5.92469523 10.4642362,5.96667828 10.4184286,6.01200511 C10.3316946,6.10451644 10.3095418,6.10451644 10.1514681,5.99342853 C10.1191775,6.03058167 10.1514681,6.10117264 10.0853851,6.11454779 C10.0449952,6.12220135 10.0035362,6.10805516 9.97649821,6.07739463 L9.96298124,6.03355394 C9.81279248,6.01349124 9.78125283,5.94958784 9.73506979,5.82178103 L9.71404335,5.66202253 Z" id="Path" fill="#AA1719"></path>
                                <path d="M12.2041729,6.02983862 C12.0915314,6.09894345 12.0374634,6.09559968 11.9578634,6.00977592 C11.9390898,5.89051434 11.9390898,5.88717055 12.0479766,5.9172646 C12.0855238,5.92729595 12.0990408,5.90203181 12.123071,5.89200046 C12.1312103,5.88688008 12.1397479,5.88240763 12.1486031,5.87862534 C12.2011692,5.85187509 12.1654993,5.81472195 12.143722,5.8061767 C12.0483521,5.76567977 12.0310804,5.67502612 11.9935332,5.59774759 C11.9907165,5.58784631 11.9895747,5.57755212 11.990154,5.56728201 C11.9935332,5.5505631 12.0070502,5.54201787 12.0205672,5.5338442 C12.0629955,5.42795776 12.1482276,5.40938118 12.2484786,5.43130152 C12.2900818,5.44218221 12.3333218,5.44557995 12.3761391,5.44133287 C12.4730108,5.42795773 12.5578675,5.44467667 12.6123109,5.53533032 C12.6821486,5.59068851 12.6498581,5.67651224 12.6768921,5.74710322 C12.6836505,5.7656798 12.5236995,5.87156624 12.4985429,5.86822244 C12.4738563,5.8629379 12.448703,5.86007564 12.4234485,5.85967724 C12.3859013,5.85967724 12.3483541,5.86822247 12.3352126,5.91020552 C12.3220711,5.95218856 12.3675032,5.96407756 12.3828975,5.99082782 C12.3982919,6.01757807 12.4677542,6.00271681 12.450858,6.04469989 C12.4330577,6.08961559 12.3892265,6.11911981 12.3404692,6.11900615 C12.302922,6.11900615 12.2571145,6.13572506 12.2402182,6.08185302 C12.233754,6.06499016 12.2258401,6.04870694 12.2165635,6.03318239 C12.2165635,6.02649483 12.2165635,6.01646348 12.2116824,6.01646348 C12.2068012,6.01646348 12.2064258,6.02315103 12.2030465,6.02983862 L12.2041729,6.02983862 Z" id="Path" fill="#A91718"></path>
                                <path d="M11.8474746,6.39691164 C11.9680011,6.40174155 11.9920313,6.46081503 11.8238199,6.49611052 C11.6927802,6.49611052 11.2050422,6.52991989 11.2050422,6.52991989 C10.948595,6.52991989 10.5216834,6.49945431 10.4946494,6.49276675 C10.353472,6.45561362 10.3298172,6.41028678 10.5780042,6.36161615 C10.6906457,6.35641471 10.9332006,6.32446302 11.2050422,6.32446302 L11.8474746,6.39691164 Z" id="Path" fill="#931B14"></path>
                                <path d="M10.4161758,5.25816787 C10.410257,5.16121125 10.4677424,5.07139732 10.5588551,5.03524905 C10.691745,4.99467607 10.833191,4.99005772 10.9684949,5.02187391 C11.0164323,5.02795699 11.0533644,5.06667864 11.0567308,5.11438523 C11.0668686,5.17308718 11.0567308,5.22027167 10.9936516,5.24219204 L10.4161758,5.25816787 Z" id="Path" fill="#FAC100"></path>
                                <path d="M11.7877746,5.70486858 C11.6807651,5.61617985 11.5651198,5.59000944 11.4528537,5.54057638 C11.4359575,5.43880245 11.3511008,5.49768596 11.342465,5.36319899 C11.3323272,5.19236416 11.3203121,5.06369282 11.4479725,5.0208024 C11.6161839,4.96119195 11.7659972,4.97500415 11.8932822,5.21489981 C11.9492275,5.3203085 11.9833954,5.4482529 11.9511049,5.60018683 C11.9188143,5.75212076 11.8455973,5.69541813 11.7877746,5.70559557 L11.7877746,5.70486858 Z M12.6156901,6.05017304 C12.543838,5.9597683 12.4636466,5.89707199 12.3795183,5.86552601 C12.3276357,5.81355209 12.2696802,5.78850557 12.2113069,5.79283036 C12.1178144,5.80300775 12.0956616,5.66779384 12.1193163,5.55947728 C12.142971,5.45116072 12.129454,5.24325116 12.2484786,5.29922679 C12.3480133,5.33361157 12.4462349,5.3809715 12.5424731,5.44098333 C12.6446015,5.51367898 12.6836505,5.65907033 12.7058034,5.82917822 C12.7226996,5.95784955 12.6956656,6.05671567 12.6156901,6.05308086 L12.6156901,6.05017304 Z M9.97424537,5.86552601 C9.90966422,5.91859383 9.83494529,5.91859383 9.77524528,6.00728256 C9.7429547,6.00728256 9.70015089,6.08652083 9.67987543,5.98765472 C9.65529512,5.88971456 9.66048735,5.77354939 9.6933924,5.6852408 C9.76660941,5.51440597 9.84808683,5.3661068 9.97386991,5.35956417 C10.0059887,5.3509427 10.0378296,5.33880735 10.0692398,5.32321638 C10.2359493,5.26360593 10.2783776,5.35956423 10.2427078,5.69469119 C10.23257,5.79646512 10.1969002,5.78701467 10.1612304,5.78992255 C10.0966492,5.78992255 10.0286888,5.77029471 9.97349444,5.8626182 L9.97424537,5.86552601 Z" id="Shape" fill="#F9BF00"></path>
                                <path d="M11.3159994,5.38391579 C11.3029474,5.42539937 11.3108921,5.48140222 11.2110162,5.48140222 C11.1315695,5.48140222 11.1156802,5.44945985 11.1264622,5.4025834 C11.1372442,5.35570696 11.1446214,5.28974805 11.2399575,5.28974805 C11.3142969,5.28974805 11.3142969,5.34035803 11.3171344,5.38350097 L11.3159994,5.38391579 Z" id="Path" fill="#B0AA83"></path>
                                <path d="M11.3274461,6.19874785 C11.3086725,6.31302724 11.0792591,6.31302724 11.0646157,6.19874785 C11.0984082,6.03610303 11.3060442,6.08061634 11.3274461,6.19874785 Z" id="Path" fill="#A71817"></path>
                                <path d="M11.6281991,6.32628767 C11.5992877,6.22415961 11.5857707,6.25070139 11.6281991,6.182616 C11.6961595,6.16415219 11.789652,6.14857333 11.8238199,6.2662802 L11.8035444,6.31820975 C11.7511929,6.37289928 11.6829681,6.37604905 11.6285745,6.32628767 L11.6281991,6.32628767 Z" id="Path" fill="#218957"></path>
                                <path d="M10.8901932,6.01245002 C10.8371944,5.97388812 10.7644333,5.93875393 10.8129406,5.85734544 C10.8330992,5.82987725 10.8681996,5.81614862 10.9027692,5.82221126 C11.0042755,5.84963304 11.0006823,5.92332919 10.9764286,6.00045292 L10.8901932,6.01245002 Z" id="Path" fill="#B87875"></path>
                                <path d="M11.5359447,5.99499132 C11.5171091,5.92861997 11.4930413,5.86224862 11.5830337,5.80976893 C11.6087717,5.80292003 11.6375109,5.80674704 11.6583762,5.81980182 C11.6924563,5.84262129 11.7118896,5.87499182 11.7118896,5.90894009 C11.7118896,5.94288836 11.6924563,5.97525888 11.6583762,5.99807835 L11.5359447,5.99499132 Z" id="Path" fill="#B6827C"></path>
                                <path d="M11.252782,5.37680552 C11.1831937,5.37680552 11.1561317,5.3260735 11.1561317,5.27064411 C11.1519086,5.24845283 11.1604228,5.22578356 11.1783613,5.21145681 C11.1944214,5.19552576 11.2163069,5.18640848 11.2392509,5.1860908 C11.2962746,5.1860908 11.3532984,5.19454616 11.3484658,5.2668862 C11.3436557,5.32000741 11.3049356,5.36441972 11.2518155,5.37774498 L11.252782,5.37680552 Z" id="Path" fill="#B0AA83"></path>
                                <path d="M12.2372019,6.14058442 C12.177697,6.07281851 12.1504659,6.00505267 12.2553559,5.95312812 C12.2913943,5.94271356 12.3310776,5.9520631 12.3562117,5.97689019 C12.4247936,6.0648978 12.3148608,6.08425952 12.2785527,6.136184 C12.2665278,6.13449092 12.2542695,6.13449092 12.2422446,6.136184 L12.2372019,6.14058442 Z" id="Path" fill="#A36F6F"></path>
                                <path d="M13.5010529,7.03594566 C13.6538699,7.03928945 13.6726435,7.13180078 13.6557473,7.25477767 C13.6523303,7.30177759 13.6523303,7.34895968 13.6557473,7.3959596 C13.6557473,7.56091954 13.6437322,7.57243701 13.4773981,7.57912457 L13.3272094,7.57243701 L13.3272094,7.19236037 C13.3272094,7.02071287 13.3272094,7.02071287 13.5040566,7.03594566 L13.5010529,7.03594566 Z" id="Path" fill="#DADADA"></path>
                                <path d="M13.7612549,7.9224196 L13.7237077,7.91721816 C13.7150718,7.89195402 13.7049341,7.86854756 13.6760227,7.86334609 C13.565634,7.8481133 13.6200774,7.77938 13.6317171,7.72699408 C13.6504907,7.65268779 13.7015548,7.67163589 13.7507417,7.68984095 C13.7916681,7.70507374 13.8205794,7.72179264 13.7965492,7.7771508 C13.7816089,7.82393118 13.7701883,7.87174166 13.7623813,7.9201904 L13.7612549,7.9224196 Z" id="Path" fill="#C19405"></path>
                                <path d="M14.0481277,7.87857888 C14.0478199,7.90738439 14.0447128,7.9361068 14.0388437,7.96440264 C14.0328975,7.98128399 14.0205835,7.99564917 14.0041294,8.00489957 C13.9948453,8.01010101 13.963764,7.99635434 13.963764,7.99301057 C13.963764,7.92056195 13.8450896,7.91870428 13.8612358,7.85851621 C13.8741527,7.80798793 13.9451959,7.77789388 14.0037257,7.78420991 C14.0529715,7.78903983 14.0638702,7.83473819 14.0440911,7.87857888 L14.0481277,7.87857888 Z" id="Path" fill="#C08E05"></path>
                                <path d="M13.0775205,7.83659583 C13.0024262,7.8079879 12.964879,7.7474283 12.9348412,7.68018112 C12.9318583,7.67325532 12.9322559,7.6653575 12.9359197,7.65875935 C12.9395836,7.6521612 12.9461074,7.64759412 12.9536148,7.64637175 C12.9779436,7.6359648 13.0062972,7.64278925 13.0230771,7.66309069 C13.0553677,7.71027517 13.0842791,7.74705678 13.131964,7.6764658 C13.1363433,7.67044869 13.1438673,7.6675122 13.1512186,7.66895104 C13.1585699,7.67038988 13.1643975,7.67593962 13.1661319,7.68315336 C13.1762697,7.72030649 13.1541168,7.75225819 13.1405998,7.78420991 C13.131863,7.81239491 13.107113,7.83280341 13.0775205,7.83622431 L13.0775205,7.83659583 Z" id="Path" fill="#BF8207"></path>
                                <path d="M13.6402647,7.65390107 C13.607529,7.70647206 13.5525995,7.73453959 13.5575931,7.78755609 C13.5575931,7.81384156 13.5525995,7.8441367 13.5098766,7.84012704 C13.4771409,7.83611737 13.4649343,7.8098319 13.4543923,7.78176436 C13.4266502,7.6708307 13.4693731,7.63652594 13.6374904,7.65256452 L13.6402647,7.65390107 Z" id="Path" fill="#C08D06"></path>
                                <path d="M13.3125449,7.64884785 C13.435363,7.71736969 13.4634653,7.77393469 13.3739539,7.83279906 C13.3645864,7.83877749 13.3083816,7.83877749 13.2990141,7.83279906 C13.194931,7.77439456 13.2240743,7.71828943 13.3125449,7.64562871 L13.3125449,7.64884785 Z" id="Path" fill="#C08A06"></path>
                                <path d="M13.652368,9.4932544 C13.5690133,9.49659819 13.4841566,9.49845583 13.3989245,9.5017996 C13.3512396,9.5017996 13.3238301,9.4899106 13.3238301,9.43455241 L13.3238301,8.71638221 C13.3225185,8.69092108 13.3375605,8.66740424 13.3613773,8.65768026 C13.4563048,8.68355399 13.547247,8.72204877 13.6317171,8.77211193" id="Path" fill="#DADADA"></path>
                                <path d="M13.8284643,9.33646813 C13.8284643,9.50811563 13.8284643,9.50811563 13.6516171,9.49288284 C13.6429812,9.25250201 13.6718926,9.01174968 13.6328435,8.77136885 C13.699302,8.78660164 13.7687643,8.79811911 13.8232077,8.84567514 L13.8284643,9.33646813 Z" id="Path" fill="#C2C0BE"></path>
                                <path d="M8.9187939,9.4932544 C8.59063147,9.50848718 8.59063147,9.50848718 8.58912958,9.1871125 C8.58912958,9.07268083 8.58575033,8.95676302 8.58575033,8.84233135 C8.64019374,8.7836294 8.72842964,8.79700451 8.78963156,8.75316382 C8.93418824,8.72975736 8.95296182,8.74313247 8.95446373,8.88097063 C8.95784299,9.04407293 8.95446373,9.2071752 8.95446373,9.3702775 C8.95978123,9.4145394 8.94616943,9.45898689 8.91691652,9.49288284 L8.9187939,9.4932544 Z" id="Path" fill="#D9D9D9"></path>
                                <path d="M8.74194664,8.489005 C8.58575033,8.5291304 8.5823711,8.52615813 8.58387298,8.36119819 L8.58387298,8.0821781 C8.58387298,7.98892371 8.61804093,7.92910716 8.7197938,7.92576339 C8.95258639,7.89864161 8.95446373,7.90049925 8.95108447,8.13084871 C8.95108447,8.22336003 8.97811845,8.31921514 8.9187939,8.40503891 C8.85946935,8.43178917 8.7997693,8.4603971 8.74194664,8.489005 Z" id="Path" fill="#D8D6D6"></path>
                                <path d="M8.9187939,9.4932544 C8.9187939,9.28816905 8.91353729,9.08456986 8.92367504,8.87948451 C8.92893164,8.7717404 8.88988258,8.73644491 8.7892561,8.75316382 C8.86059577,8.72121213 8.92855618,8.67885753 9.0070298,8.66585394 C9.04082226,8.69631951 9.03932037,8.73644491 9.04082226,8.77508417 L9.04082226,9.38068037 C9.04677269,9.4204009 9.03575456,9.46078051 9.01040903,9.4921398 L8.9187939,9.4921398 L8.9187939,9.4932544 Z" id="Path" fill="#ADACAC"></path>
                                <path d="M10.7270665,6.35408651 C10.6711212,6.35408651 10.6286929,6.38237456 10.560357,6.28556656 C10.5991506,6.17811607 10.6799128,6.1364702 10.7480929,6.18875857 C10.773625,6.21704661 10.7394571,6.31951223 10.7259401,6.35408651 L10.7270665,6.35408651 Z" id="Path" fill="#1A895C"></path>
                                <path d="M8.69951832,7.59918727 C8.63493716,7.60253106 8.60940507,7.57243701 8.61128242,7.50667595 C8.61478682,7.38060296 8.61478682,7.25440613 8.61128242,7.12808546 C8.61128242,7.07272727 8.63343525,7.05563684 8.68637681,7.05377917 C8.91916939,7.04040402 8.91916939,7.03854638 8.91916936,7.26740974 C8.91576951,7.30709243 8.91576951,7.34698863 8.91916936,7.38667132 C8.93268636,7.48104029 8.90227313,7.54642983 8.80878063,7.58023917 C8.77483702,7.59996253 8.73490267,7.60707528 8.69613906,7.60030187 L8.69951832,7.59918727 Z" id="Path" fill="#D9D9D9"></path>
                                <path d="M8.55063376,7.70172994 C8.58141185,7.69924694 8.61105064,7.71357956 8.62746363,7.73888307 C8.6482077,7.76897713 8.63092098,7.79275511 8.60671958,7.81318937 C8.59510733,7.82208532 8.58465839,7.83231582 8.57560347,7.84365494 C8.55639599,7.8704052 8.58943286,7.94619761 8.51990179,7.92279112 C8.45037071,7.89938463 8.44499265,7.82173457 8.44307192,7.76489029 C8.44115118,7.70804601 8.50914561,7.71621968 8.5510179,7.70247302 L8.55063376,7.70172994 Z" id="Path" fill="#C08D06"></path>
                                <path d="M9.0870053,7.61776385 C9.11403927,7.69207014 9.06672981,7.7474283 9.03256189,7.80352954 C9.01378828,7.83399511 8.98149771,7.85071402 8.95108447,7.81541856 C8.92067124,7.7801231 8.86960706,7.72625103 8.8880052,7.67423661 C8.90640334,7.62222218 8.94244861,7.66420526 8.97286184,7.68278184 C9.04795623,7.72996632 9.0321864,7.61887845 9.08550342,7.61887845 L9.0870053,7.61776385 Z" id="Path" fill="#B8710E"></path>
                                <path d="M8.8706099,7.85517241 C8.83194912,7.86867144 8.78843717,7.86867144 8.74977639,7.85517241 C8.6693688,7.82507836 8.67514393,7.76451876 8.67958634,7.70655986 C8.67958634,7.68649716 8.67558816,7.65268782 8.70579654,7.65268779 C8.77998476,7.64934399 8.75821698,7.71659118 8.78842535,7.74705678 C8.82096641,7.78011208 8.8487032,7.81627957 8.87105413,7.85480089 L8.8706099,7.85517241 Z" id="Path" fill="#BD7C09"></path>
                                <path d="M9.62317915,6.68447695 C9.63181501,6.63060491 9.67424333,6.64249391 9.70803582,6.64249391 L11.0728761,6.64249391 C11.1460931,6.64249391 11.1663686,6.66775805 11.1663686,6.73686287 C11.1629894,7.04634853 11.1663686,7.35397655 11.1663686,7.66346221 C11.1663686,7.71547661 11.1577328,7.74594218 11.095029,7.76117497 C11.0053545,7.78992933 10.9175749,7.82417637 10.8321987,7.86371764 C10.7762533,7.86706144 10.7439628,7.85368629 10.7454646,7.78643911 C10.7503458,7.64525718 10.7454646,7.5070475 10.7830118,7.36772322 C10.8032873,7.29564612 10.8254401,7.20796471 10.7270665,7.14740509 C10.6793816,7.11879716 10.7747515,7.06492511 10.747342,7.01439684 C10.7169288,6.97055612 10.6692438,6.98095902 10.6268155,6.97724371 C10.5723721,6.97055615 10.5299438,6.96386856 10.5352004,6.88807618 C10.540457,6.79742253 10.4638607,6.79036342 10.3959003,6.78701963 C10.3279399,6.78367583 10.2832587,6.81228376 10.293772,6.89141994 C10.2982025,6.91707682 10.2877683,6.94303201 10.266738,6.95866713 C10.2040342,6.99247649 10.1255606,6.94343434 10.066236,6.99582026 C10.0601816,7.03138504 10.0636776,7.06789967 10.0763737,7.10170672 C10.0951473,7.13885986 10.0763737,7.152235 10.0422058,7.17415534 C9.97424537,7.21948218 9.94871328,7.30047603 10.0012793,7.35992106 C10.0692398,7.43905724 10.0624813,7.52488101 10.0624813,7.61404853 L10.0624813,7.86297457 C9.91229252,7.84291187 9.96373216,7.95548589 9.95359442,8.02607687 C9.94157933,8.11190063 9.98400765,8.1319633 10.0624813,8.12713339 C10.1409549,8.12230348 10.2085398,8.12713339 10.2817569,8.12713339 C10.3786286,8.17246023 10.4822588,8.13716474 10.5821344,8.14905376 C10.6230608,8.15388368 10.6737495,8.13382098 10.6790061,8.2029258 C10.6893637,8.25422147 10.6557475,8.30411662 10.6039118,8.31438523 C10.544168,8.33151844 10.4824797,8.34113021 10.420306,8.34299316 C10.1950228,8.34299316 9.97349441,8.33964937 9.74896226,8.34299316 C9.65359241,8.34299316 9.61792257,8.3162429 9.6213018,8.21853011 C9.62618294,8.02681991 9.6213018,7.83510971 9.6213018,7.64154187 C9.62468106,7.32685477 9.62468106,7.00733776 9.62468106,6.68782075 L9.62317915,6.68447695 Z" id="Path" fill="#AB1519"></path>
                                <path d="M10.1416329,9.58576569 L10.1289398,8.36788575 C10.3169853,8.38311853 10.3226267,8.38794845 10.3226267,8.52950193 L10.3226267,10.0527807 C10.3226267,10.0899338 10.3057026,10.1066527 10.2586912,10.1081389 C10.2032178,10.1081389 10.1862937,10.0880761 10.1862937,10.0475793 L10.1862937,9.67604784 C10.1862937,9.64223848 10.2116798,9.59876931 10.1435133,9.58539417 L10.1416329,9.58576569 Z" id="Path" fill="#9E1717"></path>
                                <path d="M10.6874351,10.1070243 L10.6355187,10.1304307 C10.4960485,10.1438059 10.4942887,10.1438059 10.4942887,10.0345756 L10.4942887,8.489005 C10.4942887,8.44516428 10.4903289,8.40169511 10.532126,8.36639963 C10.631559,8.35116684 10.6641167,8.38163241 10.6641167,8.47079994 C10.660157,8.96010681 10.6641167,9.44792753 10.6641167,9.93723443 C10.6611683,9.99454179 10.6691908,10.0518754 10.6878751,10.1070243 L10.6874351,10.1070243 Z" id="Path" fill="#9F2115"></path>
                                <path d="M10.0966575,10.0616974 C10.0290107,10.0403068 9.98890308,9.99245017 9.99670697,9.94243586 C10.0016769,9.4613027 9.99670697,8.98054106 9.99670697,8.4975502 L9.99670697,8.44367816 C10.0016769,8.41172647 10.0243176,8.38646233 10.0767778,8.38980612 C10.129238,8.39314991 10.1242681,8.42324394 10.1242681,8.44850807 C10.1242681,8.53581796 10.1165371,8.62349937 10.1242681,8.70858006 C10.1518787,8.95230466 10.1242681,9.19788693 10.1242681,9.44198305 C10.1242681,9.49251132 10.1242681,9.5430396 10.1894292,9.58167885 L10.1894292,9.99370718 C10.1894292,10.039034 10.1844593,10.074701 10.0944486,10.0609544 L10.0966575,10.0616974 Z" id="Path" fill="#C4AD00"></path>
                                <path d="M10.2990286,8.1022408 C10.2996909,8.07735553 10.3019482,8.0525369 10.3057871,8.02793451 C10.3144229,7.97740624 10.2787531,7.9001277 10.366989,7.8915825 C10.4724966,7.88155115 10.5096683,7.92539187 10.5130476,8.04019506 C10.5135241,8.06164363 10.5157846,8.08301696 10.519806,8.10409845 C10.4499441,8.1368891 10.3688905,8.1368891 10.2990286,8.10409845 L10.2990286,8.1022408 Z" id="Path" fill="#133DC3"></path>
                                <path d="M10.3313496,10.1256008 L10.3313496,8.47414374 C10.3313496,8.42547313 10.3241905,8.37828862 10.4337785,8.38163241 C10.5433664,8.38497621 10.5235415,8.4288169 10.5235415,8.47265761 L10.5235415,10.1445489 L10.4337785,10.1545803 L10.3313496,10.1256008 Z" id="Path" fill="#C3B000"></path>
                                <path d="M11.2557309,10.1003367 C11.2932781,10.1947057 11.3405876,10.1189133 11.3848933,10.1051666 C11.4359259,10.1040332 11.4869781,10.1062673 11.5377103,10.1118542 C11.5868971,10.1218855 11.595533,10.1538372 11.5531047,10.1861605 C11.5223514,10.2126637 11.4834531,10.2281121 11.4427159,10.2300011 C11.3593612,10.2300011 11.267746,10.192848 11.208046,10.2924184 C11.1979083,10.3091374 11.1704988,10.2352026 11.1622384,10.2151399 C11.1521007,10.2017648 11.0706233,10.2604668 10.9549779,10.2589806 C10.9057911,10.2456055 10.8528496,10.1549518 10.9463421,10.1177987 C10.994027,10.1144549 11.1911498,10.151608 11.1843913,10.1044235 C11.204357,10.0870968 11.2335663,10.0851192 11.2557309,10.0995936 L11.2557309,10.1003367 Z" id="Path" fill="#2A6355"></path>
                                <path d="M11.1273548,4.999236 C11.0855106,4.80350411 11.184769,4.84428155 11.2397503,4.81084408 C11.2484736,4.81269493 11.2573013,4.81269493 11.2660246,4.81084408 C11.3278178,4.92175884 11.3365758,5.00249825 11.2241804,5.00249825 C11.1910942,5.00249825 11.1580081,5.00249825 11.1268683,4.99515828 L11.1273548,4.999236 Z" id="Path" fill="#1F63A5"></path>
                                <path d="M9.96110386,5.78797167 L9.99339444,5.78797167 C10.0343209,5.79205326 10.1004039,5.7734594 10.1004039,5.83740411 C10.100404,5.90134883 10.0850096,5.9788988 10.0050341,5.9788988 C9.95985595,5.98490813 9.91704908,5.95317663 9.90102835,5.90180236 C9.88413213,5.83831115 9.94195479,5.82606641 9.96223028,5.7888787 L9.96110386,5.78797167 Z" id="Path" fill="#A68503"></path>
                                <path d="M11.9612426,9.38551029 C11.9649139,9.41830552 11.9578039,9.45139824 11.9409672,9.47987925 C11.8976964,9.53217346 11.8976964,9.60740626 11.9409672,9.65970046 C11.9578802,9.68815217 11.9649958,9.72127022 11.9612426,9.75406943 C11.9612426,9.78602112 11.9646219,9.82317425 11.9236954,9.8365494 C11.8928666,9.85196835 11.8552719,9.84262873 11.8354595,9.81462905 C11.8034464,9.77984769 11.7613486,9.75571062 11.7149331,9.7455242 C11.6773859,9.73214905 11.6315783,9.7336352 11.6300764,9.67827701 C11.6285745,9.62291882 11.6420915,9.55715779 11.6946576,9.53858121 C11.7881501,9.50662951 11.8527313,9.46427491 11.8715048,9.36210379 C11.8748841,9.34018345 11.9056728,9.2982004 11.9428445,9.3100894 C11.9736332,9.32197839 11.9529822,9.36210379 11.9597407,9.38439569 L11.9612426,9.38551029 Z" id="Path" fill="#AD1E17"></path>
                                <path d="M12.0667502,9.30971787 C12.1448484,9.34352724 12.0870257,9.44755603 12.1482276,9.48285149 C12.2094295,9.51814695 12.2841484,9.52000463 12.3318334,9.57350517 C12.3580456,9.59978647 12.3679539,9.63798318 12.3577741,9.6735075 C12.3475944,9.70903182 12.3188988,9.73639729 12.2826466,9.74515267 C12.2334218,9.75794491 12.1868026,9.77906163 12.1448484,9.80756994 C12.069754,9.85809822 12.003671,9.82949029 12.0322068,9.75555555 C12.0915314,9.60694299 12.0374634,9.46130267 12.0543596,9.31677695 C12.0543596,9.31677695 12.0577389,9.31343316 12.0663748,9.3100894 L12.0667502,9.30971787 Z" id="Path" fill="#AD1D17"></path>
                                <path d="M12.0851483,9.10983397 C12.117634,9.05725647 12.1665295,9.01656831 12.2244484,8.99391618 C12.2890296,8.97199583 12.3415956,8.93335655 12.33709,8.85422037 C12.33709,8.81706724 12.364124,8.79700454 12.3862768,8.7717404 C12.4084296,8.74647626 12.4272032,8.69446187 12.4677542,8.71972601 C12.5083052,8.74499014 12.4576165,8.7750842 12.4523599,8.80554974 C12.4422221,8.86610937 12.4268278,8.92666897 12.4812712,8.97719727 C12.5154391,9.00914897 12.4981674,9.04444445 12.477892,9.07491003 C12.4576165,9.1053756 12.4185674,9.14550101 12.3911579,9.12358063 C12.2856503,9.04110066 12.190656,9.11689307 12.0907804,9.12358063 L12.0840219,9.11689307 L12.0851483,9.10983397 Z" id="Path" fill="#AD1F17"></path>
                                <path d="M12.3911579,8.63538836 C12.3573655,8.70783698 12.3231975,8.77508417 12.243222,8.8003483 C12.1752616,8.82226865 12.1305804,8.85756414 12.1305805,8.93818647 C12.1305805,8.9753396 12.1035465,9.02401023 12.0554861,9.00394753 C12.0179389,8.98871474 12.0179389,8.94004414 12.0419691,8.90957853 C12.0862748,8.84567514 12.076137,8.78325784 12.0539842,8.71452457 C12.0318314,8.64579129 12.0881521,8.59860678 12.1440974,8.63390224 C12.2308314,8.68777428 12.3055503,8.67105537 12.3937862,8.63390224 L12.3911579,8.63538836 Z" id="Path" fill="#AE2117"></path>
                                <path d="M11.6131802,9.21572043 C11.7046113,9.23981524 11.8009668,9.23865877 11.8917803,9.21237664 C11.8732356,9.25581618 11.8393312,9.29108178 11.7964105,9.31157552 C11.7096765,9.34872865 11.6484746,9.3907117 11.6383368,9.4932544 C11.6352423,9.51329713 11.6235876,9.53105557 11.6063423,9.5420052 C11.5890969,9.55295484 11.567926,9.55603839 11.5482235,9.55047023 C11.5039178,9.53375132 11.5144311,9.49176828 11.5245688,9.45610124 C11.5365839,9.41411819 11.5568594,9.37362126 11.5245688,9.33498201 L11.6131802,9.21572043 Z" id="Path" fill="#AD2017"></path>
                                <path d="M12.4880297,9.28631138 C12.4335863,9.35690236 12.4335863,9.43938233 12.4606202,9.52669221 C12.4658768,9.54341112 12.4452259,9.55715779 12.4230731,9.55864391 C12.3806447,9.55864391 12.3415956,9.53523744 12.3415956,9.50142807 C12.3415956,9.38365261 12.2717579,9.32978057 12.1715069,9.29634273 C12.1459748,9.2877975 12.110305,9.26439103 12.1238219,9.23429698 C12.1392163,9.19714385 12.1730088,9.22760943 12.1989163,9.23429698 C12.2566627,9.23884342 12.3147659,9.23318214 12.370507,9.21757807 C12.4215712,9.20568908 12.4760146,9.21089052 12.4861523,9.28816905 L12.4880297,9.28631138 Z" id="Path" fill="#AE2217"></path>
                                <path d="M12.0851483,9.11032578 C12.0851483,9.11520864 12.0885276,9.12046709 12.0900295,9.12722796 C12.0765125,9.26845516 12.0322068,9.2887378 11.8910294,9.21399256 L11.8910294,9.12572555 C11.9522313,9.06638008 12.0134332,9.03407812 12.0847729,9.10694536 L12.0851483,9.11032578 Z" id="Path" fill="#368F53"></path>
                                <path d="M10.2565364,7.47323813 C10.2893604,7.51372561 10.3100982,7.5605566 10.3169162,7.60959014 C10.3207978,7.68166724 10.2914705,7.71733425 10.2073699,7.71399049 C10.0745343,7.69058402 10.1409521,7.60253106 10.1349141,7.54085684 C10.1293074,7.46877974 10.195294,7.47026586 10.2561051,7.47360966 L10.2565364,7.47323813 Z" id="Path" fill="#183B9F"></path>
                                <path d="M10.6313743,7.71361894 L10.5349392,7.70693138 C10.5349392,7.66494833 10.52694,7.62110761 10.52694,7.57912457 C10.52694,7.53714152 10.5389389,7.49181468 10.6073767,7.48847092 C10.6333768,7.48486982 10.6600015,7.49040699 10.6809531,7.50377271 C10.7019048,7.51713844 10.7153225,7.53714561 10.7180326,7.5590619 C10.7220322,7.61627773 10.734031,7.69021247 10.6318187,7.71399049 L10.6313743,7.71361894 Z" id="Path" fill="#0C34AB"></path>
                                <path d="M10.67605,7.35267076 C10.6002331,7.35267076 10.5803467,7.31061122 10.5778609,7.27229029 C10.5753751,7.23396936 10.5778609,7.17088 10.645599,7.1624681 C10.713337,7.1540562 10.7611886,7.20078903 10.769889,7.25593376 C10.7785893,7.3110785 10.7332235,7.33444493 10.6741857,7.35313808 L10.67605,7.35267076 Z" id="Path" fill="#9F8D00"></path>
                                <path d="M10.1727348,7.15037733 C10.2475223,7.1590321 10.3050478,7.19592045 10.3158367,7.24214171 C10.3263471,7.28479972 10.3344319,7.33440206 10.2349882,7.34134638 C10.1541397,7.3477947 10.1323105,7.30761678 10.1323105,7.26743887 C10.1201552,7.22683303 10.1346884,7.18492604 10.1727348,7.15087338 L10.1727348,7.15037733 Z" id="Path" fill="#A18F00"></path>
                                <path d="M10.4432374,7.20573552 C10.5050717,7.20573552 10.5505382,7.22511628 10.5505381,7.27751609 C10.550538,7.32991591 10.5296235,7.39738969 10.447784,7.39738969 C10.3823124,7.39738969 10.3568512,7.33565839 10.3568512,7.29043664 C10.3568512,7.24521489 10.3814031,7.21219579 10.447784,7.20932452 L10.4432374,7.20573552 Z" id="Path" fill="#AD9900"></path>
                                <path d="M11.3732537,8.08032046 C11.3891901,8.09054134 11.4034913,8.10306438 11.415682,8.11747359 C11.4393367,8.16465807 11.4907764,8.23190526 11.4768839,8.2571694 C11.4513518,8.30101011 11.4175593,8.33779172 11.4070461,8.39017764 C11.4070461,8.39872287 11.3747555,8.40875422 11.3593612,8.40541043 C11.2726272,8.38683385 11.2778838,8.2961802 11.2658687,8.24379425 C11.2538536,8.1914083 11.3150555,8.12601879 11.3728782,8.08069198 L11.3732537,8.08032046 Z" id="Path" fill="#918D1A"></path>
                                <path d="M11.2133026,8.36119819 C11.2576083,8.38980612 11.2658687,8.45370951 11.2914008,8.49569256 C11.328948,8.55959595 11.2538536,8.62015557 11.2200611,8.67885753 C11.2065441,8.70560779 11.1468441,8.68740276 11.1400856,8.65693718 C11.1265686,8.59637756 11.0432138,8.52913037 11.1352045,8.46857078 C11.1555799,8.45370404 11.1670139,8.42967941 11.1656177,8.40466736 C11.168997,8.38460466 11.1742536,8.36417043 11.2133026,8.36082667 L11.2133026,8.36119819 Z" id="Path" fill="#898314"></path>
                                <path d="M11.141972,8.0231046 C11.141972,8.14756761 11.141972,8.32032971 11.0450957,8.31401371 C10.9974086,8.31066991 11.0041674,8.25679787 10.983891,8.23970741 C10.8633588,8.13865086 11.0826447,7.93022175 11.141972,8.02273307" id="Path" fill="#657234"></path>
                                <path d="M11.3698744,10.0523521 C11.3375838,10.0950244 11.188146,10.0901152 11.0912743,10.078031 C11.0353289,10.0712337 11.021812,9.94963671 11.0758799,9.93113284 C11.2084215,9.88846063 11.2084215,9.88846063 11.3582348,9.90545399 C11.3770084,9.96700772 11.4040423,9.99419709 11.3702499,10.0523521 L11.3698744,10.0523521 Z" id="Path" fill="#D6B37C"></path>
                                <path d="M11.1787905,10.0665274 C11.1532551,10.0070033 11.1627385,9.94441256 11.2058107,9.88819227 C11.2717135,9.87816092 11.283576,9.91345641 11.3158684,9.93017532 C11.3903386,9.98553351 11.3488198,10.0416347 11.3277309,10.0999652 L11.2058107,10.103309 L11.1787905,10.0665274 Z" id="Path" fill="#822C24"></path>
                                <path d="M12.1583654,7.38221293 C12.1959125,7.35546267 12.1959125,7.30790664 12.2229465,7.27075351 C12.2980409,7.24734704 12.2980409,7.19161733 12.2822711,7.13291537 C12.265864,7.09620112 12.2646509,7.05458661 12.2788918,7.01699756 C12.2918847,6.98041145 12.3311263,6.95986404 12.3690051,6.96981307 C12.4148127,6.98318822 12.3979165,7.01848368 12.3911579,7.0504354 C12.3722205,7.15747029 12.374516,7.26712905 12.3979164,7.37329618 C12.4320844,7.56352026 12.4080542,7.58506908 12.2263258,7.55497503 C12.1928244,7.50202924 12.1697642,7.443282 12.1583654,7.38184141 L12.1583654,7.38221293 Z" id="Path" fill="#D7D4D5"></path>
                                <path d="M11.9940648,5.9041952 L11.9566241,5.9041952 C11.8917557,5.9041952 11.8325471,5.89661622 11.8443017,5.78888643 C11.8444526,5.76151694 11.8562952,5.73631149 11.8753951,5.72270809 C11.894495,5.70910469 11.9179711,5.70915532 11.9370329,5.72284101 C11.9884052,5.75694641 12.0767828,5.78672101 12.0158327,5.9041952 L11.9940648,5.9041952 L11.9940648,5.9041952 Z" id="Path" fill="#B08D03"></path>
                                <path d="M11.1264467,5.84644274 C11.1281288,5.81438128 11.1281288,5.78222042 11.1264467,5.75015896 C11.184805,5.75015896 11.2438837,5.66182525 11.2993601,5.75015896 C11.3118684,5.76537682 11.3183458,5.78652308 11.3171001,5.80807395 C11.3158545,5.82962482 11.3070096,5.8494398 11.2928759,5.86234286 C11.2345176,5.93830986 11.1790412,5.89060963 11.1235648,5.84997608 L11.1264467,5.84644274 Z" id="Path" fill="#A91718"></path>
                                <path d="M0.0110987487,0.000626954023 L22.9899785,0.000626954023 L22.9899785,3.7880181 L0.0110987487,3.7880181 L0.0110987487,0.000626954023 Z M0.0110987487,11.3211889 L22.9899785,11.3211889 L22.9899785,14.9934053 L0.0110987487,14.9934053 L0.0110987487,11.3211889 Z" id="Shape" fill="#C40B1E"></path>
                            </g>
                        </g>
                    </g>
                </g>
            </g>
        </g>
    </g>
</svg>