<?xml version="1.0" encoding="UTF-8"?>
<svg width="23px" height="15px" viewBox="0 0 23 15" version="1.1" xmlns="http://www.w3.org/2000/svg" xmlns:xlink="http://www.w3.org/1999/xlink">
    <!-- Generator: Sketch 53.1 (72631) - https://sketchapp.com -->
    <title>伊朗</title>
    <desc>Created with Sketch.</desc>
    <g id="Page-1" stroke="none" stroke-width="1" fill="none" fill-rule="evenodd">
        <g id="首页TRON" transform="translate(-648.000000, -1607.000000)" fill-rule="nonzero">
            <g id="底部导航" transform="translate(0.000000, 1497.000000)">
                <g id="Group-33-Copy" transform="translate(30.000000, 47.000000)">
                    <g id="Group-25-Copy">
                        <g id="Group-35" transform="translate(0.000000, 3.000000)">
                            <g id="伊朗" transform="translate(618.000000, 60.000000)">
                                <path d="M0.105656457,14.9078631 L22.9018194,14.9078631 L22.9018194,0.0922449068 L0.105656457,0.0922449068 L0.105656457,14.9078631 Z M22.9820318,15.0078631 L22.9820318,14.9078631 L22.9820318,15.0078631 Z M0.0113795174,15 L0.0113795174,0.000107973503 L22.9960963,0.000107973503 L22.9960963,15 L0.0113795174,15 Z" id="Shape" fill="#353636"></path>
                                <polygon id="Path" fill="#D22E1D" points="0.0490902993 9.98775106 22.9395302 9.98775106 22.9395302 14.9631452 0.0490902993 14.9631452"></polygon>
                                <polygon id="Path" fill="#FFFFFF" points="0.0490902993 5.0123569 22.9395302 5.0123569 22.9395302 9.98775106 0.0490902993 9.98775106"></polygon>
                                <polygon id="Path" fill="#009E4B" points="0.0490902993 0.036962738 22.9395302 0.036962738 22.9395302 5.0123569 0.0490902993 5.0123569"></polygon>
                                <path d="M1.40667816,4.69909135 L1.10499197,4.69909135 L1.10499197,4.38582579 L1.51981048,4.38582579 L1.51981048,4.18312454 L1.63294281,4.18312454 L1.63294281,4.58852703 L1.74607512,4.58852703 L1.74607512,4.18312454 L1.85920746,4.18312454 L1.85920746,4.58852703 L1.97233977,4.58852703 L1.97233977,4.18312454 L2.0854721,4.18312454 L2.0854721,4.69909135 L1.51981048,4.69909135 L1.51981048,4.49639011 L1.19926891,4.49639011 L1.19926891,4.60695442 L1.40667816,4.60695442 L1.40667816,4.69909135 L1.40667816,4.69909135 Z M0.0490902993,4.29368887 L1.40667816,4.29368887 L1.40667816,4.18312454 L0.0490902993,4.18312454 L0.0490902993,4.29368887 Z M0.256499555,4.69909135 L0.36963187,4.69909135 L0.36963187,4.58852703 L0.256499555,4.58852703 L0.256499555,4.69909135 Z M0.0490902993,4.69909135 L0.0490902993,4.38582579 L0.577041126,4.38582579 L0.577041126,4.58852703 L0.897582712,4.58852703 L0.897582712,4.47796272 L0.671318065,4.47796272 L0.671318065,4.36739841 L0.991859652,4.36739841 L0.991859652,4.68066396 L0.46390881,4.68066396 L0.46390881,4.47796272 L0.162222615,4.47796272 L0.162222615,4.68066396 L0.0490902993,4.68066396 L0.0490902993,4.69909135 Z M3.49962612,4.69909135 L3.17908455,4.69909135 L3.17908455,4.38582579 L3.59390306,4.38582579 L3.59390306,4.18312454 L3.70703538,4.18312454 L3.70703538,4.58852703 L3.82016771,4.58852703 L3.82016771,4.18312454 L3.91444465,4.18312454 L3.91444465,4.58852703 L4.02757696,4.58852703 L4.02757696,4.18312454 L4.14070928,4.18312454 L4.14070928,4.69909135 L3.61275845,4.69909135 L3.61275845,4.49639011 L3.29221687,4.49639011 L3.29221687,4.60695442 L3.49962612,4.60695442 L3.49962612,4.69909135 L3.49962612,4.69909135 Z M2.14203826,4.29368887 L3.49962612,4.29368887 L3.49962612,4.18312454 L2.14203826,4.18312454 L2.14203826,4.29368887 Z M2.34944751,4.69909135 L2.46257985,4.69909135 L2.46257985,4.58852703 L2.34944751,4.58852703 L2.34944751,4.69909135 Z M2.14203826,4.69909135 L2.14203826,4.38582579 L2.6699891,4.38582579 L2.6699891,4.58852703 L2.9716753,4.58852703 L2.9716753,4.47796272 L2.76426603,4.47796272 L2.76426603,4.36739841 L3.08480761,4.36739841 L3.08480761,4.68066396 L2.55685677,4.68066396 L2.55685677,4.47796272 L2.2363152,4.47796272 L2.2363152,4.68066396 L2.14203826,4.68066396 L2.14203826,4.69909135 Z M5.5925741,4.69909135 L5.27203251,4.69909135 L5.27203251,4.38582579 L5.68685102,4.38582579 L5.68685102,4.18312454 L5.79998335,4.18312454 L5.79998335,4.58852703 L5.91311567,4.58852703 L5.91311567,4.18312454 L6.026248,4.18312454 L6.026248,4.58852703 L6.13938031,4.58852703 L6.13938031,4.18312454 L6.25251263,4.18312454 L6.25251263,4.69909135 L5.7245618,4.69909135 L5.7245618,4.49639011 L5.40402022,4.49639011 L5.40402022,4.60695442 L5.61142947,4.60695442 L5.61142947,4.69909135 L5.5925741,4.69909135 L5.5925741,4.69909135 Z M4.23498622,4.29368887 L5.5925741,4.29368887 L5.5925741,4.18312454 L4.23498622,4.18312454 L4.23498622,4.29368887 Z M4.44239547,4.69909135 L4.55552781,4.69909135 L4.55552781,4.58852703 L4.44239547,4.58852703 L4.44239547,4.69909135 Z M4.23498622,4.69909135 L4.23498622,4.38582579 L4.76293706,4.38582579 L4.76293706,4.58852703 L5.08347865,4.58852703 L5.08347865,4.47796272 L4.857214,4.47796272 L4.857214,4.36739841 L5.17775557,4.36739841 L5.17775557,4.68066396 L4.64980473,4.68066396 L4.64980473,4.47796272 L4.32926316,4.47796272 L4.32926316,4.68066396 L4.23498622,4.68066396 L4.23498622,4.69909135 Z M7.68552206,4.69909135 L7.36498047,4.69909135 L7.36498047,4.38582579 L7.77979898,4.38582579 L7.77979898,4.18312454 L7.89293131,4.18312454 L7.89293131,4.58852703 L8.00606363,4.58852703 L8.00606363,4.18312454 L8.11919596,4.18312454 L8.11919596,4.58852703 L8.23232828,4.58852703 L8.23232828,4.18312454 L8.34546061,4.18312454 L8.34546061,4.69909135 L7.81750976,4.69909135 L7.81750976,4.49639011 L7.49696818,4.49639011 L7.49696818,4.60695442 L7.68552206,4.60695442 L7.68552206,4.69909135 L7.68552206,4.69909135 Z M6.32793418,4.29368887 L7.68552206,4.29368887 L7.68552206,4.18312454 L6.32793418,4.18312454 L6.32793418,4.29368887 Z M6.53534345,4.69909135 L6.64847577,4.69909135 L6.64847577,4.58852703 L6.53534345,4.58852703 L6.53534345,4.69909135 Z M6.32793418,4.69909135 L6.32793418,4.38582579 L6.85588502,4.38582579 L6.85588502,4.58852703 L7.17642661,4.58852703 L7.17642661,4.47796272 L6.96901735,4.47796272 L6.96901735,4.36739841 L7.28955892,4.36739841 L7.28955892,4.68066396 L6.74275271,4.68066396 L6.74275271,4.47796272 L6.42221112,4.47796272 L6.42221112,4.68066396 L6.32793418,4.68066396 L6.32793418,4.69909135 Z M9.77847002,4.69909135 L9.45792843,4.69909135 L9.45792843,4.38582579 L9.87274696,4.38582579 L9.87274696,4.18312454 L9.98587927,4.18312454 L9.98587927,4.58852703 L10.0990116,4.58852703 L10.0990116,4.18312454 L10.2121439,4.18312454 L10.2121439,4.58852703 L10.3252762,4.58852703 L10.3252762,4.18312454 L10.4384086,4.18312454 L10.4384086,4.69909135 L9.91045772,4.69909135 L9.91045772,4.49639011 L9.57106076,4.49639011 L9.57106076,4.60695442 L9.77847002,4.60695442 L9.77847002,4.69909135 L9.77847002,4.69909135 Z M8.42088215,4.29368887 L9.77847002,4.29368887 L9.77847002,4.18312454 L8.42088215,4.18312454 L8.42088215,4.29368887 Z M8.62829141,4.69909135 L8.74142373,4.69909135 L8.74142373,4.58852703 L8.62829141,4.58852703 L8.62829141,4.69909135 Z M8.42088215,4.69909135 L8.42088215,4.38582579 L8.94883298,4.38582579 L8.94883298,4.58852703 L9.26937457,4.58852703 L9.26937457,4.47796272 L9.06196531,4.47796272 L9.06196531,4.36739841 L9.38250688,4.36739841 L9.38250688,4.68066396 L8.85455606,4.68066396 L8.85455606,4.47796272 L8.53401447,4.47796272 L8.53401447,4.68066396 L8.42088215,4.68066396 L8.42088215,4.69909135 Z M11.871418,4.69909135 L11.5508764,4.69909135 L11.5508764,4.38582579 L11.9656949,4.38582579 L11.9656949,4.18312454 L12.0788272,4.18312454 L12.0788272,4.58852703 L12.1919596,4.58852703 L12.1919596,4.18312454 L12.3050919,4.18312454 L12.3050919,4.58852703 L12.4182242,4.58852703 L12.4182242,4.18312454 L12.5313565,4.18312454 L12.5313565,4.69909135 L12.0034057,4.69909135 L12.0034057,4.49639011 L11.6451533,4.49639011 L11.6451533,4.60695442 L11.8525626,4.60695442 L11.8525626,4.69909135 L11.871418,4.69909135 L11.871418,4.69909135 Z M10.5138301,4.29368887 L11.871418,4.29368887 L11.871418,4.18312454 L10.5138301,4.18312454 L10.5138301,4.29368887 Z M10.7212394,4.69909135 L10.8343717,4.69909135 L10.8343717,4.58852703 L10.7212394,4.58852703 L10.7212394,4.69909135 Z M10.5138301,4.69909135 L10.5138301,4.38582579 L11.041781,4.38582579 L11.041781,4.58852703 L11.3623225,4.58852703 L11.3623225,4.47796272 L11.1549133,4.47796272 L11.1549133,4.36739841 L11.4754549,4.36739841 L11.4754549,4.68066396 L10.947504,4.68066396 L10.947504,4.47796272 L10.6269624,4.47796272 L10.6269624,4.68066396 L10.5138301,4.68066396 L10.5138301,4.69909135 Z M13.9455106,4.69909135 L13.624969,4.69909135 L13.624969,4.38582579 L14.0397875,4.38582579 L14.0397875,4.18312454 L14.1529198,4.18312454 L14.1529198,4.58852703 L14.2660521,4.58852703 L14.2660521,4.18312454 L14.3791845,4.18312454 L14.3791845,4.58852703 L14.4734614,4.58852703 L14.4734614,4.18312454 L14.5865937,4.18312454 L14.5865937,4.69909135 L14.0586429,4.69909135 L14.0586429,4.49639011 L13.7381013,4.49639011 L13.7381013,4.60695442 L13.9455106,4.60695442 L13.9455106,4.69909135 L13.9455106,4.69909135 Z M12.5879227,4.29368887 L13.9455106,4.29368887 L13.9455106,4.18312454 L12.5879227,4.18312454 L12.5879227,4.29368887 Z M12.795332,4.69909135 L12.9084643,4.69909135 L12.9084643,4.58852703 L12.795332,4.58852703 L12.795332,4.69909135 Z M12.5879227,4.69909135 L12.5879227,4.38582579 L13.1158735,4.38582579 L13.1158735,4.58852703 L13.4364151,4.58852703 L13.4364151,4.47796272 L13.2290059,4.47796272 L13.2290059,4.36739841 L13.530692,4.36739841 L13.530692,4.68066396 L13.0027412,4.68066396 L13.0027412,4.47796272 L12.6821996,4.47796272 L12.6821996,4.68066396 L12.5879227,4.68066396 L12.5879227,4.69909135 Z M16.0384585,4.69909135 L15.7179169,4.69909135 L15.7179169,4.38582579 L16.1327355,4.38582579 L16.1327355,4.18312454 L16.2458678,4.18312454 L16.2458678,4.58852703 L16.3590001,4.58852703 L16.3590001,4.18312454 L16.4721324,4.18312454 L16.4721324,4.58852703 L16.5852647,4.58852703 L16.5852647,4.18312454 L16.6983971,4.18312454 L16.6983971,4.69909135 L16.1704462,4.69909135 L16.1704462,4.49639011 L15.8499047,4.49639011 L15.8499047,4.60695442 L16.0573139,4.60695442 L16.0573139,4.69909135 L16.0384585,4.69909135 L16.0384585,4.69909135 Z M14.6808707,4.29368887 L16.0384585,4.29368887 L16.0384585,4.18312454 L14.6808707,4.18312454 L14.6808707,4.29368887 Z M14.8882799,4.69909135 L15.0014122,4.69909135 L15.0014122,4.58852703 L14.8882799,4.58852703 L14.8882799,4.69909135 Z M14.6808707,4.69909135 L14.6808707,4.38582579 L15.2088215,4.38582579 L15.2088215,4.58852703 L15.5293631,4.58852703 L15.5293631,4.47796272 L15.3219538,4.47796272 L15.3219538,4.36739841 L15.6424954,4.36739841 L15.6424954,4.68066396 L15.1145446,4.68066396 L15.1145446,4.47796272 L14.794003,4.47796272 L14.794003,4.68066396 L14.6808707,4.68066396 L14.6808707,4.69909135 Z M18.1314065,4.69909135 L17.8108649,4.69909135 L17.8108649,4.38582579 L18.2445388,4.38582579 L18.2445388,4.18312454 L18.3576711,4.18312454 L18.3576711,4.58852703 L18.4708034,4.58852703 L18.4708034,4.18312454 L18.5839358,4.18312454 L18.5839358,4.58852703 L18.6970681,4.58852703 L18.6970681,4.18312454 L18.8102004,4.18312454 L18.8102004,4.69909135 L18.2445388,4.69909135 L18.2445388,4.49639011 L17.9239972,4.49639011 L17.9239972,4.60695442 L18.1314065,4.60695442 L18.1314065,4.69909135 L18.1314065,4.69909135 Z M16.7738186,4.29368887 L18.1314065,4.29368887 L18.1314065,4.18312454 L16.7738186,4.18312454 L16.7738186,4.29368887 Z M16.9812279,4.69909135 L17.0943602,4.69909135 L17.0943602,4.58852703 L16.9812279,4.58852703 L16.9812279,4.69909135 Z M16.7738186,4.69909135 L16.7738186,4.38582579 L17.3017695,4.38582579 L17.3017695,4.58852703 L17.622311,4.58852703 L17.622311,4.47796272 L17.4149018,4.47796272 L17.4149018,4.36739841 L17.7354434,4.36739841 L17.7354434,4.68066396 L17.2074925,4.68066396 L17.2074925,4.47796272 L16.8869509,4.47796272 L16.8869509,4.68066396 L16.7738186,4.68066396 L16.7738186,4.69909135 Z M20.2243544,4.69909135 L19.9038129,4.69909135 L19.9038129,4.38582579 L20.3186314,4.38582579 L20.3186314,4.18312454 L20.4317637,4.18312454 L20.4317637,4.58852703 L20.544896,4.58852703 L20.544896,4.18312454 L20.6580283,4.18312454 L20.6580283,4.58852703 L20.7711607,4.58852703 L20.7711607,4.18312454 L20.884293,4.18312454 L20.884293,4.69909135 L20.3563422,4.69909135 L20.3563422,4.49639011 L20.0358006,4.49639011 L20.0358006,4.60695442 L20.2432098,4.60695442 L20.2432098,4.69909135 L20.2243544,4.69909135 L20.2243544,4.69909135 Z M18.8667666,4.29368887 L20.2243544,4.29368887 L20.2243544,4.18312454 L18.8667666,4.18312454 L18.8667666,4.29368887 Z M19.0741758,4.69909135 L19.1873082,4.69909135 L19.1873082,4.58852703 L19.0741758,4.58852703 L19.0741758,4.69909135 Z M18.8667666,4.69909135 L18.8667666,4.38582579 L19.3947174,4.38582579 L19.3947174,4.58852703 L19.715259,4.58852703 L19.715259,4.47796272 L19.5078497,4.47796272 L19.5078497,4.36739841 L19.8283913,4.36739841 L19.8283913,4.68066396 L19.3004405,4.68066396 L19.3004405,4.47796272 L18.9798989,4.47796272 L18.9798989,4.68066396 L18.8667666,4.68066396 L18.8667666,4.69909135 Z M22.3173024,4.69909135 L21.9967608,4.69909135 L21.9967608,4.38582579 L22.4115793,4.38582579 L22.4115793,4.18312454 L22.5247117,4.18312454 L22.5247117,4.58852703 L22.637844,4.58852703 L22.637844,4.18312454 L22.7509763,4.18312454 L22.7509763,4.58852703 L22.8641086,4.58852703 L22.8641086,4.18312454 L22.977241,4.18312454 L22.977241,4.69909135 L22.4492901,4.69909135 L22.4492901,4.49639011 L22.1287485,4.49639011 L22.1287485,4.60695442 L22.3361578,4.60695442 L22.3361578,4.69909135 L22.3173024,4.69909135 L22.3173024,4.69909135 Z M20.9597145,4.29368887 L22.3173024,4.29368887 L22.3173024,4.18312454 L20.9597145,4.18312454 L20.9597145,4.29368887 Z M21.1671238,4.69909135 L21.2671893,4.69909135 L21.2671893,4.58852703 L21.1671238,4.58852703 L21.1671238,4.69909135 Z M20.9597145,4.69909135 L20.9597145,4.38582579 L21.4876654,4.38582579 L21.4876654,4.58852703 L21.808207,4.58852703 L21.808207,4.47796272 L21.6007977,4.47796272 L21.6007977,4.36739841 L21.9213393,4.36739841 L21.9213393,4.68066396 L21.3933884,4.68066396 L21.3933884,4.47796272 L21.0728469,4.47796272 L21.0728469,4.68066396 L20.9597145,4.68066396 L20.9597145,4.69909135 Z M1.10499197,5.0123569 L2.04776132,5.0123569 L2.04776132,4.80965566 L1.10499197,4.80965566 L1.10499197,5.0123569 Z M0.0490902993,5.0123569 L0.991859652,5.0123569 L0.991859652,4.80965566 L0.0490902993,4.80965566 L0.0490902993,5.0123569 Z M3.17908455,5.0123569 L4.1218539,5.0123569 L4.1218539,4.80965566 L3.17908455,4.80965566 L3.17908455,5.0123569 Z M2.14203826,5.0123569 L3.08480761,5.0123569 L3.08480761,4.80965566 L2.14203826,4.80965566 L2.14203826,5.0123569 Z M5.27203251,5.0123569 L6.21480186,5.0123569 L6.21480186,4.80965566 L5.27203251,4.80965566 L5.27203251,5.0123569 Z M4.23498622,5.0123569 L5.17775557,5.0123569 L5.17775557,4.80965566 L4.23498622,4.80965566 L4.23498622,5.0123569 Z M7.36498047,5.0123569 L8.30774982,5.0123569 L8.30774982,4.80965566 L7.36498047,4.80965566 L7.36498047,5.0123569 L7.36498047,5.0123569 Z M6.32793418,5.0123569 L7.27070353,5.0123569 L7.27070353,4.80965566 L6.32793418,4.80965566 L6.32793418,5.0123569 Z M9.45792843,5.0123569 L10.4006978,5.0123569 L10.4006978,4.80965566 L9.45792843,4.80965566 L9.45792843,5.0123569 Z M8.42088215,5.0123569 L9.36365151,5.0123569 L9.36365151,4.80965566 L8.42088215,4.80965566 L8.42088215,5.0123569 Z M11.5508764,5.0123569 L12.4936458,5.0123569 L12.4936458,4.80965566 L11.5508764,4.80965566 L11.5508764,5.0123569 Z M10.5138301,5.0123569 L11.4565995,5.0123569 L11.4565995,4.80965566 L10.5138301,4.80965566 L10.5138301,5.0123569 Z M13.6438244,5.0123569 L14.5865937,5.0123569 L14.5865937,4.80965566 L13.6438244,4.80965566 L13.6438244,5.0123569 Z M12.5879227,5.0123569 L13.530692,5.0123569 L13.530692,4.80965566 L12.5879227,4.80965566 L12.5879227,5.0123569 Z M15.7367723,5.0123569 L16.6795417,5.0123569 L16.6795417,4.80965566 L15.7367723,4.80965566 L15.7367723,5.0123569 Z M14.6808707,5.0123569 L15.62364,5.0123569 L15.62364,4.80965566 L14.6808707,4.80965566 L14.6808707,5.0123569 L14.6808707,5.0123569 Z M17.8297203,5.0123569 L18.7724896,5.0123569 L18.7724896,4.80965566 L17.8297203,4.80965566 L17.8297203,5.0123569 Z M16.7738186,5.0123569 L17.716588,5.0123569 L17.716588,4.80965566 L16.7738186,4.80965566 L16.7738186,5.0123569 Z M19.9038129,5.0123569 L20.8465822,5.0123569 L20.8465822,4.80965566 L19.9038129,4.80965566 L19.9038129,5.0123569 Z M18.8667666,5.0123569 L19.8095359,5.0123569 L19.8095359,4.80965566 L18.8667666,4.80965566 L18.8667666,5.0123569 Z M21.9967608,5.0123569 L22.9395302,5.0123569 L22.9395302,4.80965566 L21.9967608,4.80965566 L21.9967608,5.0123569 Z M20.9597145,5.0123569 L21.9024839,5.0123569 L21.9024839,4.80965566 L20.9597145,4.80965566 L20.9597145,5.0123569 Z M1.40667816,10.798556 L1.10499197,10.798556 L1.10499197,10.4852905 L1.51981048,10.4852905 L1.51981048,10.2825892 L1.63294281,10.2825892 L1.63294281,10.6879917 L1.74607512,10.6879917 L1.74607512,10.2825892 L1.85920746,10.2825892 L1.85920746,10.6879917 L1.97233977,10.6879917 L1.97233977,10.2825892 L2.0854721,10.2825892 L2.0854721,10.798556 L1.51981048,10.798556 L1.51981048,10.5958548 L1.19926891,10.5958548 L1.19926891,10.7064191 L1.40667816,10.7064191 L1.40667816,10.798556 Z M0.0490902993,10.3931536 L1.40667816,10.3931536 L1.40667816,10.2825892 L0.0490902993,10.2825892 L0.0490902993,10.3931536 Z M0.256499555,10.798556 L0.36963187,10.798556 L0.36963187,10.6879917 L0.256499555,10.6879917 L0.256499555,10.798556 Z M0.0490902993,10.798556 L0.0490902993,10.4852905 L0.577041126,10.4852905 L0.577041126,10.6879917 L0.897582712,10.6879917 L0.897582712,10.5774274 L0.671318065,10.5774274 L0.671318065,10.4668631 L0.991859652,10.4668631 L0.991859652,10.798556 L0.46390881,10.798556 L0.46390881,10.5958548 L0.162222615,10.5958548 L0.162222615,10.798556 L0.0490902993,10.798556 Z M3.49962612,10.798556 L3.17908455,10.798556 L3.17908455,10.4852905 L3.59390306,10.4852905 L3.59390306,10.2825892 L3.70703538,10.2825892 L3.70703538,10.6879917 L3.82016771,10.6879917 L3.82016771,10.2825892 L3.91444465,10.2825892 L3.91444465,10.6879917 L4.02757696,10.6879917 L4.02757696,10.2825892 L4.14070928,10.2825892 L4.14070928,10.798556 L3.61275845,10.798556 L3.61275845,10.5958548 L3.29221687,10.5958548 L3.29221687,10.7064191 L3.49962612,10.7064191 L3.49962612,10.798556 L3.49962612,10.798556 Z M2.14203826,10.3931536 L3.49962612,10.3931536 L3.49962612,10.2825892 L2.14203826,10.2825892 L2.14203826,10.3931536 Z M2.34944751,10.798556 L2.46257985,10.798556 L2.46257985,10.6879917 L2.34944751,10.6879917 L2.34944751,10.798556 Z M2.14203826,10.798556 L2.14203826,10.4852905 L2.6699891,10.4852905 L2.6699891,10.6879917 L2.9716753,10.6879917 L2.9716753,10.5774274 L2.76426603,10.5774274 L2.76426603,10.4668631 L3.08480761,10.4668631 L3.08480761,10.798556 L2.55685677,10.798556 L2.55685677,10.5958548 L2.2363152,10.5958548 L2.2363152,10.798556 L2.14203826,10.798556 Z M5.5925741,10.798556 L5.27203251,10.798556 L5.27203251,10.4852905 L5.68685102,10.4852905 L5.68685102,10.2825892 L5.79998335,10.2825892 L5.79998335,10.6879917 L5.91311567,10.6879917 L5.91311567,10.2825892 L6.026248,10.2825892 L6.026248,10.6879917 L6.13938031,10.6879917 L6.13938031,10.2825892 L6.25251263,10.2825892 L6.25251263,10.798556 L5.7245618,10.798556 L5.7245618,10.5958548 L5.40402022,10.5958548 L5.40402022,10.7064191 L5.61142947,10.7064191 L5.61142947,10.798556 L5.5925741,10.798556 Z M4.23498622,10.3931536 L5.5925741,10.3931536 L5.5925741,10.2825892 L4.23498622,10.2825892 L4.23498622,10.3931536 Z M4.44239547,10.798556 L4.55552781,10.798556 L4.55552781,10.6879917 L4.44239547,10.6879917 L4.44239547,10.798556 Z M4.23498622,10.798556 L4.23498622,10.4852905 L4.76293706,10.4852905 L4.76293706,10.6879917 L5.08347865,10.6879917 L5.08347865,10.5774274 L4.857214,10.5774274 L4.857214,10.4668631 L5.17775557,10.4668631 L5.17775557,10.798556 L4.64980473,10.798556 L4.64980473,10.5958548 L4.32926316,10.5958548 L4.32926316,10.798556 L4.23498622,10.798556 L4.23498622,10.798556 Z M7.68552206,10.798556 L7.36498047,10.798556 L7.36498047,10.4852905 L7.77979898,10.4852905 L7.77979898,10.2825892 L7.89293131,10.2825892 L7.89293131,10.6879917 L8.00606363,10.6879917 L8.00606363,10.2825892 L8.11919596,10.2825892 L8.11919596,10.6879917 L8.23232828,10.6879917 L8.23232828,10.2825892 L8.34546061,10.2825892 L8.34546061,10.798556 L7.81750976,10.798556 L7.81750976,10.5958548 L7.49696818,10.5958548 L7.49696818,10.7064191 L7.68552206,10.7064191 L7.68552206,10.798556 Z M6.32793418,10.3931536 L7.68552206,10.3931536 L7.68552206,10.2825892 L6.32793418,10.2825892 L6.32793418,10.3931536 Z M6.53534345,10.798556 L6.64847577,10.798556 L6.64847577,10.6879917 L6.53534345,10.6879917 L6.53534345,10.798556 Z M6.32793418,10.798556 L6.32793418,10.4852905 L6.85588502,10.4852905 L6.85588502,10.6879917 L7.17642661,10.6879917 L7.17642661,10.5774274 L6.96901735,10.5774274 L6.96901735,10.4668631 L7.28955892,10.4668631 L7.28955892,10.798556 L6.74275271,10.798556 L6.74275271,10.5958548 L6.42221112,10.5958548 L6.42221112,10.798556 L6.32793418,10.798556 L6.32793418,10.798556 Z M9.77847002,10.798556 L9.45792843,10.798556 L9.45792843,10.4852905 L9.87274696,10.4852905 L9.87274696,10.2825892 L9.98587927,10.2825892 L9.98587927,10.6879917 L10.0990116,10.6879917 L10.0990116,10.2825892 L10.2121439,10.2825892 L10.2121439,10.6879917 L10.3252762,10.6879917 L10.3252762,10.2825892 L10.4384086,10.2825892 L10.4384086,10.798556 L9.91045772,10.798556 L9.91045772,10.5958548 L9.57106076,10.5958548 L9.57106076,10.7064191 L9.77847002,10.7064191 L9.77847002,10.798556 Z M8.42088215,10.3931536 L9.77847002,10.3931536 L9.77847002,10.2825892 L8.42088215,10.2825892 L8.42088215,10.3931536 Z M8.62829141,10.798556 L8.74142373,10.798556 L8.74142373,10.6879917 L8.62829141,10.6879917 L8.62829141,10.798556 Z M8.42088215,10.798556 L8.42088215,10.4852905 L8.94883298,10.4852905 L8.94883298,10.6879917 L9.26937457,10.6879917 L9.26937457,10.5774274 L9.06196531,10.5774274 L9.06196531,10.4668631 L9.38250688,10.4668631 L9.38250688,10.798556 L8.85455606,10.798556 L8.85455606,10.5958548 L8.53401447,10.5958548 L8.53401447,10.798556 L8.42088215,10.798556 L8.42088215,10.798556 Z M11.871418,10.798556 L11.5508764,10.798556 L11.5508764,10.4852905 L11.9656949,10.4852905 L11.9656949,10.2825892 L12.0788272,10.2825892 L12.0788272,10.6879917 L12.1919596,10.6879917 L12.1919596,10.2825892 L12.3050919,10.2825892 L12.3050919,10.6879917 L12.4182242,10.6879917 L12.4182242,10.2825892 L12.5313565,10.2825892 L12.5313565,10.798556 L12.0034057,10.798556 L12.0034057,10.5958548 L11.6451533,10.5958548 L11.6451533,10.7064191 L11.8525626,10.7064191 L11.8525626,10.798556 L11.871418,10.798556 L11.871418,10.798556 Z M10.5138301,10.3931536 L11.871418,10.3931536 L11.871418,10.2825892 L10.5138301,10.2825892 L10.5138301,10.3931536 Z M10.7212394,10.798556 L10.8343717,10.798556 L10.8343717,10.6879917 L10.7212394,10.6879917 L10.7212394,10.798556 Z M10.5138301,10.798556 L10.5138301,10.4852905 L11.041781,10.4852905 L11.041781,10.6879917 L11.3623225,10.6879917 L11.3623225,10.5774274 L11.1549133,10.5774274 L11.1549133,10.4668631 L11.4754549,10.4668631 L11.4754549,10.798556 L10.947504,10.798556 L10.947504,10.5958548 L10.6269624,10.5958548 L10.6269624,10.798556 L10.5138301,10.798556 Z M13.9455106,10.798556 L13.624969,10.798556 L13.624969,10.4852905 L14.0397875,10.4852905 L14.0397875,10.2825892 L14.1529198,10.2825892 L14.1529198,10.6879917 L14.2660521,10.6879917 L14.2660521,10.2825892 L14.3791845,10.2825892 L14.3791845,10.6879917 L14.4734614,10.6879917 L14.4734614,10.2825892 L14.5865937,10.2825892 L14.5865937,10.798556 L14.0586429,10.798556 L14.0586429,10.5958548 L13.7381013,10.5958548 L13.7381013,10.7064191 L13.9455106,10.7064191 L13.9455106,10.798556 Z M12.5879227,10.3931536 L13.9455106,10.3931536 L13.9455106,10.2825892 L12.5879227,10.2825892 L12.5879227,10.3931536 Z M12.795332,10.798556 L12.8953974,10.798556 L12.8953974,10.6879917 L12.795332,10.6879917 L12.795332,10.798556 Z M12.5879227,10.798556 L12.5879227,10.4852905 L13.1158735,10.4852905 L13.1158735,10.6879917 L13.4364151,10.6879917 L13.4364151,10.5774274 L13.2290059,10.5774274 L13.2290059,10.4668631 L13.530692,10.4668631 L13.530692,10.798556 L13.0027412,10.798556 L13.0027412,10.5958548 L12.6821996,10.5958548 L12.6821996,10.798556 L12.5879227,10.798556 Z M16.0384585,10.798556 L15.7179169,10.798556 L15.7179169,10.4852905 L16.1327355,10.4852905 L16.1327355,10.2825892 L16.2458678,10.2825892 L16.2458678,10.6879917 L16.3590001,10.6879917 L16.3590001,10.2825892 L16.4721324,10.2825892 L16.4721324,10.6879917 L16.5852647,10.6879917 L16.5852647,10.2825892 L16.6983971,10.2825892 L16.6983971,10.798556 L16.1704462,10.798556 L16.1704462,10.5958548 L15.8499047,10.5958548 L15.8499047,10.7064191 L16.0573139,10.7064191 L16.0573139,10.798556 L16.0384585,10.798556 Z M14.6808707,10.3931536 L16.0384585,10.3931536 L16.0384585,10.2825892 L14.6808707,10.2825892 L14.6808707,10.3931536 Z M14.8882799,10.798556 L15.0014122,10.798556 L15.0014122,10.6879917 L14.8882799,10.6879917 L14.8882799,10.798556 Z M14.6808707,10.798556 L14.6808707,10.4852905 L15.2088215,10.4852905 L15.2088215,10.6879917 L15.5293631,10.6879917 L15.5293631,10.5774274 L15.3219538,10.5774274 L15.3219538,10.4668631 L15.6424954,10.4668631 L15.6424954,10.798556 L15.1145446,10.798556 L15.1145446,10.5958548 L14.794003,10.5958548 L14.794003,10.798556 L14.6808707,10.798556 L14.6808707,10.798556 Z M18.1314065,10.798556 L17.8108649,10.798556 L17.8108649,10.4852905 L18.2445388,10.4852905 L18.2445388,10.2825892 L18.3576711,10.2825892 L18.3576711,10.6879917 L18.4708034,10.6879917 L18.4708034,10.2825892 L18.5839358,10.2825892 L18.5839358,10.6879917 L18.6970681,10.6879917 L18.6970681,10.2825892 L18.8102004,10.2825892 L18.8102004,10.798556 L18.2445388,10.798556 L18.2445388,10.5958548 L17.9239972,10.5958548 L17.9239972,10.7064191 L18.1314065,10.7064191 L18.1314065,10.798556 Z M16.7738186,10.3931536 L18.1314065,10.3931536 L18.1314065,10.2825892 L16.7738186,10.2825892 L16.7738186,10.3931536 Z M16.9812279,10.798556 L17.0943602,10.798556 L17.0943602,10.6879917 L16.9812279,10.6879917 L16.9812279,10.798556 Z M16.7738186,10.798556 L16.7738186,10.4852905 L17.3017695,10.4852905 L17.3017695,10.6879917 L17.622311,10.6879917 L17.622311,10.5774274 L17.4149018,10.5774274 L17.4149018,10.4668631 L17.7354434,10.4668631 L17.7354434,10.798556 L17.2074925,10.798556 L17.2074925,10.5958548 L16.8869509,10.5958548 L16.8869509,10.798556 L16.7738186,10.798556 L16.7738186,10.798556 Z M20.2243544,10.798556 L19.9038129,10.798556 L19.9038129,10.4852905 L20.3186314,10.4852905 L20.3186314,10.2825892 L20.4317637,10.2825892 L20.4317637,10.6879917 L20.544896,10.6879917 L20.544896,10.2825892 L20.6580283,10.2825892 L20.6580283,10.6879917 L20.7711607,10.6879917 L20.7711607,10.2825892 L20.884293,10.2825892 L20.884293,10.798556 L20.3563422,10.798556 L20.3563422,10.5958548 L20.0358006,10.5958548 L20.0358006,10.7064191 L20.2432098,10.7064191 L20.2432098,10.798556 L20.2243544,10.798556 Z M18.8667666,10.3931536 L20.2243544,10.3931536 L20.2243544,10.2825892 L18.8667666,10.2825892 L18.8667666,10.3931536 Z M19.0741758,10.798556 L19.1873082,10.798556 L19.1873082,10.6879917 L19.0741758,10.6879917 L19.0741758,10.798556 Z M18.8667666,10.798556 L18.8667666,10.4852905 L19.3947174,10.4852905 L19.3947174,10.6879917 L19.715259,10.6879917 L19.715259,10.5774274 L19.5078497,10.5774274 L19.5078497,10.4668631 L19.8283913,10.4668631 L19.8283913,10.798556 L19.3004405,10.798556 L19.3004405,10.5958548 L18.9798989,10.5958548 L18.9798989,10.798556 L18.8667666,10.798556 L18.8667666,10.798556 Z M22.3173024,10.798556 L21.9967608,10.798556 L21.9967608,10.4852905 L22.4115793,10.4852905 L22.4115793,10.2825892 L22.5247117,10.2825892 L22.5247117,10.6879917 L22.637844,10.6879917 L22.637844,10.2825892 L22.7509763,10.2825892 L22.7509763,10.6879917 L22.8641086,10.6879917 L22.8641086,10.2825892 L22.977241,10.2825892 L22.977241,10.798556 L22.4492901,10.798556 L22.4492901,10.5958548 L22.1287485,10.5958548 L22.1287485,10.7064191 L22.3361578,10.7064191 L22.3361578,10.798556 L22.3173024,10.798556 Z M20.9597145,10.3931536 L22.3173024,10.3931536 L22.3173024,10.2825892 L20.9597145,10.2825892 L20.9597145,10.3931536 Z M21.1671238,10.798556 L21.2802561,10.798556 L21.2802561,10.6879917 L21.1671238,10.6879917 L21.1671238,10.798556 Z M20.9597145,10.798556 L20.9597145,10.4852905 L21.4876654,10.4852905 L21.4876654,10.6879917 L21.808207,10.6879917 L21.808207,10.5774274 L21.6007977,10.5774274 L21.6007977,10.4668631 L21.9213393,10.4668631 L21.9213393,10.798556 L21.3933884,10.798556 L21.3933884,10.5958548 L21.0728469,10.5958548 L21.0728469,10.798556 L20.9597145,10.798556 L20.9597145,10.798556 Z M1.10499197,10.1904523 L2.04776132,10.1904523 L2.04776132,9.98775106 L1.10499197,9.98775106 L1.10499197,10.1904523 Z M0.0490902993,10.1904523 L0.991859652,10.1904523 L0.991859652,9.98775106 L0.0490902993,9.98775106 L0.0490902993,10.1904523 Z M3.17908455,10.1904523 L4.1218539,10.1904523 L4.1218539,9.98775106 L3.17908455,9.98775106 L3.17908455,10.1904523 Z M2.14203826,10.1904523 L3.08480761,10.1904523 L3.08480761,9.98775106 L2.14203826,9.98775106 L2.14203826,10.1904523 Z M5.27203251,10.1904523 L6.21480186,10.1904523 L6.21480186,9.98775106 L5.27203251,9.98775106 L5.27203251,10.1904523 Z M4.23498622,10.1904523 L5.17775557,10.1904523 L5.17775557,9.98775106 L4.23498622,9.98775106 L4.23498622,10.1904523 Z M7.36498047,10.1904523 L8.30774982,10.1904523 L8.30774982,9.98775106 L7.36498047,9.98775106 L7.36498047,10.1904523 L7.36498047,10.1904523 Z M6.32793418,10.1904523 L7.27070353,10.1904523 L7.27070353,9.98775106 L6.32793418,9.98775106 L6.32793418,10.1904523 Z M9.45792843,10.1904523 L10.4006978,10.1904523 L10.4006978,9.98775106 L9.45792843,9.98775106 L9.45792843,10.1904523 Z M8.42088215,10.1904523 L9.36365151,10.1904523 L9.36365151,9.98775106 L8.42088215,9.98775106 L8.42088215,10.1904523 Z M11.5508764,10.1904523 L12.4936458,10.1904523 L12.4936458,9.98775106 L11.5508764,9.98775106 L11.5508764,10.1904523 Z M10.5138301,10.1904523 L11.4565995,10.1904523 L11.4565995,9.98775106 L10.5138301,9.98775106 L10.5138301,10.1904523 Z M13.6438244,10.1904523 L14.5865937,10.1904523 L14.5865937,9.98775106 L13.6438244,9.98775106 L13.6438244,10.1904523 Z M12.5879227,10.1904523 L13.530692,10.1904523 L13.530692,9.98775106 L12.5879227,9.98775106 L12.5879227,10.1904523 Z M15.7367723,10.1904523 L16.6795417,10.1904523 L16.6795417,9.98775106 L15.7367723,9.98775106 L15.7367723,10.1904523 Z M14.6808707,10.1904523 L15.62364,10.1904523 L15.62364,9.98775106 L14.6808707,9.98775106 L14.6808707,10.1904523 L14.6808707,10.1904523 Z M17.8108649,10.1904523 L18.7536343,10.1904523 L18.7536343,9.98775106 L17.8108649,9.98775106 L17.8108649,10.1904523 Z M16.7738186,10.1904523 L17.716588,10.1904523 L17.716588,9.98775106 L16.7738186,9.98775106 L16.7738186,10.1904523 Z M19.9038129,10.1904523 L20.8465822,10.1904523 L20.8465822,9.98775106 L19.9038129,9.98775106 L19.9038129,10.1904523 Z M18.8667666,10.1904523 L19.8095359,10.1904523 L19.8095359,9.98775106 L18.8667666,9.98775106 L18.8667666,10.1904523 Z M21.9967608,10.1904523 L22.9395302,10.1904523 L22.9395302,9.98775106 L21.9967608,9.98775106 L21.9967608,10.1904523 Z M20.9597145,10.1904523 L21.9024839,10.1904523 L21.9024839,9.98775106 L20.9597145,9.98775106 L20.9597145,10.1904523 Z" id="Shape" fill="#FFFFFF"></path>
                                <path d="M12.0411165,5.32562246 L12.0411165,5.36247724 C12.0599719,5.47304155 12.0034057,5.58360587 11.9091288,5.6573154 L11.6640087,5.71259757 L11.4754549,5.62046064 L11.286901,5.71259757 L11.0794917,5.6573154 C10.9663594,5.58360586 10.9097932,5.43618677 10.947504,5.30719507 L11.0040702,5.38090462 L11.2491902,5.49146894 L11.5131656,5.4177594 L11.626298,5.47304155 L11.9091288,5.45461416 L12.0411165,5.32562246 Z" id="Path" fill="#D22E1D"></path>
                                <path d="M11.2114794,5.91529881 L11.4943102,5.69417018 L11.7771411,5.91529881 C11.7771411,6.21013699 11.7771411,6.50497516 11.7582857,6.78138595 L11.7582857,7.14993365 C11.7582857,7.48162659 11.7394303,7.81331954 11.7394303,8.14501248 L11.7394303,8.84525316 L11.8148518,8.78997099 C11.9656949,8.66097929 12.116538,8.5135602 12.2296703,8.34771374 C12.4182242,8.07130295 12.5502119,7.75803739 12.5879227,7.44477183 C12.6444888,7.05779672 12.6067781,6.63396684 12.4370796,6.26541914 C12.361658,6.09957266 12.2862365,5.95215358 12.1731042,5.82316188 C12.3805134,5.98900836 12.5690673,6.1917096 12.6821996,6.41283823 C12.8518981,6.72610379 12.946175,7.07622412 12.946175,7.42634445 C12.946175,7.92388387 12.7387658,8.43985067 12.3805134,8.80839838 C12.2296703,8.95581746 12.0599718,9.08480916 11.871418,9.19537348 C12.1919596,9.30593779 12.5313565,9.34279257 12.8707535,9.30593779 C12.7387658,9.36121995 12.6067781,9.39807473 12.4747904,9.41650211 C12.2296703,9.45335688 11.9656949,9.45335688 11.7205749,9.41650211 L11.7205749,9.45335688 L11.4943102,9.6929129 L11.2680456,9.43492949 L11.2680456,9.39807473 L11.1926241,9.41650211 C10.8343717,9.47178427 10.457264,9.4349295 10.117867,9.2875104 C10.2687101,9.30593779 10.4195532,9.30593779 10.5703963,9.2875104 C10.7589501,9.26908301 10.9286486,9.23222825 11.0983471,9.17694609 L10.9663594,9.10323655 C10.6835286,8.9189627 10.4384086,8.66097929 10.2687101,8.36614111 C10.0990116,8.05287555 10.0047347,7.68432785 10.0235901,7.31578013 C10.0424454,6.98408719 10.117867,6.67082162 10.2875655,6.39441084 C10.4195532,6.17328221 10.5892517,5.97058097 10.7966609,5.80473449 L10.7400948,5.87844403 C10.5326855,6.17328221 10.4006978,6.52340254 10.362987,6.89195026 C10.3252763,7.29735274 10.4006978,7.72118261 10.5892517,8.08973033 C10.7400948,8.3845685 10.9663594,8.66097929 11.2491902,8.86368053 L11.2491902,8.60569713 L11.2491902,8.25557681 C11.2491902,7.92388387 11.2491902,7.59219091 11.2303348,7.24207058 L11.2303348,6.87352287 C11.2303348,6.54182993 11.2303348,6.22856436 11.2114794,5.91529881 L11.2114794,5.91529881 Z" id="Path" fill="#D22E1D"></path>
                                <path d="M9.75961463,6.1917096 C9.98587927,5.97058097 10.2498547,5.82316188 10.5515409,5.74945234 L10.4761193,5.80473449 C10.2309993,5.98900834 10.02359,6.24699175 9.87274696,6.50497515 C9.72190386,6.78138593 9.62762692,7.0946515 9.62762692,7.42634445 C9.60877153,7.83174693 9.70304847,8.23714943 9.91045772,8.60569713 C9.98587927,8.73468883 10.0613008,8.84525316 10.1555778,8.95581746 L10.0235901,8.88210792 C9.72190386,8.69783407 9.49563921,8.42142327 9.36365151,8.08973033 C9.28822996,7.88702909 9.2316638,7.68432785 9.23166379,7.4816266 L9.23166379,7.38948967 C9.23166379,7.24207058 9.25051918,7.0946515 9.30708533,6.9656598 C9.38250688,6.67082162 9.53334998,6.39441084 9.75961463,6.1917096 L9.75961463,6.1917096 Z M12.4370796,5.74945234 L12.5313565,5.76787973 C12.7199104,5.82316188 12.8896089,5.91529881 13.040452,6.02586312 C13.2667166,6.1917096 13.4552705,6.41283823 13.5872582,6.67082162 C13.7003905,6.89195026 13.7569567,7.13150628 13.7569567,7.37106228 L13.7569567,7.44477183 L13.7381013,7.66590046 C13.7003905,7.8686017 13.6438244,8.05287556 13.5495474,8.23714942 C13.3798489,8.53198759 13.1347289,8.7715436 12.8330427,8.93739007 C13.0215966,8.73468883 13.1724397,8.47670542 13.2478612,8.21872203 C13.3421382,7.96073863 13.3798489,7.68432785 13.3609936,7.40791706 C13.3421382,7.0946515 13.2478612,6.76295856 13.0970181,6.48654777 C12.946175,6.1917096 12.7199104,5.9337262 12.4370796,5.74945234 L12.4370796,5.74945234 Z" id="Shape" fill="#D22E1D"></path>
                            </g>
                        </g>
                    </g>
                </g>
            </g>
        </g>
    </g>
</svg>