<?xml version="1.0" encoding="UTF-8"?>
<svg width="19px" height="16px" viewBox="0 0 19 16" version="1.1" xmlns="http://www.w3.org/2000/svg" xmlns:xlink="http://www.w3.org/1999/xlink">
    <!-- Generator: Sketch 53.2 (72643) - https://sketchapp.com -->
    <title>危险源</title>
    <desc>Created with Sketch.</desc>
    <g id="Page-1" stroke="none" stroke-width="1" fill="none" fill-rule="evenodd">
        <g id="1.4.1-合约详情-Transactions" transform="translate(-1142.000000, -371.000000)" fill="#C23631" fill-rule="nonzero">
            <g id="危险源" transform="translate(1142.000000, 371.000000)">
                <path d="M18.9030898,14.9661569 L10.1209908,0.345592797 C9.99332941,0.13182378 9.75645714,0 9.5,0 C9.24354286,0 9.00667059,0.13182378 8.87900923,0.345592797 L0.0969101825,14.9661569 C-0.0316403286,15.1787998 -0.0323444467,15.4412121 0.0950632131,15.6544895 C0.222470873,15.8677668 0.458620958,15.9994854 0.714507565,16 L18.2854924,16 C18.541379,15.9994854 18.7775291,15.8677668 18.9049368,15.6544895 C19.0323444,15.4412121 19.0316403,15.1787998 18.9030898,14.9661569 Z M9.02492509,5.31260574 L9.97507491,5.31260574 C10.1060704,5.31304109 10.2308876,5.36618949 10.3192297,5.45915023 C10.4075717,5.55211096 10.4513614,5.67638452 10.4399697,5.80180598 L9.96150133,10.6090135 C9.94089829,10.8401458 9.73967551,11.0176782 9.4983033,11.0176782 C9.25693108,11.0176782 9.0557083,10.8401458 9.03510526,10.6090135 L8.56003035,5.81485131 C8.5434011,5.68708101 8.58493634,5.55862748 8.67398812,5.46242106 C8.76303989,5.36621465 8.89094915,5.31161006 9.02492509,5.31260574 L9.02492509,5.31260574 Z M10.4874771,13.097412 C10.4783612,13.2814087 10.3194307,13.4255083 10.1277776,13.4235455 L8.87222245,13.4235455 C8.68056933,13.4255083 8.52163883,13.2814087 8.51252286,13.097412 L8.51252286,12.1614089 C8.51160724,12.0694562 8.54920995,11.9810135 8.61686621,11.9159901 C8.68452248,11.8509668 8.77654643,11.8148274 8.87222245,11.8157074 L10.1277776,11.8157074 C10.2234536,11.8148274 10.3154775,11.8509668 10.3831338,11.9159901 C10.45079,11.9810135 10.4883928,12.0694562 10.4874771,12.1614089 L10.4874771,13.097412 Z" id="形状"></path>
            </g>
        </g>
    </g>
</svg>