<?xml version="1.0" encoding="UTF-8"?>
<svg width="23px" height="15px" viewBox="0 0 23 15" version="1.1" xmlns="http://www.w3.org/2000/svg" xmlns:xlink="http://www.w3.org/1999/xlink">
    <!-- Generator: Sketch 53.1 (72631) - https://sketchapp.com -->
    <title>日本</title>
    <desc>Created with Sketch.</desc>
    <g id="Page-1" stroke="none" stroke-width="1" fill="none" fill-rule="evenodd">
        <g id="首页TRON" transform="translate(-617.000000, -1607.000000)" fill-rule="nonzero">
            <g id="底部导航" transform="translate(0.000000, 1497.000000)">
                <g id="Group-33-Copy" transform="translate(30.000000, 47.000000)">
                    <g id="Group-25-Copy">
                        <g id="Group-35" transform="translate(0.000000, 3.000000)">
                            <g id="日本" transform="translate(587.000000, 60.000000)">
                                <path d="M0.105745918,14.8895894 L22.8980849,14.8895894 L22.8980849,0.0957478006 L0.105745918,0.0957478006 L0.105745918,14.8895894 L0.105745918,14.8895894 Z M22.9783638,14.9896041 L22.9783638,14.8896041 L22.9783638,14.9896041 Z M0.0114924886,15 L0.0114924886,0.00373900293 L22.9923383,0.00373900293 L22.9923383,14.9815982 L0.0114924886,14.9815982 L0.0114924886,15 Z" id="Shape" fill="#353636"></path>
                                <polygon id="Path" fill="#FFFFFF" points="0.0491998694 0.0589442815 22.9357773 0.0589442815 22.9357773 14.9447947 0.0491998694 14.9447947"></polygon>
                                <path d="M6.91140235,7.49266862 C6.91140235,9.96208598 8.96242451,11.9639443 11.4924886,11.9639443 C14.0225526,11.9639443 16.0735748,9.96208598 16.0735748,7.49266862 C16.0735748,5.02325126 14.0225526,3.02139296 11.4924886,3.02139296 C8.96242451,3.02139296 6.91140235,5.02325126 6.91140235,7.49266862 Z" id="Path" fill="#C01D3C"></path>
                            </g>
                        </g>
                    </g>
                </g>
            </g>
        </g>
    </g>
</svg>