<?xml version="1.0" encoding="UTF-8"?>
<svg width="17px" height="17px" viewBox="0 0 17 17" version="1.1" xmlns="http://www.w3.org/2000/svg" xmlns:xlink="http://www.w3.org/1999/xlink">
    <!-- Generator: Sketch 53.2 (72643) - https://sketchapp.com -->
    <title>一般</title>
    <desc>Created with Sketch.</desc>
    <g id="Page-1" stroke="none" stroke-width="1" fill="none" fill-rule="evenodd">
        <g id="1.4.1-合约详情-Transactions" transform="translate(-1121.000000, -371.000000)" fill="#F5A623" fill-rule="nonzero">
            <g id="一般" transform="translate(1121.000000, 371.000000)">
                <path d="M8.5,17 C3.80573334,17 0,13.1942667 0,8.5 C0,3.80573334 3.80573334,0 8.5,0 C13.1942667,0 17,3.80573334 17,8.5 C17,13.1942667 13.1942667,17 8.5,17 Z M8.68888889,11.7466222 L11.3333333,13.1368444 C11.4605762,13.2035427 11.614638,13.1922958 11.7308453,13.1078252 C11.8470525,13.0233546 11.9052903,12.8802815 11.8811111,12.7386667 L11.3764,9.79426666 L13.5157556,7.70893334 C13.6188106,7.60852781 13.6558841,7.45830017 13.6113728,7.32147785 C13.5668614,7.18465553 13.4484941,7.08499628 13.3060889,7.06444445 L10.3499778,6.63491111 L9.02775555,3.95571111 C8.96415643,3.82665123 8.83276835,3.74492265 8.68888888,3.74492265 C8.54500942,3.74492265 8.41362134,3.82665123 8.35002221,3.95571111 L7.0278,6.63491111 L4.07131111,7.06444445 C3.92897119,7.0851147 3.81071834,7.18482008 3.76629422,7.3216207 C3.7218701,7.45842132 3.75898316,7.60857964 3.86202221,7.70893334 L6.00137779,9.79426666 L5.49628889,12.7386667 C5.47200585,12.8803899 5.53028219,13.0236103 5.64661768,13.1081159 C5.76295317,13.1926215 5.91717439,13.2037584 6.04444445,13.1368444 L8.68888889,11.7466222 L8.68888889,11.7466222 Z" id="形状"></path>
            </g>
        </g>
    </g>
</svg>