<?xml version="1.0" encoding="UTF-8"?>
<svg width="23px" height="15px" viewBox="0 0 23 15" version="1.1" xmlns="http://www.w3.org/2000/svg" xmlns:xlink="http://www.w3.org/1999/xlink">
    <!-- Generator: Sketch 53.1 (72631) - https://sketchapp.com -->
    <title>俄罗斯</title>
    <desc>Created with Sketch.</desc>
    <g id="Page-1" stroke="none" stroke-width="1" fill="none" fill-rule="evenodd">
        <g id="首页TRON" transform="translate(-617.000000, -1657.000000)" fill-rule="nonzero">
            <g id="底部导航" transform="translate(0.000000, 1497.000000)">
                <g id="Group-33-Copy" transform="translate(30.000000, 47.000000)">
                    <g id="Group-25-Copy">
                        <g id="Group-35" transform="translate(0.000000, 3.000000)">
                            <g id="俄罗斯" transform="translate(587.000000, 110.000000)">
                                <path d="M0.105803001,14.9079785 L22.8963275,14.9079785 L22.8963275,0.110419922 L0.105803001,0.110419922 L0.105803001,14.9079785 Z M22.9765466,14.9895654 L22.9765466,14.8895654 L22.9765466,14.9895654 Z M0.0115375082,15 L0.0115375082,0 L22.990593,0 L22.990593,14.9816016 L0.0115375082,14.9816016 L0.0115375082,15 Z" id="Shape" fill="#353636"></path>
                                <polygon id="Path" fill="#E51F1F" points="0.0492407045 9.9754541 22.9340157 9.9754541 22.9340157 14.94479 0.0492407045 14.94479"></polygon>
                                <polygon id="Path" fill="#232B8C" points="0.0492407045 5.0245459 22.9340157 5.0245459 22.9340157 9.99386719 0.0492407045 9.99386719"></polygon>
                                <polygon id="Path" fill="#FFFFFF" points="0.0492407045 0.0552246094 22.9340157 0.0552246094 22.9340157 5.0245459 0.0492407045 5.0245459"></polygon>
                            </g>
                        </g>
                    </g>
                </g>
            </g>
        </g>
    </g>
</svg>