<?xml version="1.0" encoding="UTF-8"?>
<svg width="11px" height="13px" viewBox="0 0 11 13" version="1.1" xmlns="http://www.w3.org/2000/svg" xmlns:xlink="http://www.w3.org/1999/xlink">
    <!-- Generator: Sketch 53.2 (72643) - https://sketchapp.com -->
    <title>盾牌</title>
    <desc>Created with Sketch.</desc>
    <g id="轮播-深度图" stroke="none" stroke-width="1" fill="none" fill-rule="evenodd">
        <g id="轮播-web端-hover" transform="translate(-518.000000, -749.000000)" fill="#26CA52" fill-rule="nonzero">
            <g id="未填写-copy-4" transform="translate(436.000000, 732.000000)">
                <g id="Group-17" transform="translate(16.000000, 10.000000)">
                    <g id="01" transform="translate(64.000000, 6.000000)">
                        <g id="盾牌" transform="translate(2.000000, 1.000000)">
                            <path d="M11,2.77127704 C10.9602143,2.37066294 10.6787676,2.04262387 10.3015405,1.95988835 C9.5367716,1.83360782 8.78231748,1.65217027 8.04259879,1.41557572 C7.31761554,1.10495464 6.63831212,0.689825541 6.02384461,0.181800419 C5.70113865,-0.0606001396 5.26791695,-0.0606001396 4.94521098,0.181800419 C4.36316142,0.743531054 3.66912257,1.16301465 2.91172137,1.40686671 C2.2103148,1.71023029 1.47059612,1.90182833 0.714668453,1.97440335 C0.330073677,2.03972087 0.0412592096,2.37792045 0.0235766912,2.78579204 C0.0235766912,2.78579204 0,4.82224703 0,6.61484997 C0,9.86040475 3.6632284,13 5.4948426,13 C7.3264568,13 10.4326859,10.7879135 10.9292699,6.66565248 C11.0530476,4.23148639 10.967582,2.77998604 10.967582,2.77998604 L11,2.77127704 Z M9.00482251,5.27801814 L5.17803081,9.05046755 C5.00562626,9.22174459 4.74333557,9.2493231 4.54146015,9.11578507 L4.44125921,9.02724355 L2.3296718,6.73096999 C2.20147354,6.58581996 2.15874079,6.38115841 2.21473543,6.19246336 C2.27073007,6.00521982 2.41955794,5.86297278 2.60227729,5.81942777 C2.78647019,5.77588276 2.97803081,5.83974878 3.10622907,5.98344731 L4.84501005,7.89071877 L8.2916276,4.48259595 C8.43014066,4.34905792 8.6261219,4.30406141 8.80589417,4.36212142 C8.98566644,4.42163294 9.12123242,4.57549197 9.16249163,4.76709002 C9.20375084,4.95868807 9.14333557,5.16044662 9.00482251,5.29253315 L9.00482251,5.27801814 Z" id="Shape"></path>
                        </g>
                    </g>
                </g>
            </g>
        </g>
    </g>
</svg>