<?xml version="1.0" encoding="UTF-8"?>
<svg width="16px" height="12px" viewBox="0 0 16 12" version="1.1" xmlns="http://www.w3.org/2000/svg" xmlns:xlink="http://www.w3.org/1999/xlink">
    <!-- Generator: Sketch 53.2 (72643) - https://sketchapp.com -->
    <title>mdpi/请求超时</title>
    <desc>Created with Sketch.</desc>
    <g id="12.04" stroke="none" stroke-width="1" fill="none" fill-rule="evenodd">
        <g id="画板" transform="translate(-120.000000, -235.000000)" fill="#C64844" fill-rule="nonzero">
            <g id="新东方-刷新图标" transform="translate(66.000000, 234.000000)">
                <g id="请求超时" transform="translate(54.000000, 1.000000)">
                    <path d="M13.1891267,8.482196 C13.0965876,8.482196 12.9115095,8.39376063 12.8189705,8.39376063 L10.5980335,6.27131165 C10.4129555,6.0944409 10.4129555,5.82913478 10.5980335,5.65226403 C10.7831116,5.47539328 11.0607287,5.47539328 11.2458068,5.65226403 L13.1891267,7.50940689 L15.1324465,5.65226403 C15.3175246,5.47539328 15.5951417,5.47539328 15.7802198,5.65226403 C15.9652979,5.82913478 15.9652979,6.0944409 15.7802198,6.27131165 L13.5592828,8.39376063 C13.3742047,8.39376063 13.2816657,8.482196 13.1891267,8.482196 Z M4.96240602,6.27131165 C4.86986698,6.27131165 4.6847889,6.18287628 4.59224986,6.18287628 L2.74146906,4.32573342 L0.798149219,6.18287628 C0.613071139,6.35974702 0.33545402,6.35974702 0.15037594,6.18287628 C-0.03470214,6.00600553 -0.03470214,5.7406994 0.15037594,5.56382866 L2.3713129,3.3529443 C2.55639098,3.17607355 2.8340081,3.17607355 3.01908618,3.3529443 L5.24002313,5.56382866 C5.42510121,5.7406994 5.42510121,6.00600553 5.24002313,6.18287628 C5.24002313,6.27131165 5.14748409,6.27131165 4.96240602,6.27131165 Z" id="形状"></path>
                    <path d="M7.92365529,11.6658695 C6.35049161,11.6658695 4.77732794,11.0468219 3.66685946,9.98559736 C2.00115674,8.39376063 1.4459225,6.00600553 2.27877386,3.88355655 C2.27877386,3.7066858 2.55639098,3.52981505 2.8340081,3.61825043 C3.01908618,3.7066858 3.20416426,3.97199192 3.11162522,4.23729804 C2.46385194,6.00600553 2.92654714,8.04001913 4.31463274,9.36654974 C5.88779641,10.9583865 8.38635049,11.312128 10.4222094,10.2509035 C10.6072874,10.1624681 10.8849046,10.2509035 11.0699826,10.4277742 C11.1625217,10.604645 11.0699826,10.8699511 10.8849046,11.0468219 C9.86697513,11.4889987 8.94158473,11.6658695 7.92365529,11.6658695 L7.92365529,11.6658695 Z M13.2816657,8.12845451 L13.0965876,8.12845451 C12.8189705,8.04001913 12.7264315,7.77471301 12.8189705,7.59784226 C13.4667438,5.82913478 13.0040486,3.79512117 11.615963,2.46859056 C10.0427993,0.965189201 7.54424523,0.52301233 5.50838635,1.58423682 C5.32330827,1.67267219 5.04569115,1.58423682 4.86061307,1.40736607 C4.86061307,1.05362457 4.95315211,0.788318452 5.13823019,0.699883078 C7.45170619,-0.53821216 10.4129555,-0.0960352891 12.3562753,1.76110757 C14.021978,3.3529443 14.4846732,5.7406994 13.7443609,7.86314838 C13.6518219,7.95158376 13.4667438,8.12845451 13.2816657,8.12845451 L13.2816657,8.12845451 Z" id="形状"></path>
                </g>
            </g>
        </g>
    </g>
</svg>