<?xml version="1.0" encoding="UTF-8"?>
<svg width="23px" height="16px" viewBox="0 0 23 16" version="1.1" xmlns="http://www.w3.org/2000/svg" xmlns:xlink="http://www.w3.org/1999/xlink">
    <!-- Generator: Sketch 53.1 (72631) - https://sketchapp.com -->
    <title>中国</title>
    <desc>Created with Sketch.</desc>
    <g id="Page-1" stroke="none" stroke-width="1" fill="none" fill-rule="evenodd">
        <g id="首页TRON" transform="translate(-617.000000, -1551.000000)" fill-rule="nonzero">
            <g id="底部导航" transform="translate(0.000000, 1497.000000)">
                <g id="Group-33-Copy" transform="translate(30.000000, 47.000000)">
                    <g id="Group-25-Copy">
                        <g id="Group-35" transform="translate(0.000000, 3.000000)">
                            <g id="分组-2-copy" transform="translate(581.000000, 0.000000)">
                                <g id="OPEN-WALLET" transform="translate(6.000000, 4.000000)">
                                    <g id="中国">
                                        <path d="M0.0947887875,14.9078613 L22.8984342,14.9078613 L22.8984342,0.0921386719 L0.0947887875,0.0921386719 L0.0947887875,14.9078613 Z M22.9975228,15.0078613 L22.9975228,14.9078613 L22.9975228,15.0078613 Z M0.000479791395,15 L0.000479791395,0 L22.9927432,0 L22.9927432,15 L0.000479791395,15 Z" id="Shape" fill="#353636"></path>
                                        <polygon id="Path" fill="#D64B24" points="0.057065189 0.0368554687 22.9550196 0.0368554687 22.9550196 15.9447168 0.057065189 15.9447168"></polygon>
                                        <path d="M3.88596545,1.73217773 L4.37637223,3.1879541 L5.94187158,3.1879541 L4.67814602,4.07248535 L5.149691,5.52824707 L3.88596545,4.62531738 L2.6222399,5.52824707 L3.11264668,4.07248535 L1.84890613,3.1879541 L3.41442047,3.1879541 L3.88596545,1.73217773 Z M7.9600691,0.958227539 L7.9412073,1.4742041 L8.41275228,1.65848145 L7.9034837,1.78747559 L7.8846219,2.28500977 L7.60169492,1.86118652 L7.11128814,1.97173828 L7.43193872,1.58477051 L7.16787353,1.16093262 L7.63941851,1.3636377 L7.9600691,0.958227539 Z M9.71418644,2.5982666 L9.48787484,3.04056152 L9.84623403,3.39067383 L9.33698044,3.31696289 L9.11063885,3.75922852 L9.03519166,3.26167969 L8.52592308,3.18796875 L8.97860626,2.96685059 L8.90315906,2.46930176 L9.26153325,2.81942871 L9.71418644,2.5982666 Z M9.18607106,4.62531738 L9.35582725,5.10442383 L9.86508083,5.10442383 L9.45013625,5.39926758 L9.60101565,5.87837402 L9.18607106,5.58354492 L8.77111147,5.87837402 L8.94086767,5.39926758 L8.52590808,5.10442383 L9.03517666,5.10442383 L9.18607106,4.62531738 Z M7.96005411,6.17321777 L7.9223455,6.6707666 L8.41273729,6.85504395 L7.9034837,6.98402344 L7.8657601,7.48157227 L7.60169492,7.05773438 L7.09242634,7.18672852 L7.43193872,6.79976074 L7.14901173,6.37592285 L7.63941851,6.5602002 L7.96005411,6.17321777 Z" id="Shape" fill="#FBDC00"></path>
                                    </g>
                                </g>
                            </g>
                        </g>
                    </g>
                </g>
            </g>
        </g>
    </g>
</svg>