<svg enable-background="new 1119 123.6 2834.6 595.3" viewBox="1119 123.6 2834.6 595.3" xmlns="http://www.w3.org/2000/svg"><g transform="translate(0 -87)"><g fill="#c53027" stroke="#c53027" stroke-linecap="round" stroke-width="7"><path d="m1395.5 445.2-197.4-164.4"/><path d="m1198.1 280.7 311.7 75.4"/><path d="m1509.8 356.1-114.3 89"/><path d="m1395.5 445.2-35.7 284.4"/><path d="m1198.1 280.7 161.7 448.8"/><path d="m1583.2 418.8-223.4 310.7"/><path d="m1509.8 356.1 73.4 62.7"/><path d="m1583.2 418.8-187.7 26.4"/></g><path d="m1676.3 399.8h183.2" fill="none" stroke="#000" stroke-width="7.5909"/><path d="m1747.2 454v143.5" fill="none" stroke="#000" stroke-width="7.1"/><path d="m1788.2 454.1v143.5" fill="none" stroke="#000" stroke-width="7.1"/><path d="m1921.2 597.2-1.2-197.6 115.4-.2s47.4 12.2 47.4 50.8c0 42.1-41.7 55.3-41.7 55.3l-79.1 2.3-.1 89.9" fill="none" stroke="#000" stroke-width="7.1"/><path d="m2033.4 507.7 48.3 86.6" fill="none" stroke="#000" stroke-width="7.1"/><path d="m2416.9 596.7.6-199.6 161.8 191.9-.9-199.4" fill="none" stroke="#000" stroke-width="7.1"/><path d="m2458.4 519.4-.5 77.9" fill="none" stroke="#000" stroke-width="7.1"/><path d="m2345.1 492.4c0 52.4-42.5 94.9-94.9 94.9s-94.9-42.5-94.9-94.9 42.5-94.9 94.9-94.9c52.5 0 94.9 42.4 94.9 94.9z" fill="none" stroke="#000" stroke-linecap="square" stroke-width="6.7"/><ellipse cx="2250.3" cy="491.1" rx="12.1" ry="11"/></g></svg>