<?xml version="1.0" encoding="UTF-8"?>
<svg width="23px" height="15px" viewBox="0 0 23 15" version="1.1" xmlns="http://www.w3.org/2000/svg" xmlns:xlink="http://www.w3.org/1999/xlink">
    <!-- Generator: Sketch 53.1 (72631) - https://sketchapp.com -->
    <title>韩国</title>
    <desc>Created with Sketch.</desc>
    <g id="Page-1" stroke="none" stroke-width="1" fill="none" fill-rule="evenodd">
        <g id="首页TRON" transform="translate(-617.000000, -1632.000000)" fill-rule="nonzero">
            <g id="底部导航" transform="translate(0.000000, 1497.000000)">
                <g id="Group-33-Copy" transform="translate(30.000000, 47.000000)">
                    <g id="Group-25-Copy">
                        <g id="Group-35" transform="translate(0.000000, 3.000000)">
                            <g id="韩国" transform="translate(587.000000, 85.000000)">
                                <path d="M0.101919805,14.9079984 L22.8942508,14.9079984 L22.8942508,0.114139501 L0.101919805,0.114139501 L0.101919805,14.9079984 Z M22.9745418,14.9895981 L22.9745418,14.8895981 L22.9745418,14.9895981 Z M0.00765871457,15 L0.00765871457,0.00373756598 L22.9885119,0.00373756598 L22.9885119,14.9815997 L0.00765871457,14.9815997 L0.00765871457,15 Z" id="Shape" fill="#353636"></path>
                                <polygon id="Path" fill="#FFFFFF" points="0.064215369 0.0589385337 22.9508075 0.0589385337 22.9508075 14.944799 0.064215369 14.944799"></polygon>
                                <path d="M15.2402505,7.16146283 C15.4287727,9.18549826 13.9017431,10.9703295 11.8279991,11.1543327 C9.75425519,11.3383359 7.92559009,9.84790984 7.73706792,7.82387441 C7.54854574,5.79983899 9.07557536,4.01500776 11.1493193,3.83100455 C13.2230632,3.66540164 15.0517283,5.15582773 15.2402505,7.16146283 Z" id="Path" fill="#CC303C"></path>
                                <path d="M8.28378223,5.59743545 C7.73706792,6.46225059 8.01985119,7.58467023 8.92475762,8.11827957 C9.81081184,8.65188891 10.9607971,8.35748375 11.5075114,7.49266862 C12.0542257,6.62785349 13.204211,6.35184865 14.0902652,6.86705767 C14.9763195,7.40066701 15.2591027,8.52308664 14.7312406,9.38790179 C13.6566642,11.1175321 11.3378415,11.6695417 9.56573302,10.6207234 C7.77477236,9.59030532 7.20920583,7.34546604 8.28378223,5.59743545 L8.28378223,5.59743545 Z" id="Path" fill="#005C9E"></path>
                                <path d="M3.50229428,4.54456903 L5.61053778,1.49379565 L6.09503977,1.81285723 L3.98660776,4.86363062 L3.50229428,4.54456903 Z M4.25657151,5.0395377 L6.36575761,1.98913232 L6.85025961,2.3081939 L4.7410735,5.35859928 L4.25657151,5.0395377 Z M5.00349638,5.54223449 L5.49365403,5.85503996 L7.60510239,2.80058651 L7.11494473,2.46938072 L5.00349638,5.54223449 Z M16.5212587,10.5511701 L17.5025166,9.13287333 L17.9868301,9.45211891 L17.0057607,10.8704157 L16.5212587,10.5511701 Z M15.3914453,12.2141912 L16.3710065,10.7949744 L16.855697,11.113668 L15.8761358,12.5328848 L15.3914453,12.2141912 Z M17.2640361,11.0606751 L18.2458596,9.64293025 L18.7299845,9.96235984 L17.748161,11.3801046 L17.2640361,11.0606751 Z M16.1451569,12.6999598 L16.6353146,13.0127652 L17.6156299,11.5959404 L17.1254723,11.283135 L16.1451569,12.6999598 Z M18.020387,11.5565637 L18.9999483,10.1373469 L19.4846388,10.4560405 L18.5050776,11.8752573 L18.020387,11.5565637 Z M16.8873688,13.1943764 L17.8646677,11.7736875 L18.3499238,12.0916451 L17.3724363,13.512334 L16.8873688,13.1943764 Z M18.2566053,5.35823128 L18.746763,5.04542579 L16.6353146,1.99097235 L16.1451569,2.30377782 L18.2566053,5.35823128 Z M16.8903851,1.80310506 L17.3748871,1.48367547 L18.356145,2.90178828 L17.8718316,3.22103387 L16.8903851,1.80310506 Z M18.0300017,3.45895003 L18.5141266,3.13933644 L19.4963271,4.55671324 L19.0123907,4.87632683 L18.0300017,3.45895003 Z M15.384847,2.79801047 L15.8697261,2.4796849 L16.8485332,3.89945374 L16.3634656,4.21777931 L15.384847,2.79801047 Z M16.5142834,4.43655913 L16.9987854,4.11786556 L17.9787236,5.5368984 L17.4940331,5.85577598 L16.5142834,4.43655913 Z M4.9927506,9.46481513 L5.47706408,9.14556955 L7.58775835,12.1952389 L7.10325636,12.5144845 L4.9927506,9.46481513 Z M3.50361395,10.4473923 L3.98811593,10.1286988 L6.09522829,13.1805762 L5.61053778,13.4992697 L3.50361395,10.4473923 Z M4.24959619,9.97321603 L4.73409819,9.65433845 L5.71441349,11.0733713 L5.22972298,11.3922489 L4.24959619,9.97321603 Z M6.36085604,13.0127652 L6.8510137,12.6999598 L5.87069838,11.283135 L5.38054072,11.5959404 L6.36085604,13.0127652 Z" id="Shape" fill="#231815"></path>
                            </g>
                        </g>
                    </g>
                </g>
            </g>
        </g>
    </g>
</svg>