<?xml version="1.0" standalone="no"?><!DOCTYPE svg PUBLIC "-//W3C//DTD SVG 1.1//EN" "http://www.w3.org/Graphics/SVG/1.1/DTD/svg11.dtd"><svg t="1578986473802" class="icon" viewBox="0 0 1024 1024" version="1.1" xmlns="http://www.w3.org/2000/svg" p-id="1565" xmlns:xlink="http://www.w3.org/1999/xlink" width="200" height="200"><defs><style type="text/css"></style></defs><path d="M512 0a512 512 0 1 0 0 1024A512 512 0 0 0 512 0z m269.397333 781.482667a41.813333 41.813333 0 0 1-58.88-0.085334L512 570.624 301.397333 781.482667a41.642667 41.642667 0 0 1-58.794666-58.88L452.864 512 242.517333 301.397333a41.642667 41.642667 0 0 1 58.88-58.794666L512 453.461333l210.517333-210.773333a41.642667 41.642667 0 0 1 58.965334 58.794667L571.050667 512l210.346666 210.602667a41.557333 41.557333 0 0 1 0 58.88z" fill="#C23631" p-id="1566"></path></svg>