<svg xmlns="http://www.w3.org/2000/svg" xmlns:xlink="http://www.w3.org/1999/xlink" viewBox="0 0 1200 1200"><defs><style>.cls-1,.cls-4{fill:none;}.cls-2{fill:#949494;}.cls-3{fill:url(#New_Pattern);}.cls-4{stroke:#000;stroke-linecap:round;stroke-linejoin:round;stroke-width:2.5px;}.cls-5{fill:#dfdfdf;}.cls-6{fill:#f3f3f3;}.cls-7{fill:#fff;}</style><pattern id="New_Pattern" data-name="New Pattern" width="12" height="12" patternUnits="userSpaceOnUse" viewBox="0 0 12 12"><rect class="cls-1" width="12" height="12"/><circle class="cls-2" cx="12" cy="9" r="2"/><circle class="cls-2" cx="6" cy="12" r="2"/><circle class="cls-2" cy="9" r="2"/><circle class="cls-2" cx="12" cy="3" r="2"/><circle class="cls-2" cx="6" cy="6" r="2"/><circle class="cls-2" cy="3" r="2"/><circle class="cls-2" cx="6" r="2"/></pattern></defs><title>Artboard 1</title><g id="Shadows"><path class="cls-3" d="M1100,542.83c-18,0-63.43,27.69-77.44,70-35.87.7-48-2.84-48-2.84L973,527.77l17.53,2.46,21.54,1,11.24-1.14,9.37-5.91,17.45-15.08,6.81,3.75,4.76-.25,14-12.47,12.49-17.72,13-24.06,1.39,8.16,1.27,23.39-3,46.46Z"/><polygon class="cls-3" points="1006.22 364.2 985.8 332.14 976.89 308.14 976.39 389.54 982.31 381.92 990.81 373.86 1006.22 364.2"/></g><g id="Vector"><path d="M1083.21,596.29C1067,606,1010.6,610.24,971.73,608V618.4L1067,959.31h35.79l-19.56-363Z"/><polygon points="1007.86 738.49 973.79 798.11 965.27 612.85 1019.57 614.63 1007.86 738.49"/><path class="cls-4" d="M1006.21,364.2c-8.53-11.77-24.82-37.9-29.76-57.73-6.34-25.48-6.89,74.58-6.89,74.58l8,7"/><path class="cls-4" d="M939.55,483.75c12.82-62.64,40.49-126.66,92.5-124.4"/><path class="cls-4" d="M1101.68,457c6.39,60.36-6.32,128.08-15.79,137.3-16.75,16.3-140.1,19.33-152,5.7-4.25-4.87-5.35-39.76-.06-81.53"/><rect class="cls-5" x="73" y="208.9" width="904.54" height="251.09"/><path class="cls-6" d="M890.82,503.37c-5.16,1.88-11.85,2.06-18.65.09-12.88-3.74-21.29-13.76-18.79-22.38s15-12.6,27.84-8.87A31.36,31.36,0,0,1,896,481.14c26.75-.25,60.71,4.45,81.53,7.8V287.24H73V954.73H977.54V528.53C939.15,522.45,901.33,507.9,890.82,503.37Z"/><path class="cls-4" d="M1058.27,366.36c15,8.25,25.55,23.31,32.62,41.92"/><path class="cls-4" d="M1065.21,329.87s-8.93,46.42-9.94,53c-.62,4-15.32,3.86-26.35,1.06"/><path class="cls-4" d="M1034.84,350.28a28.85,28.85,0,0,1-5.14-.49c-21.15-4-33.83-31-28.32-60.42a68.4,68.4,0,0,1,14.28-31.29"/><path class="cls-4" d="M1075.47,294.19a12.53,12.53,0,1,1-11.38,21.14"/><path class="cls-4" d="M933.83,518.47c26.29,7.7,59.37,14.71,86.57,12.26,5,.36,20.73-13,29.69-21.49"/><path class="cls-4" d="M1011.18,472.28a53.9,53.9,0,0,0-16.51,19.59C984.32,490,933.19,480.79,896,481.14a31.36,31.36,0,0,0-14.79-8.93c-12.87-3.73-25.34.24-27.84,8.87s5.91,18.64,18.79,22.38c6.8,2,13.49,1.79,18.65-.09a415,415,0,0,0,43,15.1"/><polygon class="cls-5" points="627.91 416.4 296.17 416.4 296.17 954.73 749.87 954.73 749.87 538.36 627.91 416.4"/><circle class="cls-7" cx="419.37" cy="622.1" r="52.66"/><rect class="cls-7" x="500.33" y="662.68" width="179" height="14.15"/><rect class="cls-7" x="366.71" y="725.96" width="312.63" height="14.15"/><rect class="cls-7" x="366.71" y="789.23" width="312.63" height="14.15"/><path class="cls-6" d="M653.79,188.28c0,11.32-34.84,99-220.35,99,0,18.9,230.1,9.37,230.1,9.37l3.4-106.54Z"/><path class="cls-4" d="M1058.91,412.41c16.18-7.21,32.47-8.7,43.12,3.28,23,25.92-33.5,100.44-44.39,97.36-12.83-3.63-51.87-40.17-52.18-52.82"/><path class="cls-4" d="M1089.61,303.56c7.39-3.7,14-36.82-.59-50.43-14.24-13.25-61.7-28.67-80.09-46.86"/><path class="cls-4" d="M1017.67,238.62c-4.23-4.15-15.89-26.38-17.48-32.17"/><path class="cls-4" d="M1002,244.24c-4.35-6.33-6.52-16.42-7.12-23.14"/><ellipse cx="1031.88" cy="288.59" rx="2.96" ry="3.42"/><path class="cls-4" d="M1019.88,282.64c-.66,3.63-4.29,13.34-9.69,21.54"/><path class="cls-4" d="M1021.43,321.2a9.38,9.38,0,0,0,7.49-4.85"/><polyline class="cls-4" points="1072.11 959.32 1072.11 986.43 1117.44 1049.17 1094.77 974.18 1094.77 959.32"/><path class="cls-6" d="M953,163.74H923.25a19.21,19.21,0,0,1,2.21,8.92c0,12.18-11.54,22.05-25.78,22.05s-25.77-9.87-25.77-22.05a19.33,19.33,0,0,1,2.2-8.92H678.32a24.54,24.54,0,0,0-24.53,24.54V289a24.54,24.54,0,0,0,24.53,24.54H953A24.54,24.54,0,0,0,977.54,289V188.28A24.54,24.54,0,0,0,953,163.74Z"/><ellipse class="cls-4" cx="899.68" cy="172.66" rx="25.77" ry="22.05"/></g></svg>